Radio-Canada-Italic.ufo
<glyph name="exclam" format="1">
  <advance width="312.3558694266954"/>
  <unicode hex="0021"/>
  <outline>
    <contour>
      <point x="45" y="41" type="curve" smooth="yes"/>
      <point x="45" y="10"/>
      <point x="65" y="-10"/>
      <point x="98" y="-10" type="curve" smooth="yes"/>
      <point x="136" y="-10"/>
      <point x="169" y="22"/>
      <point x="169" y="61" type="curve" smooth="yes"/>
      <point x="169" y="92"/>
      <point x="149" y="112"/>
      <point x="116" y="112" type="curve" smooth="yes"/>
      <point x="78" y="112"/>
      <point x="45" y="80"/>
    </contour>
    <contour>
      <point x="106" y="208" type="line"/>
      <point x="175" y="208" type="line"/>
      <point x="257" y="515" type="line"/>
      <point x="294" y="690" type="line"/>
      <point x="195" y="690" type="line"/>
      <point x="158" y="515" type="line"/>
    </contour>
  </outline>
</glyph>
<glyph name="quotedbl" format="1">
  <advance width="402"/>
  <unicode hex="0022"/>
  <outline>
    <contour>
      <point x="218.04072440241592" y="720.0" type="line"/>
      <point x="181.90158398491042" y="470.0" type="line"/>
      <point x="249.90158398491042" y="470.0" type="line"/>
      <point x="320.0407244024159" y="720.0" type="line"/>
    </contour>
    <contour>
      <point x="388.0407244024159" y="720.0" type="line"/>
      <point x="351.9015839849104" y="470.0" type="line"/>
      <point x="419.9015839849104" y="470.0" type="line"/>
      <point x="490.0407244024159" y="720.0" type="line"/>
    </contour>
  </outline>
</glyph>
<glyph name="dollar" format="1">
  <advance width="640"/>
  <unicode hex="0024"/>
  <outline>
    <contour>
      <point x="84" y="92" type="line"/>
      <point x="151" y="32"/>
      <point x="239" y="-9"/>
      <point x="346" y="-9" type="curve"/>
      <point x="511" y="-9"/>
      <point x="600" y="79"/>
      <point x="600" y="184" type="curve"/>
      <point x="600" y="261"/>
      <point x="558" y="326"/>
      <point x="413" y="401" type="curve" smooth="yes"/>
      <point x="316" y="451"/>
      <point x="293" y="483"/>
      <point x="293" y="524" type="curve"/>
      <point x="293" y="569"/>
      <point x="343" y="615"/>
      <point x="429" y="615" type="curve"/>
      <point x="498" y="615"/>
      <point x="558" y="586"/>
      <point x="605" y="547" type="curve"/>
      <point x="656" y="624" type="line"/>
      <point x="600" y="669"/>
      <point x="526" y="699"/>
      <point x="442" y="699" type="curve"/>
      <point x="285" y="699"/>
      <point x="195" y="611"/>
      <point x="195" y="518" type="curve"/>
      <point x="195" y="445"/>
      <point x="236" y="387"/>
      <point x="362" y="319" type="curve" smooth="yes"/>
      <point x="477" y="259"/>
      <point x="496" y="223"/>
      <point x="496" y="175" type="curve"/>
      <point x="496" y="124"/>
      <point x="458" y="78"/>
      <point x="352" y="78" type="curve"/>
      <point x="270" y="78"/>
      <point x="194" y="115"/>
      <point x="142" y="167" type="curve"/>
    </contour>
    <contour>
      <point x="263" y="-100" type="line"/>
      <point x="341" y="-100" type="line"/>
      <point x="434" y="340" type="line"/>
      <point x="361" y="364" type="line"/>
    </contour>
    <contour>
      <point x="361" y="364" type="line"/>
      <point x="434" y="340" type="line"/>
      <point x="530" y="790" type="line"/>
      <point x="452" y="790" type="line"/>
    </contour>
  </outline>
</glyph>
<glyph name="percent" format="1">
  <advance width="906.6833132355016"/>
  <unicode hex="0025"/>
  <outline>
    <contour>
      <point x="120" y="497" type="curve"/>
      <point x="120" y="409"/>
      <point x="175" y="358"/>
      <point x="250" y="358" type="curve"/>
      <point x="368" y="358"/>
      <point x="442" y="459"/>
      <point x="442" y="562" type="curve"/>
      <point x="442" y="649"/>
      <point x="389" y="700"/>
      <point x="311" y="700" type="curve"/>
      <point x="198" y="700"/>
      <point x="120" y="601"/>
    </contour>
    <contour>
      <point x="194" y="501" type="curve"/>
      <point x="194" y="568"/>
      <point x="239" y="632"/>
      <point x="303" y="632" type="curve"/>
      <point x="345" y="632"/>
      <point x="370" y="605"/>
      <point x="370" y="558" type="curve"/>
      <point x="370" y="489"/>
      <point x="325" y="426"/>
      <point x="261" y="426" type="curve"/>
      <point x="220" y="426"/>
      <point x="194" y="453"/>
    </contour>
    <contour>
      <point x="129" y="0" type="line"/>
      <point x="221" y="0" type="line"/>
      <point x="799" y="690" type="line"/>
      <point x="707" y="690" type="line"/>
    </contour>
    <contour>
      <point x="491" y="129" type="curve"/>
      <point x="491" y="41"/>
      <point x="547" y="-10"/>
      <point x="622" y="-10" type="curve"/>
      <point x="740" y="-10"/>
      <point x="813" y="91"/>
      <point x="813" y="194" type="curve"/>
      <point x="813" y="281"/>
      <point x="760" y="332"/>
      <point x="682" y="332" type="curve"/>
      <point x="568" y="332"/>
      <point x="491" y="233"/>
    </contour>
    <contour>
      <point x="565" y="133" type="curve"/>
      <point x="565" y="199"/>
      <point x="610" y="263"/>
      <point x="674" y="263" type="curve"/>
      <point x="715" y="263"/>
      <point x="741" y="237"/>
      <point x="741" y="189" type="curve"/>
      <point x="741" y="121"/>
      <point x="695" y="58"/>
      <point x="632" y="58" type="curve"/>
      <point x="591" y="58"/>
      <point x="565" y="85"/>
    </contour>
  </outline>
</glyph>
<glyph name="ampersand" format="1">
  <advance width="662"/>
  <unicode hex="0026"/>
  <outline>
    <contour>
      <point x="91" y="152" type="curve"/>
      <point x="91" y="60"/>
      <point x="163" y="-9"/>
      <point x="277" y="-9" type="curve"/>
      <point x="472" y="-9"/>
      <point x="604" y="175"/>
      <point x="663" y="297" type="curve"/>
      <point x="588" y="328" type="line"/>
      <point x="542" y="217"/>
      <point x="417" y="73"/>
      <point x="294" y="73" type="curve"/>
      <point x="230" y="73"/>
      <point x="184" y="105"/>
      <point x="184" y="160" type="curve"/>
      <point x="184" y="215"/>
      <point x="231" y="257"/>
      <point x="302" y="294" type="curve" smooth="yes"/>
      <point x="445" y="369" type="line" smooth="yes"/>
      <point x="538" y="418"/>
      <point x="602" y="473"/>
      <point x="602" y="557" type="curve"/>
      <point x="602" y="632"/>
      <point x="541" y="699"/>
      <point x="438" y="699" type="curve"/>
      <point x="306" y="699"/>
      <point x="244" y="614"/>
      <point x="244" y="519" type="curve"/>
      <point x="244" y="451"/>
      <point x="277" y="399"/>
      <point x="307" y="353" type="curve" smooth="yes"/>
      <point x="533" y="0" type="line"/>
      <point x="637" y="0" type="line"/>
      <point x="380" y="397" type="line" smooth="yes"/>
      <point x="351" y="442"/>
      <point x="335" y="475"/>
      <point x="335" y="521" type="curve"/>
      <point x="335" y="588"/>
      <point x="383" y="624"/>
      <point x="433" y="624" type="curve"/>
      <point x="487" y="624"/>
      <point x="516" y="585"/>
      <point x="514" y="545" type="curve"/>
      <point x="511" y="499"/>
      <point x="471" y="465"/>
      <point x="414" y="436" type="curve" smooth="yes"/>
      <point x="266" y="361" type="line" smooth="yes"/>
      <point x="158" y="306"/>
      <point x="91" y="240"/>
    </contour>
  </outline>
</glyph>
<glyph name="quotesingle" format="1">
  <advance width="222.0"/>
  <unicode hex="0027"/>
  <outline>
    <contour>
      <point x="114" y="456" type="line"/>
      <point x="180" y="456" type="line"/>
      <point x="255" y="720" type="line"/>
      <point x="153" y="720" type="line"/>
    </contour>
  </outline>
</glyph>
<glyph name="parenleft" format="1">
  <advance width="295.0861992106644"/>
  <unicode hex="0028"/>
  <outline>
    <contour>
      <point x="57" y="133" type="curve" smooth="yes"/>
      <point x="58" y="-14"/>
      <point x="102" y="-139"/>
      <point x="170" y="-238" type="curve"/>
      <point x="228" y="-198" type="line"/>
      <point x="180" y="-110"/>
      <point x="143" y="9"/>
      <point x="143" y="139" type="curve" smooth="yes"/>
      <point x="143" y="348"/>
      <point x="239" y="565"/>
      <point x="422" y="722" type="curve"/>
      <point x="386" y="774" type="line"/>
      <point x="182" y="624"/>
      <point x="56" y="395"/>
    </contour>
  </outline>
</glyph>
<glyph name="parenright" format="1">
  <advance width="332"/>
  <unicode hex="0029"/>
  <outline>
    <contour>
      <point x="-76.44852952565432" y="-195.0" type="curve"/>
      <point x="-51.58846167746527" y="-238.0" type="line"/>
      <point x="126.0680994762573" y="-122.0"/>
      <point x="266.777601836821" y="46.0"/>
      <point x="313.9651585275659" y="268.0" type="curve" smooth="yes"/>
      <point x="361.15271521831085" y="490.0"/>
      <point x="291.64966101720455" y="657.0"/>
      <point x="163.3062221709271" y="773.0" type="curve"/>
      <point x="120.16629001911616" y="730.0" type="line"/>
      <point x="221.99762479708374" y="621.0"/>
      <point x="270.0127830664999" y="447.0"/>
      <point x="231.96515852756593" y="268.0" type="curve" smooth="yes"/>
      <point x="193.91753398863196" y="89.0"/>
      <point x="71.7201356963781" y="-86.0"/>
    </contour>
  </outline>
</glyph>
<glyph name="asterisk" format="1">
  <advance width="598"/>
  <unicode hex="002A"/>
  <outline>
    <contour>
      <point x="174.89174238340144" y="517.0" type="line"/>
      <point x="351.9015839849104" y="470.0" type="line"/>
      <point x="199.0808825427572" y="325.0" type="line"/>
      <point x="260.815384774246" y="272.0" type="line"/>
      <point x="389.54909527142945" y="426.0" type="line"/>
      <point x="452.815384774246" y="272.0" type="line"/>
      <point x="537.0808825427572" y="325.0" type="line"/>
      <point x="445.9015839849104" y="470.0" type="line"/>
      <point x="642.8917423834014" y="517.0" type="line"/>
      <point x="632.9590501253533" y="602.0" type="line"/>
      <point x="443.86753424678176" y="531.0" type="line"/>
      <point x="497.0407244024159" y="720.0" type="line"/>
      <point x="407.0407244024159" y="720.0" type="line"/>
      <point x="379.86753424678176" y="531.0" type="line"/>
      <point x="220.95905012535331" y="602.0" type="line"/>
    </contour>
  </outline>
</glyph>
<glyph name="plus" format="1">
  <advance width="600"/>
  <unicode hex="002B"/>
  <outline>
    <contour>
      <point x="66.0" y="249" type="line"/>
      <point x="520.0" y="249" type="line"/>
      <point x="537.0" y="331" type="line"/>
      <point x="83.0" y="331" type="line"/>
    </contour>
    <contour>
      <point x="211.0" y="65" type="line"/>
      <point x="297.0" y="65" type="line"/>
      <point x="392.0" y="515" type="line"/>
      <point x="307.0" y="515" type="line"/>
    </contour>
  </outline>
</glyph>
<glyph name="comma" format="1">
  <advance width="219.5159363240119"/>
  <unicode hex="002C"/>
  <outline>
    <contour>
      <point x="-39" y="-152" type="line"/>
      <point x="18" y="-152" type="line"/>
      <point x="91" y="-26" type="line" smooth="yes"/>
      <point x="109" y="5"/>
      <point x="123" y="31"/>
      <point x="123" y="58" type="curve"/>
      <point x="123" y="93"/>
      <point x="102" y="113"/>
      <point x="69" y="113" type="curve"/>
      <point x="30" y="113"/>
      <point x="-2" y="83"/>
      <point x="-2" y="43" type="curve" smooth="yes"/>
      <point x="-2" y="19"/>
      <point x="14" y="1"/>
      <point x="28" y="-5" type="curve"/>
    </contour>
  </outline>
</glyph>
<glyph name="hyphen" format="1">
  <advance width="368"/>
  <unicode hex="002D"/>
  <outline>
    <contour>
      <point x="109.95079199245521" y="235.0" type="line"/>
      <point x="357.9507919924552" y="235.0" type="line"/>
      <point x="374.955316926057" y="315.0" type="line"/>
      <point x="126.95531692605697" y="315.0" type="line"/>
    </contour>
  </outline>
</glyph>
<glyph name="period" format="1">
  <advance width="222"/>
  <unicode hex="002E"/>
  <outline>
    <contour>
      <point x="61.052941206841155" y="52.0" type="curve" smooth="yes"/>
      <point x="53.613461548390376" y="17.0"/>
      <point x="73.87443438329979" y="-10.0"/>
      <point x="108.87443438329979" y="-10.0" type="curve" smooth="yes"/>
      <point x="145.87443438329979" y="-10.0"/>
      <point x="175.61346154839038" y="17.0"/>
      <point x="183.05294120684115" y="52.0" type="curve" smooth="yes"/>
      <point x="190.70497742696193" y="88.0"/>
      <point x="172.44400459205255" y="115.0"/>
      <point x="135.44400459205255" y="115.0" type="curve" smooth="yes"/>
      <point x="100.44400459205255" y="115.0"/>
      <point x="68.70497742696195" y="88.0"/>
    </contour>
  </outline>
</glyph>
<glyph name="zero" format="1">
  <advance width="660"/>
  <unicode hex="0030"/>
  <outline>
    <contour>
      <point x="140.33201377615762" y="345.0" type="curve" smooth="yes"/>
      <point x="88.68076929034225" y="102.0"/>
      <point x="183.87443438329979" y="-10.0"/>
      <point x="327.8744343832998" y="-10.0" type="curve" smooth="yes"/>
      <point x="471.8744343832998" y="-10.0"/>
      <point x="614.6807692903423" y="102.0"/>
      <point x="666.3320137761576" y="345.0" type="curve" smooth="yes"/>
      <point x="717.983258261973" y="588.0"/>
      <point x="622.7895931690155" y="700.0"/>
      <point x="478.78959316901546" y="700.0" type="curve" smooth="yes"/>
      <point x="334.78959316901546" y="700.0"/>
      <point x="191.983258261973" y="588.0"/>
    </contour>
    <contour>
      <point x="239.33201377615762" y="345.0" type="curve" smooth="yes"/>
      <point x="279.08009080845176" y="532.0"/>
      <point x="365.87205918038353" y="611.0"/>
      <point x="459.87205918038353" y="611.0" type="curve" smooth="yes"/>
      <point x="553.8720591803835" y="611.0"/>
      <point x="607.0800908084518" y="532.0"/>
      <point x="567.3320137761576" y="345.0" type="curve" smooth="yes"/>
      <point x="527.5839367438635" y="158.0"/>
      <point x="440.7919683719318" y="79.0"/>
      <point x="346.7919683719318" y="79.0" type="curve" smooth="yes"/>
      <point x="252.79196837193174" y="79.0"/>
      <point x="199.5839367438635" y="158.0"/>
    </contour>
  </outline>
</glyph>
<glyph name="one" format="1">
  <advance width="600"/>
  <unicode hex="0031"/>
  <outline>
    <contour>
      <point x="50.0" y="0" type="line"/>
      <point x="477.0" y="0" type="line"/>
      <point x="494.0" y="82" type="line"/>
      <point x="68.0" y="82" type="line"/>
    </contour>
    <contour>
      <point x="170.0" y="600" type="line"/>
      <point x="193.0" y="525" type="line"/>
      <point x="407.0" y="608" type="line"/>
      <point x="395.0" y="690" type="line"/>
    </contour>
    <contour>
      <point x="217.0" y="0" type="line"/>
      <point x="312.0" y="0" type="line"/>
      <point x="459.0" y="690" type="line"/>
      <point x="395.0" y="690" type="line"/>
      <point x="352.0" y="637" type="line"/>
    </contour>
  </outline>
</glyph>
<glyph name="two" format="1">
  <advance width="640"/>
  <unicode hex="0032"/>
  <outline>
    <contour>
      <point x="94.0" y="0" type="line"/>
      <point x="559.0" y="0" type="line"/>
      <point x="579.0" y="86" type="line"/>
      <point x="174.0" y="86" type="line"/>
      <point x="109.0" y="68" type="line"/>
    </contour>
    <contour>
      <point x="109.0" y="68" type="line"/>
      <point x="149.0" y="0" type="line"/>
      <point x="452.0" y="262" type="line" smooth="yes"/>
      <point x="566.0" y="360"/>
      <point x="638.0" y="431"/>
      <point x="638.0" y="526" type="curve"/>
      <point x="638.0" y="629"/>
      <point x="561" y="700"/>
      <point x="437" y="700" type="curve"/>
      <point x="314" y="700"/>
      <point x="233.0" y="624"/>
      <point x="195.0" y="590" type="curve"/>
      <point x="246" y="525" type="line"/>
      <point x="273" y="550"/>
      <point x="338.0" y="613"/>
      <point x="424.0" y="611" type="curve"/>
      <point x="495.0" y="611"/>
      <point x="536.0" y="569"/>
      <point x="536.0" y="515" type="curve"/>
      <point x="536.0" y="452"/>
      <point x="481.0" y="400"/>
      <point x="399.0" y="327" type="curve" smooth="yes"/>
    </contour>
  </outline>
</glyph>
<glyph name="three" format="1">
  <advance width="600"/>
  <unicode hex="0033"/>
  <outline>
    <contour>
      <point x="7.0" y="85" type="line"/>
      <point x="36.0" y="52"/>
      <point x="118.0" y="-10"/>
      <point x="241.0" y="-10" type="curve" smooth="yes"/>
      <point x="397.0" y="-10"/>
      <point x="517.0" y="93"/>
      <point x="517.0" y="236" type="curve"/>
      <point x="517.0" y="354"/>
      <point x="427.0" y="403"/>
      <point x="305.0" y="403" type="curve" smooth="yes"/>
      <point x="258.0" y="403" type="line"/>
      <point x="200.0" y="386" type="line"/>
      <point x="188.0" y="330" type="line"/>
      <point x="264.0" y="330" type="line" smooth="yes"/>
      <point x="362.0" y="330"/>
      <point x="419.0" y="296"/>
      <point x="419.0" y="230" type="curve"/>
      <point x="419.0" y="139"/>
      <point x="342.0" y="76"/>
      <point x="247.0" y="76" type="curve" smooth="yes"/>
      <point x="148.0" y="76"/>
      <point x="91.0" y="124"/>
      <point x="67.0" y="153" type="curve"/>
    </contour>
    <contour>
      <point x="135.0" y="604" type="line"/>
      <point x="515.0" y="604" type="line"/>
      <point x="567.0" y="625" type="line"/>
      <point x="581.0" y="690" type="line"/>
      <point x="153.0" y="690" type="line"/>
    </contour>
    <contour>
      <point x="200.0" y="386" type="line"/>
      <point x="307.0" y="386" type="line"/>
      <point x="567.0" y="625" type="line"/>
      <point x="520.0" y="690" type="line"/>
    </contour>
  </outline>
</glyph>
<glyph name="four" format="1">
  <advance width="640"/>
  <unicode hex="0034"/>
  <outline>
    <contour>
      <point x="90.0" y="137" type="line"/>
      <point x="600.0" y="137" type="line"/>
      <point x="618.0" y="221" type="line"/>
      <point x="161.0" y="221" type="line"/>
      <point x="106.0" y="206" type="line"/>
    </contour>
    <contour>
      <point x="106.0" y="206" type="line"/>
      <point x="157.0" y="137" type="line"/>
      <point x="605.0" y="690" type="line"/>
      <point x="507.0" y="690" type="line"/>
    </contour>
    <contour>
      <point x="388.0" y="0" type="line"/>
      <point x="482.0" y="0" type="line"/>
      <point x="634.0" y="690" type="line"/>
      <point x="546.0" y="690" type="line"/>
    </contour>
  </outline>
</glyph>
<glyph name="five" format="1">
  <advance width="640"/>
  <unicode hex="0035"/>
  <outline>
    <contour>
      <point x="95.0" y="85" type="line"/>
      <point x="141.0" y="31"/>
      <point x="225.0" y="-9"/>
      <point x="327.0" y="-9" type="curve" smooth="yes"/>
      <point x="487.0" y="-9"/>
      <point x="607.0" y="93"/>
      <point x="607.0" y="241" type="curve"/>
      <point x="607.0" y="360"/>
      <point x="521.0" y="427"/>
      <point x="411.0" y="427" type="curve" smooth="yes"/>
      <point x="340.0" y="427"/>
      <point x="288.0" y="406"/>
      <point x="244.0" y="375" type="curve"/>
      <point x="223.0" y="297" type="line"/>
      <point x="272.0" y="330"/>
      <point x="326.0" y="347"/>
      <point x="380.0" y="347" type="curve" smooth="yes"/>
      <point x="460.0" y="347"/>
      <point x="507.0" y="307"/>
      <point x="507.0" y="236" type="curve" smooth="yes"/>
      <point x="507.0" y="139"/>
      <point x="429.0" y="76"/>
      <point x="331.0" y="76" type="curve" smooth="yes"/>
      <point x="253.0" y="76"/>
      <point x="190.0" y="106"/>
      <point x="155.0" y="152" type="curve"/>
    </contour>
    <contour>
      <point x="184.0" y="327" type="line"/>
      <point x="223.0" y="297" type="line"/>
      <point x="277.0" y="338" type="line"/>
      <point x="376.0" y="690" type="line"/>
      <point x="286.0" y="690" type="line"/>
    </contour>
    <contour>
      <point x="291.0" y="690" type="line"/>
      <point x="315.0" y="604" type="line"/>
      <point x="641.0" y="604" type="line"/>
      <point x="660.0" y="690" type="line"/>
    </contour>
  </outline>
</glyph>
<glyph name="six" format="1">
  <advance width="660"/>
  <unicode hex="0036"/>
  <outline>
    <contour>
      <point x="150.0180997344071" y="320.0" type="curve"/>
      <point x="105.38122178370243" y="110.0"/>
      <point x="187.87443438329979" y="-10.0"/>
      <point x="333.8744343832998" y="-10.0" type="curve"/>
      <point x="464.8744343832998" y="-10.0"/>
      <point x="593.4924208652919" y="87.0"/>
      <point x="622.8252263757549" y="225.0" type="curve" smooth="yes"/>
      <point x="650.882692516198" y="357.0"/>
      <point x="576.9500002581498" y="442.0"/>
      <point x="452.95000025814977" y="442.0" type="curve" smooth="yes"/>
      <point x="379.95000025814977" y="442.0"/>
      <point x="300.8728509146889" y="404.0"/>
      <point x="249.11945721448762" y="344.0" type="curve"/>
      <point x="233.39027165090596" y="270.0" type="line"/>
      <point x="286.0180997344071" y="320.0"/>
      <point x="349.39479658450773" y="350.0"/>
      <point x="417.39479658450773" y="350.0" type="curve" smooth="yes"/>
      <point x="492.39479658450773" y="350.0"/>
      <point x="539.7669685010067" y="300.0"/>
      <point x="523.1875566907449" y="222.0" type="curve" smooth="yes"/>
      <point x="505.33280551046306" y="138.0"/>
      <point x="430.15429868692166" y="76.0"/>
      <point x="357.15429868692166" y="76.0" type="curve"/>
      <point x="263.15429868692166" y="76.0"/>
      <point x="215.00904986720354" y="160.0"/>
      <point x="249.0180997344071" y="320.0" type="curve"/>
      <point x="293.2298645617717" y="528.0"/>
      <point x="413.87205918038353" y="611.0"/>
      <point x="504.87205918038353" y="611.0" type="curve"/>
      <point x="557.8720591803835" y="611.0"/>
      <point x="587.4711541936632" y="595.0"/>
      <point x="616.9446835902426" y="569.0" type="curve"/>
      <point x="682.9492085238444" y="649.0" type="line"/>
      <point x="643.1761316206251" y="683.0"/>
      <point x="591.7895931690155" y="700.0"/>
      <point x="533.7895931690155" y="700.0" type="curve"/>
      <point x="382.78959316901546" y="700.0"/>
      <point x="203.79490983692267" y="573.0"/>
    </contour>
  </outline>
</glyph>
<glyph name="seven" format="1">
  <advance width="600"/>
  <unicode hex="0037"/>
  <outline>
    <contour>
      <point x="163.0" y="0" type="line"/>
      <point x="276.0" y="0" type="line"/>
      <point x="654.0" y="626" type="line"/>
      <point x="590.0" y="690" type="line"/>
    </contour>
    <contour>
      <point x="188.0" y="599" type="line"/>
      <point x="599.0" y="599" type="line"/>
      <point x="654.0" y="626" type="line"/>
      <point x="668.0" y="690" type="line"/>
      <point x="208.0" y="690" type="line"/>
    </contour>
  </outline>
</glyph>
<glyph name="eight" format="1">
  <advance width="600"/>
  <unicode hex="0038"/>
  <outline>
    <contour>
      <point x="94.0" y="162" type="curve"/>
      <point x="94.0" y="251"/>
      <point x="172.0" y="336"/>
      <point x="306.0" y="369" type="curve"/>
      <point x="369.0" y="326" type="line"/>
      <point x="255.0" y="304"/>
      <point x="189.0" y="232"/>
      <point x="189.0" y="168" type="curve"/>
      <point x="189.0" y="114"/>
      <point x="247.0" y="71"/>
      <point x="327.0" y="71" type="curve"/>
      <point x="429.0" y="71"/>
      <point x="492.0" y="132"/>
      <point x="492.0" y="190" type="curve"/>
      <point x="492.0" y="242"/>
      <point x="460.0" y="273"/>
      <point x="360.0" y="316" type="curve" smooth="yes"/>
      <point x="242.0" y="367"/>
      <point x="187.0" y="427"/>
      <point x="187.0" y="506" type="curve"/>
      <point x="187.0" y="604"/>
      <point x="281.0" y="700"/>
      <point x="436.0" y="700" type="curve"/>
      <point x="557.0" y="700"/>
      <point x="633.0" y="633"/>
      <point x="633.0" y="548" type="curve"/>
      <point x="633.0" y="462"/>
      <point x="565.0" y="384"/>
      <point x="437.0" y="356" type="curve"/>
      <point x="373.0" y="393" type="line"/>
      <point x="484.0" y="418"/>
      <point x="543.0" y="481"/>
      <point x="543.0" y="529" type="curve"/>
      <point x="543.0" y="584"/>
      <point x="501.0" y="620"/>
      <point x="425.0" y="620" type="curve"/>
      <point x="335.0" y="620"/>
      <point x="284.0" y="562"/>
      <point x="284.0" y="513" type="curve"/>
      <point x="284.0" y="467"/>
      <point x="313.0" y="430"/>
      <point x="403.0" y="393" type="curve" smooth="yes"/>
      <point x="536.0" y="342"/>
      <point x="589.0" y="286"/>
      <point x="589.0" y="199" type="curve"/>
      <point x="589.0" y="95"/>
      <point x="488.0" y="-10"/>
      <point x="324.0" y="-10" type="curve"/>
      <point x="188.0" y="-10"/>
      <point x="94.0" y="59"/>
    </contour>
  </outline>
</glyph>
<glyph name="nine" format="1">
  <advance width="600"/>
  <unicode hex="0039"/>
  <outline>
    <contour>
      <point x="90.0" y="37" type="line"/>
      <point x="134.0" y="6"/>
      <point x="184.0" y="-10"/>
      <point x="258.0" y="-10" type="curve"/>
      <point x="446.0" y="-10"/>
      <point x="627.0" y="194"/>
      <point x="627.0" y="474" type="curve"/>
      <point x="627.0" y="593"/>
      <point x="558.0" y="700"/>
      <point x="407.0" y="700" type="curve"/>
      <point x="256.0" y="700"/>
      <point x="147.0" y="580"/>
      <point x="147.0" y="446" type="curve"/>
      <point x="147.0" y="322"/>
      <point x="235.0" y="252"/>
      <point x="344.0" y="252" type="curve"/>
      <point x="433.0" y="252"/>
      <point x="509.0" y="298"/>
      <point x="541.0" y="356" type="curve"/>
      <point x="541.0" y="432" type="line"/>
      <point x="503.0" y="368"/>
      <point x="441.0" y="330"/>
      <point x="368.0" y="330" type="curve"/>
      <point x="294.0" y="330"/>
      <point x="241.0" y="371"/>
      <point x="241.0" y="448" type="curve"/>
      <point x="241.0" y="540"/>
      <point x="312.0" y="617"/>
      <point x="400.0" y="617" type="curve"/>
      <point x="489.0" y="617"/>
      <point x="536.0" y="549"/>
      <point x="536.0" y="472" type="curve"/>
      <point x="536.0" y="222"/>
      <point x="391.0" y="76"/>
      <point x="251.0" y="76" type="curve"/>
      <point x="214.0" y="76"/>
      <point x="169.0" y="87"/>
      <point x="136.0" y="112" type="curve"/>
    </contour>
  </outline>
</glyph>
<glyph name="colon" format="1">
  <advance width="217.03931854042344"/>
  <unicode hex="003A"/>
  <outline>
    <contour>
      <point x="57" y="41" type="curve" smooth="yes"/>
      <point x="57" y="10"/>
      <point x="77" y="-10"/>
      <point x="110" y="-10" type="curve" smooth="yes"/>
      <point x="148" y="-10"/>
      <point x="181" y="22"/>
      <point x="181" y="61" type="curve" smooth="yes"/>
      <point x="181" y="92"/>
      <point x="161" y="112"/>
      <point x="128" y="112" type="curve" smooth="yes"/>
      <point x="90" y="112"/>
      <point x="57" y="80"/>
    </contour>
    <contour>
      <point x="145" y="454" type="curve" smooth="yes"/>
      <point x="145" y="423"/>
      <point x="165" y="403"/>
      <point x="198" y="403" type="curve" smooth="yes"/>
      <point x="236" y="403"/>
      <point x="269" y="435"/>
      <point x="269" y="474" type="curve" smooth="yes"/>
      <point x="269" y="505"/>
      <point x="249" y="525"/>
      <point x="216" y="525" type="curve" smooth="yes"/>
      <point x="178" y="525"/>
      <point x="145" y="493"/>
    </contour>
  </outline>
</glyph>
<glyph name="semicolon" format="1">
  <advance width="216.3558694266954"/>
  <unicode hex="003B"/>
  <outline>
    <contour>
      <point x="-40" y="-152" type="line"/>
      <point x="17" y="-152" type="line"/>
      <point x="90" y="-26" type="line" smooth="yes"/>
      <point x="108" y="5"/>
      <point x="122" y="31"/>
      <point x="122" y="58" type="curve"/>
      <point x="122" y="93"/>
      <point x="101" y="113"/>
      <point x="68" y="113" type="curve"/>
      <point x="29" y="113"/>
      <point x="-3" y="83"/>
      <point x="-3" y="43" type="curve" smooth="yes"/>
      <point x="-3" y="19"/>
      <point x="13" y="1"/>
      <point x="27" y="-5" type="curve"/>
    </contour>
    <contour>
      <point x="85" y="454" type="curve" smooth="yes"/>
      <point x="85" y="423"/>
      <point x="105" y="403"/>
      <point x="138" y="403" type="curve" smooth="yes"/>
      <point x="176" y="403"/>
      <point x="209" y="435"/>
      <point x="209" y="474" type="curve" smooth="yes"/>
      <point x="209" y="505"/>
      <point x="189" y="525"/>
      <point x="156" y="525" type="curve" smooth="yes"/>
      <point x="118" y="525"/>
      <point x="85" y="493"/>
    </contour>
  </outline>
</glyph>
<glyph name="less" format="1">
  <advance width="600"/>
  <unicode hex="003C"/>
  <outline>
    <contour>
      <point x="132.0" y="251" type="line"/>
      <point x="505.0" y="54" type="line"/>
      <point x="524.0" y="142" type="line"/>
      <point x="207.0" y="301" type="line"/>
      <point x="149.0" y="328" type="line"/>
    </contour>
    <contour>
      <point x="132.0" y="251" type="line"/>
      <point x="199.0" y="261" type="line"/>
      <point x="586.0" y="430" type="line"/>
      <point x="605.0" y="525" type="line"/>
      <point x="149.0" y="328" type="line"/>
    </contour>
  </outline>
</glyph>
<glyph name="equal" format="1">
  <advance width="640"/>
  <unicode hex="003D"/>
  <outline>
    <contour>
      <point x="122.0" y="133" type="line"/>
      <point x="576.0" y="133" type="line"/>
      <point x="593.0" y="216" type="line"/>
      <point x="139.0" y="216" type="line"/>
    </contour>
    <contour>
      <point x="170.0" y="364" type="line"/>
      <point x="624.0" y="364" type="line"/>
      <point x="642.0" y="447" type="line"/>
      <point x="188.0" y="447" type="line"/>
    </contour>
  </outline>
</glyph>
<glyph name="greater" format="1">
  <advance width="600"/>
  <unicode hex="003E"/>
  <outline>
    <contour>
      <point x="117.0" y="54" type="line"/>
      <point x="574.0" y="251" type="line"/>
      <point x="590.0" y="328" type="line"/>
      <point x="523.0" y="318" type="line"/>
      <point x="136.0" y="149" type="line"/>
    </contour>
    <contour>
      <point x="199.0" y="435" type="line"/>
      <point x="516.0" y="275" type="line"/>
      <point x="574.0" y="251" type="line"/>
      <point x="590.0" y="328" type="line"/>
      <point x="217.0" y="525" type="line"/>
    </contour>
  </outline>
</glyph>
<glyph name="question" format="1">
  <advance width="508"/>
  <unicode hex="003F"/>
  <outline>
    <contour>
      <point x="149.983258261973" y="588.0" type="curve"/>
      <point x="198.95452519175154" y="522.0" type="line"/>
      <point x="253.85769264527278" y="578.0"/>
      <point x="304.4469460570435" y="609.0"/>
      <point x="372.4469460570435" y="609.0" type="curve"/>
      <point x="434.4469460570435" y="609.0"/>
      <point x="469.51957046690256" y="567.0"/>
      <point x="457.4038464517113" y="510.0" type="curve"/>
      <point x="447.2011314915502" y="462.0"/>
      <point x="407.82443464144956" y="432.0"/>
      <point x="340.3221721746487" y="392.0" type="curve" smooth="yes"/>
      <point x="291.15803188621805" y="363.0"/>
      <point x="261.71855222776725" y="328.0"/>
      <point x="255.02794133591604" y="273.0" type="curve" smooth="yes"/>
      <point x="247.63687795070464" y="210.0" type="line"/>
      <point x="326.6368779507046" y="210.0" type="line"/>
      <point x="340.26470603420574" y="260.0" type="line" smooth="yes"/>
      <point x="352.6171947476867" y="304.0"/>
      <point x="365.0180997344071" y="320.0"/>
      <point x="408.90690065281757" y="343.0" type="curve" smooth="yes"/>
      <point x="483.1966065579485" y="382.0"/>
      <point x="541.3123305731397" y="439.0"/>
      <point x="556.4038464517113" y="510.0" type="curve"/>
      <point x="581.0604076054339" y="626.0"/>
      <point x="505.78959316901546" y="700.0"/>
      <point x="394.78959316901546" y="700.0" type="curve"/>
      <point x="300.78959316901546" y="700.0"/>
      <point x="224.07477414054458" y="659.0"/>
    </contour>
    <contour>
      <point x="193.05294120684115" y="52.0" type="curve" smooth="yes"/>
      <point x="185.61346154839038" y="17.0"/>
      <point x="205.87443438329979" y="-10.0"/>
      <point x="240.87443438329979" y="-10.0" type="curve" smooth="yes"/>
      <point x="277.8744343832998" y="-10.0"/>
      <point x="307.6134615483904" y="17.0"/>
      <point x="315.0529412068411" y="52.0" type="curve" smooth="yes"/>
      <point x="322.70497742696193" y="88.0"/>
      <point x="304.4440045920525" y="115.0"/>
      <point x="267.4440045920525" y="115.0" type="curve" smooth="yes"/>
      <point x="232.44400459205255" y="115.0"/>
      <point x="200.70497742696193" y="88.0"/>
    </contour>
  </outline>
</glyph>
<glyph name="at" format="1">
  <advance width="982.1553065725453"/>
  <unicode hex="0040"/>
  <outline>
    <contour>
      <point x="111" y="148" type="curve" smooth="yes"/>
      <point x="111" y="-54"/>
      <point x="236" y="-195"/>
      <point x="465" y="-195" type="curve" smooth="yes"/>
      <point x="552" y="-195"/>
      <point x="640" y="-172"/>
      <point x="707" y="-147" type="curve"/>
      <point x="693" y="-74" type="line"/>
      <point x="633" y="-100"/>
      <point x="548" y="-121"/>
      <point x="473" y="-121" type="curve" smooth="yes"/>
      <point x="281" y="-121"/>
      <point x="192" y="-1"/>
      <point x="192" y="156" type="curve" smooth="yes"/>
      <point x="192" y="413"/>
      <point x="377" y="627"/>
      <point x="628" y="627" type="curve" smooth="yes"/>
      <point x="792" y="627"/>
      <point x="904" y="549"/>
      <point x="904" y="366" type="curve"/>
      <point x="904" y="234"/>
      <point x="841" y="63"/>
      <point x="756" y="63" type="curve"/>
      <point x="717" y="63"/>
      <point x="698" y="107"/>
      <point x="712" y="168" type="curve" smooth="yes"/>
      <point x="790" y="493" type="line"/>
      <point x="709" y="493" type="line"/>
      <point x="677" y="411" type="line"/>
      <point x="639" y="236" type="line" smooth="yes"/>
      <point x="620" y="144"/>
      <point x="548" y="85"/>
      <point x="485" y="85" type="curve"/>
      <point x="431" y="85"/>
      <point x="400" y="117"/>
      <point x="400" y="190" type="curve"/>
      <point x="400" y="297"/>
      <point x="462" y="426"/>
      <point x="571" y="426" type="curve" smooth="yes"/>
      <point x="621" y="426"/>
      <point x="656" y="403"/>
      <point x="682" y="359" type="curve"/>
      <point x="699" y="433" type="line"/>
      <point x="667" y="475"/>
      <point x="629" y="501"/>
      <point x="571" y="501" type="curve" smooth="yes"/>
      <point x="413" y="501"/>
      <point x="307" y="343"/>
      <point x="307" y="179" type="curve"/>
      <point x="307" y="78"/>
      <point x="357" y="4"/>
      <point x="457" y="4" type="curve"/>
      <point x="531" y="4"/>
      <point x="604" y="54"/>
      <point x="638" y="114" type="curve"/>
      <point x="621" y="126" type="line"/>
      <point x="619" y="49"/>
      <point x="665" y="-10"/>
      <point x="743" y="-10" type="curve"/>
      <point x="889" y="-10"/>
      <point x="983" y="183"/>
      <point x="983" y="370" type="curve"/>
      <point x="983" y="599"/>
      <point x="831" y="700"/>
      <point x="636" y="700" type="curve" smooth="yes"/>
      <point x="339" y="700"/>
      <point x="111" y="469"/>
    </contour>
  </outline>
</glyph>
<glyph name="A" format="1">
  <advance width="598.0"/>
  <unicode hex="0041"/>
  <outline>
    <contour>
      <point x="-50" y="0" type="line"/>
      <point x="54" y="0" type="line"/>
      <point x="389" y="605" type="line"/>
      <point x="401" y="690" type="line"/>
      <point x="349" y="690" type="line"/>
    </contour>
    <contour>
      <point x="131" y="194" type="line"/>
      <point x="436" y="194" type="line"/>
      <point x="453" y="274" type="line"/>
      <point x="148" y="274" type="line"/>
    </contour>
    <contour>
      <point x="354" y="605" type="line"/>
      <point x="432" y="0" type="line"/>
      <point x="528" y="0" type="line"/>
      <point x="424" y="690" type="line"/>
      <point x="372" y="690" type="line"/>
    </contour>
    <contour>
      <point x="378" y="690" type="move" name="top"/>
    </contour>
    <contour>
      <point x="242.0" y="0.0" type="move" name="bottom"/>
    </contour>
    <contour>
      <point x="432.0" y="0.0" type="move" name="ogonek"/>
    </contour>
  </outline>
</glyph>
<glyph name="B" format="1">
  <advance width="615.1542830352414"/>
  <unicode hex="0042"/>
  <outline>
    <contour>
      <point x="95" y="0" type="line"/>
      <point x="192" y="0" type="line"/>
      <point x="339" y="690" type="line"/>
      <point x="242" y="690" type="line"/>
    </contour>
    <contour>
      <point x="141" y="0" type="line"/>
      <point x="327" y="0" type="line" smooth="yes"/>
      <point x="489" y="0"/>
      <point x="602" y="93"/>
      <point x="602" y="218" type="curve"/>
      <point x="602" y="315"/>
      <point x="523" y="376"/>
      <point x="407" y="376" type="curve" smooth="yes"/>
      <point x="221" y="376" type="line"/>
      <point x="208" y="315" type="line"/>
      <point x="386" y="315" type="line" smooth="yes"/>
      <point x="459" y="315"/>
      <point x="504" y="279"/>
      <point x="504" y="216" type="curve"/>
      <point x="504" y="142"/>
      <point x="441" y="82"/>
      <point x="336" y="82" type="curve" smooth="yes"/>
      <point x="158" y="82" type="line"/>
    </contour>
    <contour>
      <point x="212" y="336" type="line"/>
      <point x="377" y="336" type="line" smooth="yes"/>
      <point x="529" y="336"/>
      <point x="643" y="424"/>
      <point x="643" y="536" type="curve"/>
      <point x="643" y="630"/>
      <point x="561" y="690"/>
      <point x="452" y="690" type="curve" smooth="yes"/>
      <point x="288" y="690" type="line"/>
      <point x="270" y="608" type="line"/>
      <point x="428" y="608" type="line" smooth="yes"/>
      <point x="499" y="608"/>
      <point x="543" y="578"/>
      <point x="543" y="520" type="curve"/>
      <point x="543" y="455"/>
      <point x="480" y="391"/>
      <point x="382" y="391" type="curve" smooth="yes"/>
      <point x="224" y="391" type="line"/>
    </contour>
  </outline>
</glyph>
<glyph name="C" format="1">
  <advance width="626"/>
  <unicode hex="0043"/>
  <outline>
    <contour>
      <point x="120" y="237" type="curve"/>
      <point x="120" y="79"/>
      <point x="216" y="-10"/>
      <point x="361" y="-10" type="curve"/>
      <point x="442" y="-10"/>
      <point x="526" y="22"/>
      <point x="596" y="83" type="curve"/>
      <point x="543" y="158" type="line"/>
      <point x="494" y="111"/>
      <point x="431" y="80"/>
      <point x="373" y="80" type="curve"/>
      <point x="278" y="80"/>
      <point x="221" y="138"/>
      <point x="221" y="249" type="curve"/>
      <point x="221" y="445"/>
      <point x="349" y="610"/>
      <point x="492" y="610" type="curve" smooth="yes"/>
      <point x="551" y="610"/>
      <point x="594" y="588"/>
      <point x="626" y="545" type="curve"/>
      <point x="701" y="609" type="line"/>
      <point x="647" y="671"/>
      <point x="587" y="700"/>
      <point x="507" y="700" type="curve" smooth="yes"/>
      <point x="300" y="700"/>
      <point x="120" y="487"/>
    </contour>
    <contour>
      <point x="494" y="690" type="move" name="top"/>
    </contour>
    <contour>
      <point x="357" y="0" type="move" name="bottom"/>
    </contour>
  </outline>
</glyph>
<glyph name="D" format="1">
  <advance width="696"/>
  <unicode hex="0044"/>
  <outline>
    <contour>
      <point x="101" y="0" type="line"/>
      <point x="198" y="0" type="line"/>
      <point x="345" y="690" type="line"/>
      <point x="248" y="690" type="line"/>
    </contour>
    <contour>
      <point x="147" y="0" type="line"/>
      <point x="297" y="0" type="line" smooth="yes"/>
      <point x="542" y="0"/>
      <point x="717" y="191"/>
      <point x="717" y="439" type="curve" smooth="yes"/>
      <point x="718" y="591"/>
      <point x="610" y="690"/>
      <point x="444" y="690" type="curve" smooth="yes"/>
      <point x="294" y="690" type="line"/>
      <point x="275" y="605" type="line"/>
      <point x="427" y="605" type="line" smooth="yes"/>
      <point x="547" y="605"/>
      <point x="616" y="539"/>
      <point x="617" y="425" type="curve" smooth="yes"/>
      <point x="616" y="239"/>
      <point x="481" y="85"/>
      <point x="308" y="85" type="curve" smooth="yes"/>
      <point x="164" y="85" type="line"/>
    </contour>
    <contour>
      <point x="447.0" y="690.0" type="move" name="top"/>
    </contour>
  </outline>
</glyph>
<glyph name="E" format="1">
  <advance width="603.0"/>
  <unicode hex="0045"/>
  <outline>
    <contour>
      <point x="35" y="0" type="line"/>
      <point x="132" y="0" type="line"/>
      <point x="279" y="690" type="line"/>
      <point x="182" y="690" type="line"/>
    </contour>
    <contour>
      <point x="81" y="0" type="line"/>
      <point x="477" y="0" type="line"/>
      <point x="495" y="85" type="line"/>
      <point x="99" y="85" type="line"/>
    </contour>
    <contour>
      <point x="146" y="308" type="line"/>
      <point x="491" y="308" type="line"/>
      <point x="509" y="388" type="line"/>
      <point x="163" y="388" type="line"/>
    </contour>
    <contour>
      <point x="209" y="605" type="line"/>
      <point x="601" y="605" type="line"/>
      <point x="619" y="690" type="line"/>
      <point x="227" y="690" type="line"/>
    </contour>
    <contour>
      <point x="403" y="690" type="move" name="top"/>
    </contour>
    <contour>
      <point x="259" y="0" type="move" name="bottom"/>
    </contour>
    <contour>
      <point x="396" y="0" type="move" name="ogonek"/>
    </contour>
  </outline>
</glyph>
<glyph name="F" format="1">
  <advance width="563.4032801896366"/>
  <unicode hex="0046"/>
  <outline>
    <contour>
      <point x="35" y="0" type="line"/>
      <point x="132" y="0" type="line"/>
      <point x="279" y="690" type="line"/>
      <point x="182" y="690" type="line"/>
    </contour>
    <contour>
      <point x="141" y="282" type="line"/>
      <point x="480" y="282" type="line"/>
      <point x="498" y="366" type="line"/>
      <point x="159" y="366" type="line"/>
    </contour>
    <contour>
      <point x="209" y="605" type="line"/>
      <point x="587" y="605" type="line"/>
      <point x="605" y="690" type="line"/>
      <point x="227" y="690" type="line"/>
    </contour>
  </outline>
</glyph>
<glyph name="G" format="1">
  <advance width="680"/>
  <unicode hex="0047"/>
  <outline>
    <contour>
      <point x="120" y="237" type="curve" smooth="yes"/>
      <point x="120" y="81"/>
      <point x="221" y="-10"/>
      <point x="366" y="-10" type="curve"/>
      <point x="452" y="-10"/>
      <point x="549" y="23"/>
      <point x="622" y="85" type="curve"/>
      <point x="563" y="143" type="line"/>
      <point x="512" y="101"/>
      <point x="442" y="76"/>
      <point x="381" y="76" type="curve"/>
      <point x="283" y="76"/>
      <point x="221" y="138"/>
      <point x="221" y="249" type="curve" smooth="yes"/>
      <point x="221" y="445"/>
      <point x="348" y="610"/>
      <point x="494" y="610" type="curve" smooth="yes"/>
      <point x="555" y="610"/>
      <point x="600" y="588"/>
      <point x="633" y="545" type="curve"/>
      <point x="708" y="609" type="line"/>
      <point x="653" y="671"/>
      <point x="590" y="700"/>
      <point x="509" y="700" type="curve" smooth="yes"/>
      <point x="299" y="700"/>
      <point x="120" y="487"/>
    </contour>
    <contour>
      <point x="423" y="266" type="line"/>
      <point x="617" y="266" type="line"/>
      <point x="634" y="348" type="line"/>
      <point x="440" y="348" type="line"/>
    </contour>
    <contour>
      <point x="526" y="81" type="line"/>
      <point x="622" y="85" type="line"/>
      <point x="678" y="348" type="line"/>
      <point x="583" y="348" type="line"/>
    </contour>
    <contour>
      <point x="495" y="690" type="move" name="top"/>
    </contour>
    <contour>
      <point x="375.0" y="0.0" type="move" name="bottom"/>
    </contour>
  </outline>
</glyph>
<glyph name="H" format="1">
  <advance width="729"/>
  <unicode hex="0048"/>
  <outline>
    <contour>
      <point x="101" y="0" type="line"/>
      <point x="198" y="0" type="line"/>
      <point x="345" y="690" type="line"/>
      <point x="248" y="690" type="line"/>
    </contour>
    <contour>
      <point x="212" y="306" type="line"/>
      <point x="648" y="306" type="line"/>
      <point x="666" y="390" type="line"/>
      <point x="230" y="390" type="line"/>
    </contour>
    <contour>
      <point x="532" y="0" type="line"/>
      <point x="628" y="0" type="line"/>
      <point x="775" y="690" type="line"/>
      <point x="678" y="690" type="line"/>
    </contour>
    <contour>
      <point x="511.0" y="690.0" type="move" name="top"/>
    </contour>
  </outline>
</glyph>
<glyph name="I" format="1">
  <advance width="438"/>
  <unicode hex="0049"/>
  <outline>
    <contour>
      <point x="71" y="0" type="line"/>
      <point x="367" y="0" type="line"/>
      <point x="383" y="75" type="line"/>
      <point x="87" y="75" type="line"/>
    </contour>
    <contour>
      <point x="171" y="0" type="line"/>
      <point x="268" y="0" type="line"/>
      <point x="414" y="690" type="line"/>
      <point x="317" y="690" type="line"/>
    </contour>
    <contour>
      <point x="202" y="615" type="line"/>
      <point x="498" y="615" type="line"/>
      <point x="514" y="690" type="line"/>
      <point x="218" y="690" type="line"/>
    </contour>
    <contour>
      <point x="366.0" y="690.0" type="move" name="top"/>
    </contour>
    <contour>
      <point x="219.0" y="0.0" type="move" name="bottom"/>
    </contour>
    <contour>
      <point x="171" y="0" type="move" name="ogonek"/>
    </contour>
  </outline>
</glyph>
<glyph name="J" format="1">
  <advance width="538"/>
  <unicode hex="004A"/>
  <outline>
    <contour>
      <point x="56" y="72" type="line"/>
      <point x="99" y="21"/>
      <point x="160" y="-9"/>
      <point x="238" y="-9" type="curve"/>
      <point x="357" y="-9"/>
      <point x="459" y="58"/>
      <point x="495" y="226" type="curve" smooth="yes"/>
      <point x="594" y="690" type="line"/>
      <point x="499" y="690" type="line"/>
      <point x="402" y="236" type="line" smooth="yes"/>
      <point x="378" y="123"/>
      <point x="315" y="78"/>
      <point x="240" y="78" type="curve"/>
      <point x="186" y="78"/>
      <point x="146" y="102"/>
      <point x="115" y="139" type="curve"/>
    </contour>
    <contour>
      <point x="307" y="615" type="line"/>
      <point x="542" y="615" type="line"/>
      <point x="558" y="690" type="line"/>
      <point x="323" y="690" type="line"/>
    </contour>
    <contour>
      <point x="458.0" y="690.0" type="move" name="top"/>
    </contour>
  </outline>
</glyph>
<glyph name="K" format="1">
  <advance width="627"/>
  <unicode hex="004B"/>
  <outline>
    <contour>
      <point x="101" y="0" type="line"/>
      <point x="198" y="0" type="line"/>
      <point x="345" y="690" type="line"/>
      <point x="248" y="690" type="line"/>
    </contour>
    <contour>
      <point x="213" y="180" type="line"/>
      <point x="742" y="690" type="line"/>
      <point x="611" y="690" type="line"/>
      <point x="240" y="315" type="line"/>
    </contour>
    <contour>
      <point x="350" y="329" type="line"/>
      <point x="504" y="0" type="line"/>
      <point x="611" y="0" type="line"/>
      <point x="417" y="397" type="line"/>
    </contour>
  </outline>
</glyph>
<glyph name="L" format="1">
  <advance width="538.0"/>
  <unicode hex="004C"/>
  <outline>
    <contour>
      <point x="95" y="0" type="line"/>
      <point x="192" y="0" type="line"/>
      <point x="339" y="690" type="line"/>
      <point x="242" y="690" type="line"/>
    </contour>
    <contour>
      <point x="141" y="0" type="line"/>
      <point x="508" y="0" type="line"/>
      <point x="526" y="85" type="line"/>
      <point x="159" y="85" type="line"/>
    </contour>
    <contour>
      <point x="290" y="690" type="move" name="top"/>
    </contour>
    <contour>
      <point x="504" y="680" type="move" name="caron.alt"/>
    </contour>
    <contour>
      <point x="309" y="0" type="move" name="bottom"/>
    </contour>
  </outline>
</glyph>
<glyph name="M" format="1">
  <advance width="823.0"/>
  <unicode hex="004D"/>
  <outline>
    <contour>
      <point x="35" y="0" type="line"/>
      <point x="129" y="0" type="line"/>
      <point x="276" y="690" type="line"/>
      <point x="182" y="690" type="line"/>
    </contour>
    <contour>
      <point x="230" y="690" type="line"/>
      <point x="353" y="163" type="line"/>
      <point x="388" y="163" type="line"/>
      <point x="413" y="282" type="line"/>
      <point x="319" y="690" type="line"/>
    </contour>
    <contour>
      <point x="378" y="163" type="line"/>
      <point x="420" y="163" type="line"/>
      <point x="766" y="690" type="line"/>
      <point x="666" y="690" type="line"/>
      <point x="403" y="282" type="line"/>
    </contour>
    <contour>
      <point x="573" y="0" type="line"/>
      <point x="668" y="0" type="line"/>
      <point x="814" y="690" type="line"/>
      <point x="720" y="690" type="line"/>
    </contour>
  </outline>
</glyph>
<glyph name="N" format="1">
  <advance width="720.0"/>
  <unicode hex="004E"/>
  <outline>
    <contour>
      <point x="35" y="0" type="line"/>
      <point x="126" y="0" type="line"/>
      <point x="273" y="690" type="line"/>
      <point x="182" y="690" type="line"/>
    </contour>
    <contour>
      <point x="213" y="690" type="line"/>
      <point x="447" y="0" type="line"/>
      <point x="537" y="0" type="line"/>
      <point x="304" y="690" type="line"/>
    </contour>
    <contour>
      <point x="474" y="0" type="line"/>
      <point x="565" y="0" type="line"/>
      <point x="712" y="690" type="line"/>
      <point x="621" y="690" type="line"/>
    </contour>
    <contour>
      <point x="457" y="690" type="move" name="top"/>
    </contour>
    <contour>
      <point x="293" y="0" type="move" name="bottom"/>
    </contour>
  </outline>
</glyph>
<glyph name="O" format="1">
  <advance width="718"/>
  <unicode hex="004F"/>
  <outline>
    <contour>
      <point x="123" y="237" type="curve"/>
      <point x="123" y="79"/>
      <point x="220" y="-9"/>
      <point x="356" y="-9" type="curve"/>
      <point x="560" y="-9"/>
      <point x="741" y="203"/>
      <point x="741" y="453" type="curve"/>
      <point x="741" y="611"/>
      <point x="644" y="699"/>
      <point x="509" y="699" type="curve"/>
      <point x="304" y="699"/>
      <point x="123" y="487"/>
    </contour>
    <contour>
      <point x="224" y="249" type="curve"/>
      <point x="224" y="446"/>
      <point x="353" y="612"/>
      <point x="493" y="612" type="curve"/>
      <point x="582" y="612"/>
      <point x="640" y="553"/>
      <point x="641" y="441" type="curve"/>
      <point x="640" y="244"/>
      <point x="511" y="78"/>
      <point x="371" y="78" type="curve"/>
      <point x="282" y="78"/>
      <point x="224" y="137"/>
    </contour>
    <contour>
      <point x="504.0" y="690.0" type="move" name="top"/>
    </contour>
    <contour>
      <point x="357.0" y="0.0" type="move" name="bottom"/>
    </contour>
  </outline>
</glyph>
<glyph name="P" format="1">
  <advance width="613.3023575725784"/>
  <unicode hex="0050"/>
  <outline>
    <contour>
      <point x="35" y="0" type="line"/>
      <point x="132" y="0" type="line"/>
      <point x="279" y="690" type="line"/>
      <point x="182" y="690" type="line"/>
    </contour>
    <contour>
      <point x="129" y="229" type="line"/>
      <point x="293" y="229" type="line" smooth="yes"/>
      <point x="479" y="229"/>
      <point x="608" y="343"/>
      <point x="608" y="497" type="curve" smooth="yes"/>
      <point x="608" y="612"/>
      <point x="515" y="690"/>
      <point x="388" y="690" type="curve" smooth="yes"/>
      <point x="228" y="690" type="line"/>
      <point x="209" y="605" type="line"/>
      <point x="366" y="605" type="line" smooth="yes"/>
      <point x="456" y="605"/>
      <point x="507" y="563"/>
      <point x="507" y="488" type="curve"/>
      <point x="507" y="386"/>
      <point x="428" y="313"/>
      <point x="300" y="313" type="curve" smooth="yes"/>
      <point x="148" y="313" type="line"/>
    </contour>
  </outline>
</glyph>
<glyph name="Q" format="1">
  <advance width="711.2734614689518"/>
  <unicode hex="0051"/>
  <outline>
    <contour>
      <point x="344" y="8" type="line"/>
      <point x="371" y="-103"/>
      <point x="450" y="-155"/>
      <point x="578" y="-158" type="curve"/>
      <point x="599" y="-64" type="line"/>
      <point x="509" y="-64"/>
      <point x="448" y="-39"/>
      <point x="425" y="35" type="curve"/>
    </contour>
    <contour>
      <point x="60" y="237" type="curve"/>
      <point x="60" y="79"/>
      <point x="157" y="-10"/>
      <point x="293" y="-10" type="curve"/>
      <point x="497" y="-10"/>
      <point x="678" y="203"/>
      <point x="678" y="453" type="curve"/>
      <point x="678" y="611"/>
      <point x="581" y="700"/>
      <point x="446" y="700" type="curve"/>
      <point x="241" y="700"/>
      <point x="60" y="487"/>
    </contour>
    <contour>
      <point x="161" y="249" type="curve"/>
      <point x="161" y="446"/>
      <point x="290" y="612"/>
      <point x="430" y="612" type="curve"/>
      <point x="519" y="612"/>
      <point x="577" y="553"/>
      <point x="578" y="441" type="curve"/>
      <point x="577" y="244"/>
      <point x="448" y="78"/>
      <point x="308" y="78" type="curve"/>
      <point x="219" y="78"/>
      <point x="161" y="137"/>
    </contour>
  </outline>
</glyph>
<glyph name="R" format="1">
  <advance width="638"/>
  <unicode hex="0052"/>
  <outline>
    <contour>
      <point x="101" y="0" type="line"/>
      <point x="198" y="0" type="line"/>
      <point x="345" y="690" type="line"/>
      <point x="248" y="690" type="line"/>
    </contour>
    <contour>
      <point x="202" y="263" type="line"/>
      <point x="362" y="263" type="line" smooth="yes"/>
      <point x="542" y="263"/>
      <point x="664" y="366"/>
      <point x="664" y="506" type="curve" smooth="yes"/>
      <point x="664" y="617"/>
      <point x="575" y="690"/>
      <point x="452" y="690" type="curve" smooth="yes"/>
      <point x="294" y="690" type="line"/>
      <point x="275" y="605" type="line"/>
      <point x="429" y="605" type="line" smooth="yes"/>
      <point x="515" y="605"/>
      <point x="563" y="566"/>
      <point x="563" y="498" type="curve" smooth="yes"/>
      <point x="563" y="407"/>
      <point x="491" y="344"/>
      <point x="369" y="344" type="curve" smooth="yes"/>
      <point x="220" y="344" type="line"/>
    </contour>
    <contour>
      <point x="371" y="290" type="line"/>
      <point x="487" y="0" type="line"/>
      <point x="590" y="0" type="line"/>
      <point x="466" y="290" type="line"/>
    </contour>
    <contour>
      <point x="447.0" y="690.0" type="move" name="top"/>
    </contour>
  </outline>
</glyph>
<glyph name="S" format="1">
  <advance width="600.919745146421"/>
  <unicode hex="0053"/>
  <outline>
    <contour>
      <point x="10" y="92" type="line"/>
      <point x="80" y="32"/>
      <point x="165" y="-10"/>
      <point x="272" y="-10" type="curve"/>
      <point x="437" y="-10"/>
      <point x="526" y="79"/>
      <point x="526" y="184" type="curve"/>
      <point x="526" y="261"/>
      <point x="484" y="326"/>
      <point x="339" y="401" type="curve" smooth="yes"/>
      <point x="242" y="451"/>
      <point x="219" y="483"/>
      <point x="219" y="524" type="curve"/>
      <point x="219" y="569"/>
      <point x="265" y="615"/>
      <point x="355" y="615" type="curve"/>
      <point x="424" y="615"/>
      <point x="484" y="586"/>
      <point x="531" y="547" type="curve"/>
      <point x="582" y="624" type="line"/>
      <point x="526" y="669"/>
      <point x="453" y="700"/>
      <point x="368" y="700" type="curve"/>
      <point x="211" y="700"/>
      <point x="121" y="611"/>
      <point x="121" y="518" type="curve"/>
      <point x="121" y="445"/>
      <point x="162" y="387"/>
      <point x="288" y="319" type="curve" smooth="yes"/>
      <point x="403" y="259"/>
      <point x="422" y="223"/>
      <point x="422" y="175" type="curve"/>
      <point x="422" y="124"/>
      <point x="375" y="75"/>
      <point x="278" y="75" type="curve"/>
      <point x="196" y="75"/>
      <point x="120" y="115"/>
      <point x="68" y="167" type="curve"/>
    </contour>
    <contour>
      <point x="367" y="690" type="move" name="top"/>
    </contour>
    <contour>
      <point x="264" y="0" type="move" name="bottom"/>
    </contour>
  </outline>
</glyph>
<glyph name="U" format="1">
  <advance width="703"/>
  <unicode hex="0055"/>
  <outline>
    <contour>
      <point x="141" y="201" type="curve" smooth="yes"/>
      <point x="141" y="75"/>
      <point x="227" y="-9"/>
      <point x="360" y="-9" type="curve"/>
      <point x="507" y="-9"/>
      <point x="628" y="73"/>
      <point x="665" y="249" type="curve" smooth="yes"/>
      <point x="759" y="690" type="line"/>
      <point x="664" y="690" type="line"/>
      <point x="573" y="266" type="line" smooth="yes"/>
      <point x="546" y="139"/>
      <point x="467" y="78"/>
      <point x="376" y="78" type="curve"/>
      <point x="291" y="78"/>
      <point x="237" y="120"/>
      <point x="237" y="208" type="curve" smooth="yes"/>
      <point x="237" y="225"/>
      <point x="240" y="247"/>
      <point x="245" y="269" type="curve" smooth="yes"/>
      <point x="335" y="690" type="line"/>
      <point x="238" y="690" type="line"/>
      <point x="149" y="272" type="line" smooth="yes"/>
      <point x="143" y="246"/>
      <point x="141" y="221"/>
    </contour>
    <contour>
      <point x="499.0" y="690.0" type="move" name="top"/>
    </contour>
    <contour>
      <point x="352.0" y="0.0" type="move" name="bottom"/>
    </contour>
  </outline>
</glyph>
<glyph name="V" format="1">
  <advance width="595"/>
  <unicode hex="0056"/>
  <outline>
    <contour>
      <point x="157" y="690" type="line"/>
      <point x="260" y="0" type="line"/>
      <point x="312" y="0" type="line"/>
      <point x="330" y="85" type="line"/>
      <point x="254" y="690" type="line"/>
    </contour>
    <contour>
      <point x="283" y="0" type="line"/>
      <point x="335" y="0" type="line"/>
      <point x="732" y="690" type="line"/>
      <point x="630" y="690" type="line"/>
      <point x="294" y="85" type="line"/>
    </contour>
  </outline>
</glyph>
<glyph name="W" format="1">
  <advance width="904"/>
  <unicode hex="0057"/>
  <outline>
    <contour>
      <point x="162" y="690" type="line"/>
      <point x="220" y="0" type="line"/>
      <point x="274" y="0" type="line"/>
      <point x="294" y="90" type="line"/>
      <point x="258" y="690" type="line"/>
    </contour>
    <contour>
      <point x="245" y="0" type="line"/>
      <point x="297" y="0" type="line"/>
      <point x="600" y="589" type="line"/>
      <point x="618" y="690" type="line"/>
      <point x="559" y="690" type="line"/>
      <point x="258" y="90" type="line"/>
    </contour>
    <contour>
      <point x="561" y="589" type="line"/>
      <point x="608" y="0" type="line"/>
      <point x="662" y="0" type="line"/>
      <point x="682" y="90" type="line"/>
      <point x="639" y="690" type="line"/>
      <point x="578" y="690" type="line"/>
    </contour>
    <contour>
      <point x="633" y="0" type="line"/>
      <point x="685" y="0" type="line"/>
      <point x="1038" y="690" type="line"/>
      <point x="937" y="690" type="line"/>
      <point x="647" y="90" type="line"/>
    </contour>
    <contour>
      <point x="598.0" y="690.0" type="move" name="top"/>
    </contour>
  </outline>
</glyph>
<glyph name="X" format="1">
  <advance width="600"/>
  <unicode hex="0058"/>
  <outline>
    <contour>
      <point x="31" y="0" type="line"/>
      <point x="144" y="0" type="line"/>
      <point x="373" y="291" type="line"/>
      <point x="412" y="331" type="line"/>
      <point x="706" y="690" type="line"/>
      <point x="593" y="690" type="line"/>
      <point x="377" y="415" type="line"/>
      <point x="339" y="375" type="line"/>
    </contour>
    <contour>
      <point x="188" y="690" type="line"/>
      <point x="342" y="315" type="line"/>
      <point x="466" y="0" type="line"/>
      <point x="569" y="0" type="line"/>
      <point x="409" y="390" type="line"/>
      <point x="291" y="690" type="line"/>
    </contour>
  </outline>
</glyph>
<glyph name="Y" format="1">
  <advance width="602"/>
  <unicode hex="0059"/>
  <outline>
    <contour>
      <point x="157" y="690" type="line"/>
      <point x="319" y="273" type="line"/>
      <point x="372" y="273" type="line"/>
      <point x="385" y="348" type="line"/>
      <point x="261" y="690" type="line"/>
    </contour>
    <contour>
      <point x="253" y="0" type="line"/>
      <point x="349" y="0" type="line"/>
      <point x="414" y="303" type="line"/>
      <point x="317" y="303" type="line"/>
    </contour>
    <contour>
      <point x="350" y="273" type="line"/>
      <point x="400" y="273" type="line"/>
      <point x="739" y="690" type="line"/>
      <point x="626" y="690" type="line"/>
      <point x="358" y="348" type="line"/>
    </contour>
    <contour>
      <point x="448.0" y="690.0" type="move" name="top"/>
    </contour>
  </outline>
</glyph>
<glyph name="Z" format="1">
  <advance width="611"/>
  <unicode hex="005A"/>
  <outline>
    <contour>
      <point x="1" y="0" type="line"/>
      <point x="489" y="0" type="line"/>
      <point x="507" y="85" type="line"/>
      <point x="50" y="85" type="line"/>
      <point x="15" y="64" type="line"/>
    </contour>
    <contour>
      <point x="15" y="64" type="line"/>
      <point x="82" y="0" type="line"/>
      <point x="614" y="626" type="line"/>
      <point x="547" y="690" type="line"/>
    </contour>
    <contour>
      <point x="139" y="605" type="line"/>
      <point x="578" y="605" type="line"/>
      <point x="614" y="626" type="line"/>
      <point x="627" y="690" type="line"/>
      <point x="157" y="690" type="line"/>
    </contour>
    <contour>
      <point x="384" y="690" type="move" name="top"/>
    </contour>
  </outline>
</glyph>
<glyph name="backslash" format="1">
  <advance width="337.37669685010064"/>
  <unicode hex="005C"/>
  <outline>
    <contour>
      <point x="153" y="720" type="line"/>
      <point x="243" y="-30" type="line"/>
      <point x="331" y="-30" type="line"/>
      <point x="241" y="720" type="line"/>
    </contour>
  </outline>
</glyph>
<glyph name="bracketright" format="1">
  <advance width="296.1430990890326"/>
  <unicode hex="005D"/>
  <outline>
    <contour>
      <point x="-143" y="-250" type="line"/>
      <point x="71" y="-250" type="line"/>
      <point x="87" y="-175" type="line"/>
      <point x="-127" y="-175" type="line"/>
    </contour>
    <contour>
      <point x="1" y="-250" type="line"/>
      <point x="88" y="-250" type="line"/>
      <point x="308" y="785" type="line"/>
      <point x="221" y="785" type="line"/>
    </contour>
    <contour>
      <point x="61" y="710" type="line"/>
      <point x="275" y="710" type="line"/>
      <point x="291" y="785" type="line"/>
      <point x="77" y="785" type="line"/>
    </contour>
  </outline>
</glyph>
<glyph name="asciicircum" format="1">
  <advance width="660"/>
  <unicode hex="005E"/>
  <outline>
    <contour>
      <point x="151.32748884255585" y="265.0" type="line"/>
      <point x="241.32748884255585" y="265.0" type="line"/>
      <point x="469.2343894953734" y="608.0" type="line"/>
      <point x="485.66402755231525" y="690.0" type="line"/>
      <point x="440.66402755231525" y="690.0" type="line"/>
    </contour>
    <contour>
      <point x="459.66402755231525" y="690.0" type="line"/>
      <point x="444.2343894953734" y="608.0" type="line"/>
      <point x="528.3274888425559" y="265.0" type="line"/>
      <point x="621.3274888425559" y="265.0" type="line"/>
      <point x="512.6640275523152" y="690.0" type="line"/>
    </contour>
  </outline>
</glyph>
<glyph name="grave" format="1">
  <advance width="600"/>
  <unicode hex="0060"/>
  <note>
    grave
  </note>
  <outline>
    <contour>
      <point x="325" y="740" type="line"/>
      <point x="414" y="590" type="line"/>
      <point x="491" y="590" type="line"/>
      <point x="425" y="740" type="line"/>
    </contour>
    <contour>
      <point x="409" y="515" type="move" name="_top"/>
    </contour>
  </outline>
</glyph>
<glyph name="a" format="1">
  <advance width="580"/>
  <unicode hex="0061"/>
  <outline>
    <contour>
      <point x="99" y="177" type="curve"/>
      <point x="99" y="58"/>
      <point x="169" y="-9"/>
      <point x="255" y="-9" type="curve"/>
      <point x="328" y="-9"/>
      <point x="395" y="29"/>
      <point x="437" y="100" type="curve"/>
      <point x="424" y="112" type="line"/>
      <point x="421" y="0" type="line"/>
      <point x="509" y="0" type="line"/>
      <point x="509" y="34" type="line" smooth="yes"/>
      <point x="509" y="65"/>
      <point x="512" y="92"/>
      <point x="518" y="123" type="curve" smooth="yes"/>
      <point x="601" y="515" type="line"/>
      <point x="519" y="515" type="line"/>
      <point x="496" y="454" type="line"/>
      <point x="454" y="254" type="line" smooth="yes"/>
      <point x="429" y="138"/>
      <point x="347" y="72"/>
      <point x="279" y="72" type="curve"/>
      <point x="228" y="72"/>
      <point x="193" y="109"/>
      <point x="193" y="187" type="curve"/>
      <point x="193" y="325"/>
      <point x="279" y="448"/>
      <point x="375" y="448" type="curve"/>
      <point x="421" y="448"/>
      <point x="461" y="428"/>
      <point x="498" y="386" type="curve"/>
      <point x="512" y="464" type="line"/>
      <point x="473" y="505"/>
      <point x="423" y="525"/>
      <point x="372" y="525" type="curve"/>
      <point x="232" y="525"/>
      <point x="99" y="369"/>
    </contour>
    <contour>
      <point x="413" y="515" type="move" name="top"/>
    </contour>
    <contour>
      <point x="304" y="0" type="move" name="bottom"/>
    </contour>
    <contour>
      <point x="421" y="0" type="move" name="ogonek"/>
    </contour>
  </outline>
</glyph>
<glyph name="b" format="1">
  <advance width="579"/>
  <unicode hex="0062"/>
  <outline>
    <contour>
      <point x="88" y="0" type="line"/>
      <point x="170" y="0" type="line"/>
      <point x="193" y="62" type="line"/>
      <point x="235" y="261" type="line" smooth="yes"/>
      <point x="260" y="378"/>
      <point x="342" y="444"/>
      <point x="410" y="444" type="curve"/>
      <point x="461" y="444"/>
      <point x="496" y="407"/>
      <point x="496" y="328" type="curve"/>
      <point x="496" y="191"/>
      <point x="411" y="68"/>
      <point x="314" y="68" type="curve"/>
      <point x="268" y="68"/>
      <point x="228" y="87"/>
      <point x="191" y="129" type="curve"/>
      <point x="177" y="51" type="line"/>
      <point x="216" y="10"/>
      <point x="266" y="-9"/>
      <point x="317" y="-9" type="curve"/>
      <point x="457" y="-9"/>
      <point x="590" y="146"/>
      <point x="590" y="339" type="curve"/>
      <point x="590" y="457"/>
      <point x="520" y="525"/>
      <point x="435" y="525" type="curve"/>
      <point x="362" y="525"/>
      <point x="295" y="486"/>
      <point x="253" y="416" type="curve"/>
      <point x="265" y="403" type="line"/>
      <point x="332" y="716" type="line"/>
      <point x="237" y="700" type="line"/>
    </contour>
  </outline>
</glyph>
<glyph name="c" format="1">
  <advance width="495"/>
  <unicode hex="0063"/>
  <outline>
    <contour>
      <point x="38" y="174" type="curve" smooth="yes"/>
      <point x="38" y="61"/>
      <point x="107" y="-10"/>
      <point x="212" y="-10" type="curve"/>
      <point x="289" y="-10"/>
      <point x="354" y="24"/>
      <point x="411" y="79" type="curve"/>
      <point x="365" y="140" type="line"/>
      <point x="326" y="99"/>
      <point x="277" y="72"/>
      <point x="226" y="72" type="curve"/>
      <point x="167" y="72"/>
      <point x="131" y="111"/>
      <point x="131" y="187" type="curve" smooth="yes"/>
      <point x="131" y="312"/>
      <point x="210" y="443"/>
      <point x="315" y="443" type="curve" smooth="yes"/>
      <point x="355" y="443"/>
      <point x="385" y="426"/>
      <point x="406" y="392" type="curve"/>
      <point x="470" y="448" type="line"/>
      <point x="442" y="495"/>
      <point x="386" y="525"/>
      <point x="326" y="525" type="curve" smooth="yes"/>
      <point x="161" y="525"/>
      <point x="38" y="358"/>
    </contour>
    <contour>
      <point x="321" y="515" type="move" name="top"/>
    </contour>
    <contour>
      <point x="215" y="0" type="move" name="bottom"/>
    </contour>
  </outline>
</glyph>
<glyph name="d" format="1">
  <advance width="580.0"/>
  <unicode hex="0064"/>
  <outline>
    <contour>
      <point x="39" y="177" type="curve"/>
      <point x="39" y="58"/>
      <point x="108" y="-10"/>
      <point x="194" y="-10" type="curve"/>
      <point x="267" y="-10"/>
      <point x="335" y="29"/>
      <point x="376" y="100" type="curve"/>
      <point x="364" y="112" type="line"/>
      <point x="361" y="0" type="line"/>
      <point x="448" y="0" type="line"/>
      <point x="448" y="34" type="line" smooth="yes"/>
      <point x="448" y="65"/>
      <point x="451" y="92"/>
      <point x="458" y="123" type="curve" smooth="yes"/>
      <point x="587" y="732" type="line"/>
      <point x="492" y="716" type="line"/>
      <point x="394" y="254" type="line" smooth="yes"/>
      <point x="369" y="138"/>
      <point x="286" y="72"/>
      <point x="219" y="72" type="curve"/>
      <point x="168" y="72"/>
      <point x="133" y="109"/>
      <point x="133" y="187" type="curve"/>
      <point x="133" y="325"/>
      <point x="218" y="449"/>
      <point x="314" y="449" type="curve"/>
      <point x="361" y="449"/>
      <point x="401" y="430"/>
      <point x="438" y="386" type="curve"/>
      <point x="455" y="468" type="line"/>
      <point x="415" y="507"/>
      <point x="365" y="525"/>
      <point x="316" y="525" type="curve"/>
      <point x="169" y="525"/>
      <point x="39" y="369"/>
    </contour>
    <contour>
      <point x="673" y="720" type="move" name="caron.alt"/>
    </contour>
  </outline>
</glyph>
<glyph name="e" format="1">
  <advance width="525"/>
  <unicode hex="0065"/>
  <outline>
    <contour>
      <point x="98" y="171" type="curve" smooth="yes"/>
      <point x="98" y="59"/>
      <point x="175" y="-9"/>
      <point x="284" y="-9" type="curve" smooth="yes"/>
      <point x="366" y="-9"/>
      <point x="431" y="25"/>
      <point x="490" y="80" type="curve"/>
      <point x="444" y="139" type="line"/>
      <point x="403" y="98"/>
      <point x="351" y="71"/>
      <point x="294" y="71" type="curve" smooth="yes"/>
      <point x="232" y="71"/>
      <point x="191" y="108"/>
      <point x="191" y="186" type="curve" smooth="yes"/>
      <point x="191" y="312"/>
      <point x="277" y="446"/>
      <point x="389" y="446" type="curve" smooth="yes"/>
      <point x="432" y="446"/>
      <point x="460" y="422"/>
      <point x="460" y="384" type="curve" smooth="yes"/>
      <point x="460" y="335"/>
      <point x="402" y="277"/>
      <point x="178" y="299" type="curve"/>
      <point x="167" y="235" type="line"/>
      <point x="453" y="205"/>
      <point x="552" y="293"/>
      <point x="552" y="393" type="curve" smooth="yes"/>
      <point x="552" y="468"/>
      <point x="489" y="525"/>
      <point x="399" y="525" type="curve" smooth="yes"/>
      <point x="225" y="525"/>
      <point x="98" y="357"/>
    </contour>
    <contour>
      <point x="392.0" y="515.0" type="move" name="top"/>
    </contour>
    <contour>
      <point x="385.0" y="515.0" type="move" name="top"/>
    </contour>
    <contour>
      <point x="282.0" y="0.0" type="move" name="bottom"/>
    </contour>
    <contour>
      <point x="276.0" y="0.0" type="move" name="bottom"/>
    </contour>
  </outline>
</glyph>
<glyph name="f" format="1">
  <advance width="357"/>
  <unicode hex="0066"/>
  <outline>
    <contour>
      <point x="117" y="0" type="line"/>
      <point x="209" y="0" type="line"/>
      <point x="327" y="555" type="line" smooth="yes"/>
      <point x="340" y="619"/>
      <point x="376" y="651"/>
      <point x="422" y="651" type="curve"/>
      <point x="446" y="651"/>
      <point x="470" y="647"/>
      <point x="492" y="636" type="curve"/>
      <point x="522" y="707" type="line"/>
      <point x="495" y="720"/>
      <point x="459" y="729"/>
      <point x="426" y="729" type="curve"/>
      <point x="326" y="729"/>
      <point x="260" y="673"/>
      <point x="236" y="562" type="curve" smooth="yes"/>
    </contour>
    <contour>
      <point x="119" y="442" type="line"/>
      <point x="446" y="442" type="line"/>
      <point x="461" y="515" type="line"/>
      <point x="134" y="515" type="line"/>
    </contour>
  </outline>
</glyph>
<glyph name="g" format="1">
  <advance width="575"/>
  <unicode hex="0067"/>
  <outline>
    <contour>
      <point x="47" y="-151" type="line"/>
      <point x="97" y="-178"/>
      <point x="155" y="-194"/>
      <point x="220" y="-194" type="curve"/>
      <point x="356" y="-194"/>
      <point x="463" y="-127"/>
      <point x="497" y="29" type="curve" smooth="yes"/>
      <point x="600" y="515" type="line"/>
      <point x="518" y="515" type="line"/>
      <point x="495" y="454" type="line"/>
      <point x="454" y="258" type="line" smooth="yes"/>
      <point x="431" y="144"/>
      <point x="347" y="80"/>
      <point x="280" y="80" type="curve"/>
      <point x="228" y="80"/>
      <point x="194" y="117"/>
      <point x="194" y="192" type="curve"/>
      <point x="194" y="328"/>
      <point x="278" y="449"/>
      <point x="374" y="449" type="curve"/>
      <point x="420" y="449"/>
      <point x="460" y="430"/>
      <point x="497" y="386" type="curve"/>
      <point x="514" y="468" type="line"/>
      <point x="474" y="507"/>
      <point x="424" y="525"/>
      <point x="375" y="525" type="curve"/>
      <point x="228" y="525"/>
      <point x="100" y="373"/>
      <point x="100" y="182" type="curve"/>
      <point x="100" y="67"/>
      <point x="167" y="1"/>
      <point x="254" y="1" type="curve"/>
      <point x="326" y="1"/>
      <point x="394" y="36"/>
      <point x="435" y="103" type="curve"/>
      <point x="424" y="116" type="line"/>
      <point x="405" y="31" type="line" smooth="yes"/>
      <point x="383" y="-71"/>
      <point x="311" y="-113"/>
      <point x="227" y="-113" type="curve"/>
      <point x="174" y="-113"/>
      <point x="123" y="-97"/>
      <point x="86" y="-75" type="curve"/>
    </contour>
    <contour>
      <point x="403" y="515" type="move" name="top"/>
    </contour>
  </outline>
</glyph>
<glyph name="h" format="1">
  <advance width="596"/>
  <unicode hex="0068"/>
  <outline>
    <contour>
      <point x="88" y="0" type="line"/>
      <point x="180" y="0" type="line"/>
      <point x="235" y="261" type="line" smooth="yes"/>
      <point x="260" y="378"/>
      <point x="344" y="444"/>
      <point x="410" y="444" type="curve"/>
      <point x="461" y="444"/>
      <point x="493" y="416"/>
      <point x="493" y="358" type="curve" smooth="yes"/>
      <point x="493" y="344"/>
      <point x="491" y="330"/>
      <point x="487" y="313" type="curve" smooth="yes"/>
      <point x="421" y="0" type="line"/>
      <point x="513" y="0" type="line"/>
      <point x="580" y="314" type="line" smooth="yes"/>
      <point x="584" y="334"/>
      <point x="586" y="354"/>
      <point x="586" y="371" type="curve" smooth="yes"/>
      <point x="586" y="468"/>
      <point x="519" y="525"/>
      <point x="439" y="525" type="curve"/>
      <point x="363" y="525"/>
      <point x="296" y="486"/>
      <point x="254" y="416" type="curve"/>
      <point x="265" y="403" type="line"/>
      <point x="335" y="732" type="line"/>
      <point x="240" y="716" type="line"/>
    </contour>
    <contour>
      <point x="287.0" y="720.0" type="move" name="top"/>
    </contour>
    <contour>
      <point x="418.0" y="515.0" type="move" name="top"/>
    </contour>
  </outline>
</glyph>
<glyph name="i" format="1">
  <advance width="266"/>
  <unicode hex="0069"/>
  <outline>
    <contour>
      <point x="27" y="0" type="line"/>
      <point x="119" y="0" type="line"/>
      <point x="228" y="515" type="line"/>
      <point x="136" y="515" type="line"/>
    </contour>
    <contour>
      <point x="157" y="670" type="curve"/>
      <point x="157" y="642"/>
      <point x="176" y="620"/>
      <point x="208" y="620" type="curve"/>
      <point x="247" y="620"/>
      <point x="279" y="653"/>
      <point x="279" y="691" type="curve"/>
      <point x="279" y="720"/>
      <point x="260" y="742"/>
      <point x="228" y="742" type="curve"/>
      <point x="189" y="742"/>
      <point x="157" y="708"/>
    </contour>
    <contour>
      <point x="73" y="0" type="move" name="bottom"/>
    </contour>
    <contour>
      <point x="27" y="0" type="move" name="ogonek"/>
    </contour>
  </outline>
</glyph>
<glyph name="j" format="1">
  <advance width="266"/>
  <unicode hex="006A"/>
  <outline>
    <contour>
      <point x="-150" y="-175" type="line"/>
      <point x="-129" y="-186"/>
      <point x="-99" y="-195"/>
      <point x="-66" y="-195" type="curve"/>
      <point x="24" y="-195"/>
      <point x="89" y="-142"/>
      <point x="112" y="-32" type="curve" smooth="yes"/>
      <point x="228" y="515" type="line"/>
      <point x="136" y="515" type="line"/>
      <point x="20" y="-30" type="line" smooth="yes"/>
      <point x="7" y="-94"/>
      <point x="-26" y="-117"/>
      <point x="-70" y="-117" type="curve"/>
      <point x="-89" y="-117"/>
      <point x="-109" y="-112"/>
      <point x="-124" y="-104" type="curve"/>
    </contour>
    <contour>
      <point x="157" y="670" type="curve"/>
      <point x="157" y="642"/>
      <point x="176" y="620"/>
      <point x="208" y="620" type="curve"/>
      <point x="247" y="620"/>
      <point x="279" y="653"/>
      <point x="279" y="691" type="curve"/>
      <point x="279" y="720"/>
      <point x="260" y="742"/>
      <point x="228" y="742" type="curve"/>
      <point x="189" y="742"/>
      <point x="157" y="708"/>
    </contour>
  </outline>
</glyph>
<glyph name="k" format="1">
  <advance width="517.0"/>
  <unicode hex="006B"/>
  <outline>
    <contour>
      <point x="27" y="0" type="line"/>
      <point x="119" y="0" type="line"/>
      <point x="275" y="732" type="line"/>
      <point x="179" y="716" type="line"/>
    </contour>
    <contour>
      <point x="127" y="153" type="line"/>
      <point x="547" y="515" type="line"/>
      <point x="425" y="515" type="line"/>
      <point x="151" y="267" type="line"/>
    </contour>
    <contour>
      <point x="225" y="273" type="line"/>
      <point x="348" y="0" type="line"/>
      <point x="447" y="0" type="line"/>
      <point x="291" y="330" type="line"/>
    </contour>
    <contour>
      <point x="236" y="0" type="move" name="bottom"/>
    </contour>
  </outline>
</glyph>
<glyph name="l" format="1">
  <advance width="266.0"/>
  <unicode hex="006C"/>
  <outline>
    <contour>
      <point x="87" y="0" type="line"/>
      <point x="179" y="0" type="line"/>
      <point x="334" y="732" type="line"/>
      <point x="239" y="716" type="line"/>
    </contour>
    <contour>
      <point x="286" y="720" type="move" name="top"/>
    </contour>
    <contour>
      <point x="419" y="720" type="move" name="caron.alt"/>
    </contour>
    <contour>
      <point x="133" y="0" type="move" name="bottom"/>
    </contour>
  </outline>
</glyph>
<glyph name="m" format="1">
  <advance width="880"/>
  <unicode hex="006D"/>
  <outline>
    <contour>
      <point x="88" y="0" type="line"/>
      <point x="180" y="0" type="line"/>
      <point x="235" y="261" type="line" smooth="yes"/>
      <point x="259" y="375"/>
      <point x="334" y="444"/>
      <point x="397" y="444" type="curve"/>
      <point x="444" y="444"/>
      <point x="468" y="416"/>
      <point x="468" y="358" type="curve" smooth="yes"/>
      <point x="468" y="344"/>
      <point x="466" y="330"/>
      <point x="462" y="313" type="curve" smooth="yes"/>
      <point x="396" y="0" type="line"/>
      <point x="488" y="0" type="line"/>
      <point x="543" y="261" type="line" smooth="yes"/>
      <point x="568" y="375"/>
      <point x="643" y="444"/>
      <point x="705" y="444" type="curve"/>
      <point x="752" y="444"/>
      <point x="776" y="416"/>
      <point x="776" y="358" type="curve" smooth="yes"/>
      <point x="776" y="344"/>
      <point x="774" y="330"/>
      <point x="771" y="313" type="curve" smooth="yes"/>
      <point x="705" y="0" type="line"/>
      <point x="797" y="0" type="line"/>
      <point x="864" y="314" type="line" smooth="yes"/>
      <point x="868" y="334"/>
      <point x="870" y="354"/>
      <point x="870" y="371" type="curve" smooth="yes"/>
      <point x="870" y="468"/>
      <point x="811" y="525"/>
      <point x="731" y="525" type="curve"/>
      <point x="652" y="525"/>
      <point x="581" y="479"/>
      <point x="545" y="399" type="curve"/>
      <point x="561" y="383" type="line"/>
      <point x="557" y="472"/>
      <point x="500" y="525"/>
      <point x="427" y="525" type="curve"/>
      <point x="354" y="525"/>
      <point x="292" y="486"/>
      <point x="253" y="416" type="curve"/>
      <point x="265" y="403" type="line"/>
      <point x="268" y="515" type="line"/>
      <point x="181" y="515" type="line"/>
      <point x="181" y="482" type="line" smooth="yes"/>
      <point x="181" y="450"/>
      <point x="178" y="423"/>
      <point x="171" y="392" type="curve" smooth="yes"/>
    </contour>
  </outline>
</glyph>
<glyph name="n" format="1">
  <advance width="595.257239635613"/>
  <unicode hex="006E"/>
  <outline>
    <contour>
      <point x="28" y="0" type="line"/>
      <point x="120" y="0" type="line"/>
      <point x="175" y="261" type="line" smooth="yes"/>
      <point x="200" y="378"/>
      <point x="284" y="444"/>
      <point x="350" y="444" type="curve"/>
      <point x="401" y="444"/>
      <point x="433" y="416"/>
      <point x="433" y="358" type="curve" smooth="yes"/>
      <point x="433" y="344"/>
      <point x="431" y="330"/>
      <point x="427" y="313" type="curve" smooth="yes"/>
      <point x="361" y="0" type="line"/>
      <point x="453" y="0" type="line"/>
      <point x="520" y="314" type="line" smooth="yes"/>
      <point x="524" y="334"/>
      <point x="526" y="354"/>
      <point x="526" y="371" type="curve" smooth="yes"/>
      <point x="526" y="468"/>
      <point x="459" y="525"/>
      <point x="379" y="525" type="curve"/>
      <point x="303" y="525"/>
      <point x="234" y="486"/>
      <point x="193" y="416" type="curve"/>
      <point x="205" y="403" type="line"/>
      <point x="208" y="515" type="line"/>
      <point x="121" y="515" type="line"/>
      <point x="121" y="482" type="line" smooth="yes"/>
      <point x="121" y="450"/>
      <point x="118" y="423"/>
      <point x="111" y="392" type="curve" smooth="yes"/>
    </contour>
    <contour>
      <point x="343" y="515" type="move" name="top"/>
    </contour>
    <contour>
      <point x="242" y="0" type="move" name="bottom"/>
    </contour>
  </outline>
</glyph>
<glyph name="p" format="1">
  <advance width="579.396176266387"/>
  <unicode hex="0070"/>
  <outline>
    <contour>
      <point x="46" y="-197" type="line"/>
      <point x="141" y="-181" type="line"/>
      <point x="235" y="261" type="line" smooth="yes"/>
      <point x="260" y="378"/>
      <point x="342" y="444"/>
      <point x="410" y="444" type="curve"/>
      <point x="461" y="444"/>
      <point x="496" y="407"/>
      <point x="496" y="328" type="curve"/>
      <point x="496" y="191"/>
      <point x="411" y="67"/>
      <point x="314" y="67" type="curve"/>
      <point x="268" y="67"/>
      <point x="228" y="85"/>
      <point x="191" y="129" type="curve"/>
      <point x="174" y="48" type="line"/>
      <point x="214" y="9"/>
      <point x="264" y="-9"/>
      <point x="313" y="-9" type="curve"/>
      <point x="460" y="-9"/>
      <point x="590" y="146"/>
      <point x="590" y="339" type="curve"/>
      <point x="590" y="457"/>
      <point x="520" y="525"/>
      <point x="435" y="525" type="curve"/>
      <point x="362" y="525"/>
      <point x="294" y="486"/>
      <point x="253" y="416" type="curve"/>
      <point x="265" y="403" type="line"/>
      <point x="268" y="515" type="line"/>
      <point x="181" y="515" type="line"/>
      <point x="181" y="482" type="line" smooth="yes"/>
      <point x="181" y="450"/>
      <point x="178" y="423"/>
      <point x="171" y="392" type="curve" smooth="yes"/>
    </contour>
  </outline>
</glyph>
<glyph name="q" format="1">
  <advance width="578.5333707399386"/>
  <unicode hex="0071"/>
  <outline>
    <contour>
      <point x="99" y="177" type="curve"/>
      <point x="99" y="58"/>
      <point x="169" y="-9"/>
      <point x="255" y="-9" type="curve"/>
      <point x="328" y="-9"/>
      <point x="394" y="29"/>
      <point x="436" y="100" type="curve"/>
      <point x="424" y="112" type="line"/>
      <point x="358" y="-197" type="line"/>
      <point x="453" y="-181" type="line"/>
      <point x="601" y="515" type="line"/>
      <point x="519" y="515" type="line"/>
      <point x="496" y="454" type="line"/>
      <point x="454" y="254" type="line" smooth="yes"/>
      <point x="429" y="138"/>
      <point x="347" y="72"/>
      <point x="279" y="72" type="curve"/>
      <point x="228" y="72"/>
      <point x="193" y="109"/>
      <point x="193" y="187" type="curve"/>
      <point x="193" y="325"/>
      <point x="279" y="448"/>
      <point x="375" y="448" type="curve"/>
      <point x="421" y="448"/>
      <point x="461" y="428"/>
      <point x="498" y="386" type="curve"/>
      <point x="512" y="464" type="line"/>
      <point x="473" y="505"/>
      <point x="423" y="525"/>
      <point x="372" y="525" type="curve"/>
      <point x="232" y="525"/>
      <point x="99" y="369"/>
    </contour>
  </outline>
</glyph>
<glyph name="r" format="1">
  <advance width="352.96300879688044"/>
  <unicode hex="0072"/>
  <outline>
    <contour>
      <point x="28" y="0" type="line"/>
      <point x="120" y="0" type="line"/>
      <point x="169" y="235" type="line" smooth="yes"/>
      <point x="202" y="386"/>
      <point x="281" y="430"/>
      <point x="362" y="433" type="curve"/>
      <point x="381" y="525" type="line"/>
      <point x="305" y="522"/>
      <point x="241" y="491"/>
      <point x="189" y="398" type="curve"/>
      <point x="205" y="387" type="line"/>
      <point x="208" y="515" type="line"/>
      <point x="121" y="515" type="line"/>
      <point x="121" y="482" type="line" smooth="yes"/>
      <point x="121" y="450"/>
      <point x="118" y="423"/>
      <point x="111" y="392" type="curve" smooth="yes"/>
    </contour>
    <contour>
      <point x="254" y="515" type="move" name="top"/>
    </contour>
    <contour>
      <point x="76" y="0" type="move" name="bottom"/>
    </contour>
  </outline>
</glyph>
<glyph name="s" format="1">
  <advance width="470"/>
  <unicode hex="0073"/>
  <outline>
    <contour>
      <point x="57" y="62" type="line"/>
      <point x="108" y="17"/>
      <point x="177" y="-9"/>
      <point x="252" y="-9" type="curve"/>
      <point x="381" y="-9"/>
      <point x="450" y="63"/>
      <point x="450" y="136" type="curve"/>
      <point x="450" y="205"/>
      <point x="413" y="247"/>
      <point x="312" y="303" type="curve" smooth="yes"/>
      <point x="248" y="338"/>
      <point x="229" y="358"/>
      <point x="229" y="386" type="curve"/>
      <point x="229" y="418"/>
      <point x="259" y="448"/>
      <point x="316" y="448" type="curve"/>
      <point x="367" y="448"/>
      <point x="417" y="424"/>
      <point x="448" y="395" type="curve"/>
      <point x="495" y="464" type="line"/>
      <point x="451" y="501"/>
      <point x="386" y="525"/>
      <point x="325" y="525" type="curve"/>
      <point x="206" y="525"/>
      <point x="137" y="456"/>
      <point x="137" y="379" type="curve"/>
      <point x="137" y="319"/>
      <point x="171" y="278"/>
      <point x="265" y="226" type="curve" smooth="yes"/>
      <point x="335" y="187"/>
      <point x="355" y="164"/>
      <point x="355" y="131" type="curve"/>
      <point x="355" y="102"/>
      <point x="324" y="69"/>
      <point x="260" y="69" type="curve"/>
      <point x="202" y="69"/>
      <point x="151" y="91"/>
      <point x="109" y="131" type="curve"/>
    </contour>
    <contour>
      <point x="347.0" y="515.0" type="move" name="top"/>
    </contour>
    <contour>
      <point x="225.0" y="0.0" type="move" name="bottom"/>
    </contour>
  </outline>
</glyph>
<glyph name="t" format="1">
  <advance width="387.23676469828973"/>
  <unicode hex="0074"/>
  <outline>
    <contour>
      <point x="114" y="442" type="line"/>
      <point x="437" y="442" type="line"/>
      <point x="452" y="515" type="line"/>
      <point x="129" y="515" type="line"/>
    </contour>
    <contour>
      <point x="141" y="112" type="curve"/>
      <point x="141" y="36"/>
      <point x="191" y="-10"/>
      <point x="269" y="-10" type="curve"/>
      <point x="301" y="-10"/>
      <point x="338" y="0"/>
      <point x="365" y="13" type="curve"/>
      <point x="354" y="93" type="line"/>
      <point x="330" y="82"/>
      <point x="305" y="75"/>
      <point x="284" y="75" type="curve"/>
      <point x="253" y="75"/>
      <point x="234" y="91"/>
      <point x="234" y="126" type="curve"/>
      <point x="234" y="138"/>
      <point x="235" y="150"/>
      <point x="238" y="163" type="curve" smooth="yes"/>
      <point x="343" y="656" type="line"/>
      <point x="248" y="640" type="line"/>
      <point x="147" y="163" type="line" smooth="yes"/>
      <point x="143" y="147"/>
      <point x="141" y="129"/>
    </contour>
    <contour>
      <point x="237" y="0" type="move" name="bottom"/>
    </contour>
    <contour>
      <point x="540" y="720" type="move" name="caron.alt"/>
    </contour>
  </outline>
</glyph>
<glyph name="u" format="1">
  <advance width="596"/>
  <unicode hex="0075"/>
  <outline>
    <contour>
      <point x="119" y="144" type="curve" smooth="yes"/>
      <point x="119" y="47"/>
      <point x="186" y="-10"/>
      <point x="266" y="-10" type="curve"/>
      <point x="342" y="-10"/>
      <point x="411" y="29"/>
      <point x="452" y="100" type="curve"/>
      <point x="440" y="112" type="line"/>
      <point x="437" y="0" type="line"/>
      <point x="524" y="0" type="line"/>
      <point x="524" y="34" type="line" smooth="yes"/>
      <point x="524" y="65"/>
      <point x="527" y="92"/>
      <point x="534" y="123" type="curve" smooth="yes"/>
      <point x="617" y="515" type="line"/>
      <point x="525" y="515" type="line"/>
      <point x="470" y="254" type="line" smooth="yes"/>
      <point x="445" y="138"/>
      <point x="361" y="72"/>
      <point x="295" y="72" type="curve"/>
      <point x="244" y="72"/>
      <point x="212" y="99"/>
      <point x="212" y="157" type="curve" smooth="yes"/>
      <point x="212" y="171"/>
      <point x="214" y="186"/>
      <point x="218" y="202" type="curve" smooth="yes"/>
      <point x="284" y="515" type="line"/>
      <point x="192" y="515" type="line"/>
      <point x="125" y="202" type="line" smooth="yes"/>
      <point x="121" y="182"/>
      <point x="119" y="162"/>
    </contour>
    <contour>
      <point x="402" y="515" type="move" name="top"/>
    </contour>
    <contour>
      <point x="306" y="0" type="move" name="bottom"/>
    </contour>
    <contour>
      <point x="437" y="0" type="move" name="ogonek"/>
    </contour>
  </outline>
</glyph>
<glyph name="v" format="1">
  <advance width="480"/>
  <unicode hex="0076"/>
  <outline>
    <contour>
      <point x="119" y="515" type="line"/>
      <point x="204" y="0" type="line"/>
      <point x="262" y="0" type="line"/>
      <point x="275" y="53" type="line"/>
      <point x="213" y="515" type="line"/>
    </contour>
    <contour>
      <point x="221" y="0" type="line"/>
      <point x="277" y="0" type="line"/>
      <point x="579" y="515" type="line"/>
      <point x="478" y="515" type="line"/>
      <point x="228" y="53" type="line"/>
    </contour>
  </outline>
</glyph>
<glyph name="w" format="1">
  <advance width="727"/>
  <unicode hex="0077"/>
  <outline>
    <contour>
      <point x="59" y="515" type="line"/>
      <point x="112" y="0" type="line"/>
      <point x="172" y="0" type="line"/>
      <point x="183" y="58" type="line"/>
      <point x="153" y="515" type="line"/>
    </contour>
    <contour>
      <point x="131" y="0" type="line"/>
      <point x="186" y="0" type="line"/>
      <point x="403" y="403" type="line"/>
      <point x="425" y="515" type="line"/>
      <point x="375" y="515" type="line"/>
      <point x="139" y="58" type="line"/>
    </contour>
    <contour>
      <point x="374" y="403" type="line"/>
      <point x="418" y="0" type="line"/>
      <point x="479" y="0" type="line"/>
      <point x="490" y="58" type="line"/>
      <point x="448" y="515" type="line"/>
      <point x="396" y="515" type="line"/>
    </contour>
    <contour>
      <point x="438" y="0" type="line"/>
      <point x="493" y="0" type="line"/>
      <point x="766" y="515" type="line"/>
      <point x="667" y="515" type="line"/>
      <point x="446" y="58" type="line"/>
    </contour>
    <contour>
      <point x="410" y="515" type="move" name="top"/>
    </contour>
  </outline>
</glyph>
<glyph name="x" format="1">
  <advance width="510.0"/>
  <unicode hex="0078"/>
  <outline>
    <contour>
      <point x="25" y="0" type="line"/>
      <point x="133" y="0" type="line"/>
      <point x="307" y="208" type="line"/>
      <point x="348" y="250" type="line"/>
      <point x="585" y="515" type="line"/>
      <point x="477" y="515" type="line"/>
      <point x="317" y="324" type="line"/>
      <point x="275" y="281" type="line"/>
    </contour>
    <contour>
      <point x="145" y="515" type="line"/>
      <point x="280" y="230" type="line"/>
      <point x="384" y="0" type="line"/>
      <point x="485" y="0" type="line"/>
      <point x="344" y="298" type="line"/>
      <point x="246" y="515" type="line"/>
    </contour>
  </outline>
</glyph>
<glyph name="y" format="1">
  <advance width="480"/>
  <unicode hex="0079"/>
  <outline>
    <contour>
      <point x="-24" y="-176" type="line"/>
      <point x="-3" y="-187"/>
      <point x="27" y="-194"/>
      <point x="53" y="-194" type="curve"/>
      <point x="128" y="-194"/>
      <point x="187" y="-153"/>
      <point x="255" y="-37" type="curve" smooth="yes"/>
      <point x="579" y="515" type="line"/>
      <point x="478" y="515" type="line"/>
      <point x="229" y="55" type="line"/>
      <point x="205" y="24" type="line"/>
      <point x="150" y="-79"/>
      <point x="103" y="-117"/>
      <point x="61" y="-117" type="curve"/>
      <point x="39" y="-117"/>
      <point x="21" y="-111"/>
      <point x="3" y="-103" type="curve"/>
    </contour>
    <contour>
      <point x="119" y="515" type="line"/>
      <point x="204" y="0" type="line"/>
      <point x="262" y="0" type="line"/>
      <point x="275" y="53" type="line"/>
      <point x="213" y="515" type="line"/>
    </contour>
    <contour>
      <point x="350.0" y="515.0" type="move" name="top"/>
    </contour>
  </outline>
</glyph>
<glyph name="z" format="1">
  <advance width="477.4833709980884"/>
  <unicode hex="007A"/>
  <outline>
    <contour>
      <point x="47" y="0" type="line"/>
      <point x="430" y="0" type="line"/>
      <point x="446" y="73" type="line"/>
      <point x="93" y="73" type="line"/>
      <point x="59" y="56" type="line"/>
    </contour>
    <contour>
      <point x="59" y="56" type="line"/>
      <point x="126" y="0" type="line"/>
      <point x="520" y="459" type="line"/>
      <point x="452" y="515" type="line"/>
    </contour>
    <contour>
      <point x="150" y="442" type="line"/>
      <point x="484" y="442" type="line"/>
      <point x="520" y="459" type="line"/>
      <point x="531" y="515" type="line"/>
      <point x="165" y="515" type="line"/>
    </contour>
    <contour>
      <point x="342" y="515" type="move" name="top"/>
    </contour>
  </outline>
</glyph>
<glyph name="braceleft" format="1">
  <advance width="348.2588231042239"/>
  <unicode hex="007B"/>
  <outline>
    <contour>
      <point x="36" y="-115" type="curve" smooth="yes"/>
      <point x="36" y="-183"/>
      <point x="90" y="-235"/>
      <point x="187" y="-254" type="curve"/>
      <point x="219" y="-194" type="line"/>
      <point x="146" y="-170"/>
      <point x="125" y="-148"/>
      <point x="125" y="-107" type="curve" smooth="yes"/>
      <point x="125" y="-21"/>
      <point x="251" y="54"/>
      <point x="251" y="160" type="curve"/>
      <point x="251" y="213"/>
      <point x="224" y="249"/>
      <point x="167" y="267" type="curve"/>
      <point x="257" y="291"/>
      <point x="309" y="344"/>
      <point x="309" y="427" type="curve"/>
      <point x="309" y="488"/>
      <point x="271" y="537"/>
      <point x="271" y="591" type="curve" smooth="yes"/>
      <point x="271" y="657"/>
      <point x="320" y="700"/>
      <point x="416" y="728" type="curve"/>
      <point x="408" y="789" type="line"/>
      <point x="269" y="764"/>
      <point x="183" y="691"/>
      <point x="183" y="593" type="curve" smooth="yes"/>
      <point x="183" y="530"/>
      <point x="225" y="483"/>
      <point x="225" y="424" type="curve" smooth="yes"/>
      <point x="225" y="361"/>
      <point x="169" y="316"/>
      <point x="69" y="296" type="curve"/>
      <point x="56" y="240" type="line"/>
      <point x="126" y="224"/>
      <point x="168" y="199"/>
      <point x="168" y="155" type="curve" smooth="yes"/>
      <point x="168" y="74"/>
      <point x="36" y="-12"/>
    </contour>
  </outline>
</glyph>
<glyph name="braceright" format="1">
  <advance width="348.5083708690135"/>
  <unicode hex="007D"/>
  <outline>
    <contour>
      <point x="-14" y="-194" type="curve"/>
      <point x="-6" y="-255" type="line"/>
      <point x="133" y="-230"/>
      <point x="219" y="-157"/>
      <point x="219" y="-59" type="curve" smooth="yes"/>
      <point x="219" y="4"/>
      <point x="177" y="51"/>
      <point x="177" y="110" type="curve" smooth="yes"/>
      <point x="177" y="173"/>
      <point x="233" y="218"/>
      <point x="333" y="238" type="curve"/>
      <point x="346" y="294" type="line"/>
      <point x="276" y="310"/>
      <point x="234" y="335"/>
      <point x="234" y="379" type="curve" smooth="yes"/>
      <point x="234" y="460"/>
      <point x="366" y="546"/>
      <point x="366" y="649" type="curve" smooth="yes"/>
      <point x="366" y="717"/>
      <point x="312" y="769"/>
      <point x="215" y="788" type="curve"/>
      <point x="183" y="728" type="line"/>
      <point x="256" y="704"/>
      <point x="277" y="682"/>
      <point x="277" y="641" type="curve" smooth="yes"/>
      <point x="277" y="555"/>
      <point x="151" y="480"/>
      <point x="151" y="374" type="curve"/>
      <point x="151" y="321"/>
      <point x="178" y="285"/>
      <point x="235" y="267" type="curve"/>
      <point x="145" y="243"/>
      <point x="93" y="190"/>
      <point x="93" y="107" type="curve"/>
      <point x="93" y="46"/>
      <point x="131" y="-3"/>
      <point x="131" y="-57" type="curve" smooth="yes"/>
      <point x="131" y="-123"/>
      <point x="82" y="-166"/>
    </contour>
  </outline>
</glyph>
<glyph name="asciitilde" format="1">
  <advance width="660"/>
  <unicode hex="007E"/>
  <outline>
    <contour>
      <point x="176.97952506267666" y="301.0" type="curve"/>
      <point x="239.97952506267666" y="301.0" type="line"/>
      <point x="262.37058844788805" y="364.0"/>
      <point x="286.6217196812885" y="384.0"/>
      <point x="316.6217196812885" y="384.0" type="curve" smooth="yes"/>
      <point x="376.6217196812885" y="384.0"/>
      <point x="392.91674225432655" y="296.0"/>
      <point x="478.91674225432655" y="296.0" type="curve"/>
      <point x="551.9167422543266" y="296.0"/>
      <point x="611.4575793928578" y="355.0"/>
      <point x="643.9257921215301" y="456.0" type="curve"/>
      <point x="580.9257921215301" y="456.0" type="line"/>
      <point x="558.5347287363187" y="393.0"/>
      <point x="534.2835975029183" y="373.0"/>
      <point x="504.28359750291827" y="373.0" type="curve" smooth="yes"/>
      <point x="446.28359750291827" y="373.0"/>
      <point x="428.9885749298802" y="461.0"/>
      <point x="341.9885749298802" y="461.0" type="curve"/>
      <point x="267.9885749298802" y="461.0"/>
      <point x="209.4477377913489" y="402.0"/>
    </contour>
  </outline>
</glyph>
<glyph name="exclamdown" format="1">
  <advance width="313.9951225803163"/>
  <unicode hex="00A1"/>
  <outline>
    <contour>
      <point x="11" y="-185" type="line"/>
      <point x="110" y="-185" type="line"/>
      <point x="149" y="0" type="line"/>
      <point x="200" y="307" type="line"/>
      <point x="131" y="307" type="line"/>
      <point x="50" y="0" type="line"/>
    </contour>
    <contour>
      <point x="134" y="454" type="curve" smooth="yes"/>
      <point x="134" y="423"/>
      <point x="154" y="403"/>
      <point x="187" y="403" type="curve" smooth="yes"/>
      <point x="225" y="403"/>
      <point x="258" y="435"/>
      <point x="258" y="474" type="curve" smooth="yes"/>
      <point x="258" y="505"/>
      <point x="238" y="525"/>
      <point x="205" y="525" type="curve" smooth="yes"/>
      <point x="167" y="525"/>
      <point x="134" y="493"/>
    </contour>
  </outline>
</glyph>
<glyph name="cent" format="1">
  <advance width="600"/>
  <unicode hex="00A2"/>
  <outline>
    <contour>
      <point x="161.0" y="212" type="curve" smooth="yes"/>
      <point x="161.0" y="99"/>
      <point x="231.0" y="28"/>
      <point x="335.0" y="28" type="curve"/>
      <point x="413.0" y="28"/>
      <point x="478.0" y="62"/>
      <point x="535.0" y="116" type="curve"/>
      <point x="488.0" y="178" type="line"/>
      <point x="449.0" y="137"/>
      <point x="401.0" y="110"/>
      <point x="350.0" y="110" type="curve" smooth="yes"/>
      <point x="291.0" y="110"/>
      <point x="255.0" y="149"/>
      <point x="255.0" y="225" type="curve" smooth="yes"/>
      <point x="255.0" y="350"/>
      <point x="334.0" y="481"/>
      <point x="439.0" y="481" type="curve" smooth="yes"/>
      <point x="479.0" y="481"/>
      <point x="509.0" y="464"/>
      <point x="530.0" y="430" type="curve"/>
      <point x="594.0" y="486" type="line"/>
      <point x="566.0" y="533"/>
      <point x="510.0" y="563"/>
      <point x="449.0" y="563" type="curve" smooth="yes"/>
      <point x="284.0" y="563"/>
      <point x="161.0" y="396"/>
    </contour>
    <contour>
      <point x="267.0" y="-100" type="line"/>
      <point x="343.0" y="-100" type="line"/>
      <point x="424.0" y="280" type="line"/>
      <point x="348.0" y="280" type="line"/>
    </contour>
    <contour>
      <point x="348.0" y="280" type="line"/>
      <point x="424.0" y="280" type="line"/>
      <point x="512.0" y="695" type="line"/>
      <point x="436.0" y="695" type="line"/>
    </contour>
  </outline>
</glyph>
<glyph name="sterling" format="1">
  <advance width="600"/>
  <unicode hex="00A3"/>
  <outline>
    <contour>
      <point x="63.0" y="0" type="line"/>
      <point x="532.0" y="0" type="line"/>
      <point x="549.0" y="82" type="line"/>
      <point x="81.0" y="82" type="line"/>
    </contour>
    <contour>
      <point x="66.0" y="17" type="line"/>
      <point x="223.0" y="66"/>
      <point x="322.0" y="167"/>
      <point x="322.0" y="294" type="curve"/>
      <point x="322.0" y="354"/>
      <point x="320.0" y="381"/>
      <point x="320.0" y="428" type="curve"/>
      <point x="320.0" y="540"/>
      <point x="381.0" y="612"/>
      <point x="475.0" y="612" type="curve"/>
      <point x="530.0" y="612"/>
      <point x="572.0" y="590"/>
      <point x="596.0" y="549" type="curve"/>
      <point x="666.0" y="607" type="line"/>
      <point x="636.0" y="665"/>
      <point x="565.0" y="700"/>
      <point x="478.0" y="700" type="curve"/>
      <point x="340.0" y="700"/>
      <point x="226.0" y="608"/>
      <point x="226.0" y="437" type="curve"/>
      <point x="226.0" y="382"/>
      <point x="230.0" y="352"/>
      <point x="230.0" y="319" type="curve" smooth="yes"/>
      <point x="230.0" y="237"/>
      <point x="196.0" y="139"/>
      <point x="81.0" y="85" type="curve"/>
    </contour>
    <contour>
      <point x="124.0" y="290" type="line"/>
      <point x="499.0" y="290" type="line"/>
      <point x="516.0" y="367" type="line"/>
      <point x="141.0" y="367" type="line"/>
    </contour>
  </outline>
</glyph>
<glyph name="currency" format="1">
  <advance width="640"/>
  <unicode hex="00A4"/>
  <outline>
    <contour>
      <point x="85.0" y="142" type="line"/>
      <point x="136.0" y="79" type="line"/>
      <point x="235.0" y="160" type="line"/>
      <point x="184.0" y="224" type="line"/>
    </contour>
    <contour>
      <point x="165.0" y="290" type="curve" smooth="yes"/>
      <point x="165.0" y="171"/>
      <point x="240.0" y="108"/>
      <point x="350.0" y="108" type="curve" smooth="yes"/>
      <point x="501.0" y="108"/>
      <point x="623.0" y="234"/>
      <point x="623.0" y="400" type="curve" smooth="yes"/>
      <point x="623.0" y="519"/>
      <point x="549.0" y="582"/>
      <point x="438.0" y="582" type="curve" smooth="yes"/>
      <point x="289.0" y="582"/>
      <point x="165.0" y="452"/>
    </contour>
    <contour>
      <point x="177.0" y="551" type="line"/>
      <point x="241.0" y="469" type="line"/>
      <point x="311.0" y="529" type="line"/>
      <point x="247.0" y="610" type="line"/>
    </contour>
    <contour>
      <point x="251.0" y="296" type="curve" smooth="yes"/>
      <point x="251.0" y="402"/>
      <point x="318.0" y="502"/>
      <point x="429.0" y="502" type="curve" smooth="yes"/>
      <point x="499.0" y="502"/>
      <point x="537.0" y="464"/>
      <point x="537.0" y="395" type="curve" smooth="yes"/>
      <point x="537.0" y="290"/>
      <point x="472.0" y="188"/>
      <point x="360.0" y="188" type="curve" smooth="yes"/>
      <point x="289.0" y="188"/>
      <point x="251.0" y="227"/>
    </contour>
    <contour>
      <point x="476.0" y="161" type="line"/>
      <point x="540.0" y="80" type="line"/>
      <point x="610.0" y="139" type="line"/>
      <point x="546.0" y="221" type="line"/>
    </contour>
    <contour>
      <point x="553.0" y="530" type="line"/>
      <point x="603.0" y="466" type="line"/>
      <point x="702.0" y="548" type="line"/>
      <point x="652.0" y="611" type="line"/>
    </contour>
  </outline>
</glyph>
<glyph name="yen" format="1">
  <advance width="640"/>
  <unicode hex="00A5"/>
  <outline>
    <contour>
      <point x="135.0" y="132" type="line"/>
      <point x="566.0" y="132" type="line"/>
      <point x="582.0" y="206" type="line"/>
      <point x="151.0" y="206" type="line"/>
    </contour>
    <contour>
      <point x="167.0" y="285" type="line"/>
      <point x="598.0" y="285" type="line"/>
      <point x="615.0" y="359" type="line"/>
      <point x="184.0" y="359" type="line"/>
    </contour>
    <contour>
      <point x="177.0" y="690" type="line"/>
      <point x="339.0" y="273" type="line"/>
      <point x="392.0" y="273" type="line"/>
      <point x="405.0" y="348" type="line"/>
      <point x="281.0" y="690" type="line"/>
    </contour>
    <contour>
      <point x="276.0" y="0" type="line"/>
      <point x="364.0" y="0" type="line"/>
      <point x="430.0" y="303" type="line"/>
      <point x="340.0" y="303" type="line"/>
    </contour>
    <contour>
      <point x="370.0" y="273" type="line"/>
      <point x="420.0" y="273" type="line"/>
      <point x="759.0" y="690" type="line"/>
      <point x="646.0" y="690" type="line"/>
      <point x="378.0" y="348" type="line"/>
    </contour>
  </outline>
</glyph>
<glyph name="brokenbar" format="1">
  <advance width="276.11651574949667"/>
  <unicode hex="00A6"/>
  <outline>
    <contour>
      <point x="49" y="-215" type="line"/>
      <point x="135" y="-215" type="line"/>
      <point x="213" y="150" type="line"/>
      <point x="127" y="150" type="line"/>
    </contour>
    <contour>
      <point x="170" y="355" type="line"/>
      <point x="256" y="355" type="line"/>
      <point x="334" y="720" type="line"/>
      <point x="248" y="720" type="line"/>
    </contour>
  </outline>
</glyph>
<glyph name="section" format="1">
  <advance width="660"/>
  <unicode hex="00A7"/>
  <outline>
    <contour>
      <point x="60.831334777967584" y="-109.0" type="line"/>
      <point x="113.14072388611638" y="-164.0"/>
      <point x="194.33891391267565" y="-196.0"/>
      <point x="273.33891391267565" y="-196.0" type="curve" smooth="yes"/>
      <point x="412.33891391267565" y="-196.0"/>
      <point x="524.3434388462774" y="-116.0"/>
      <point x="545.1739818899396" y="-18.0" type="curve" smooth="yes"/>
      <point x="562.6036199468814" y="64.0"/>
      <point x="522.5067874004027" y="120.0"/>
      <point x="364.6225114155939" y="177.0" type="curve" smooth="yes"/>
      <point x="243.97500012907489" y="221.0"/>
      <point x="212.9893666641856" y="254.0"/>
      <point x="223.4046381860167" y="303.0" type="curve" smooth="yes"/>
      <point x="233.18224002283773" y="349.0"/>
      <point x="290.2593893662986" y="387.0"/>
      <point x="383.2593893662986" y="387.0" type="curve"/>
      <point x="285.7132355598601" y="455.0" type="line"/>
      <point x="195.3365387097594" y="425.0"/>
      <point x="137.15803188621803" y="363.0"/>
      <point x="121.85395944597644" y="291.0" type="curve" smooth="yes"/>
      <point x="103.99920826569458" y="207.0"/>
      <point x="152.33280551046306" y="138.0"/>
      <point x="316.21708149527177" y="81.0" type="curve" smooth="yes"/>
      <point x="430.7148190284709" y="41.0"/>
      <point x="458.76323530171027" y="13.0"/>
      <point x="450.04841627323935" y="-28.0" type="curve" smooth="yes"/>
      <point x="440.4833709980884" y="-73.0"/>
      <point x="386.9811085312875" y="-113.0"/>
      <point x="297.9811085312875" y="-113.0" type="curve" smooth="yes"/>
      <point x="226.9811085312875" y="-113.0"/>
      <point x="170.93269225804812" y="-85.0"/>
      <point x="131.1354072182092" y="-37.0" type="curve"/>
    </contour>
    <contour>
      <point x="221.95452519175154" y="522.0" type="curve" smooth="yes"/>
      <point x="204.52488713480972" y="440.0"/>
      <point x="244.62171968128848" y="384.0"/>
      <point x="402.50599566609725" y="327.0" type="curve" smooth="yes"/>
      <point x="523.1535069526162" y="283.0"/>
      <point x="554.1391404175056" y="250.0"/>
      <point x="543.7238688956744" y="201.0" type="curve" smooth="yes"/>
      <point x="533.9462670588534" y="155.0"/>
      <point x="476.8691177153926" y="117.0"/>
      <point x="383.8691177153926" y="117.0" type="curve"/>
      <point x="481.4152715218311" y="49.0" type="line"/>
      <point x="571.7919683719317" y="79.0"/>
      <point x="629.9704751954731" y="141.0"/>
      <point x="645.2745476357147" y="213.0" type="curve" smooth="yes"/>
      <point x="663.1292988159965" y="297.0"/>
      <point x="614.795701571228" y="366.0"/>
      <point x="450.91142558641934" y="423.0" type="curve" smooth="yes"/>
      <point x="336.41368805322026" y="463.0"/>
      <point x="308.36527177998084" y="491.0"/>
      <point x="317.08009080845176" y="532.0" type="curve" smooth="yes"/>
      <point x="326.6451360836028" y="577.0"/>
      <point x="380.14739855040364" y="617.0"/>
      <point x="469.14739855040364" y="617.0" type="curve" smooth="yes"/>
      <point x="540.1473985504036" y="617.0"/>
      <point x="596.195814823643" y="589.0"/>
      <point x="635.993099863482" y="541.0" type="curve"/>
      <point x="706.2971723037235" y="613.0" type="line"/>
      <point x="653.9877831955748" y="668.0"/>
      <point x="572.7895931690155" y="700.0"/>
      <point x="493.78959316901546" y="700.0" type="curve" smooth="yes"/>
      <point x="354.78959316901546" y="700.0"/>
      <point x="242.78506823541372" y="620.0"/>
    </contour>
  </outline>
</glyph>
<glyph name="dieresis" format="1">
  <advance width="599.8863447882288"/>
  <unicode hex="00A8"/>
  <note>
    dieresis
  </note>
  <outline>
    <contour>
      <point x="232" y="671" type="curve" smooth="yes"/>
      <point x="232" y="645"/>
      <point x="249" y="626"/>
      <point x="278" y="626" type="curve" smooth="yes"/>
      <point x="312" y="626"/>
      <point x="341" y="655"/>
      <point x="341" y="689" type="curve" smooth="yes"/>
      <point x="341" y="716"/>
      <point x="324" y="734"/>
      <point x="295" y="734" type="curve" smooth="yes"/>
      <point x="261" y="734"/>
      <point x="232" y="705"/>
    </contour>
    <contour>
      <point x="428" y="671" type="curve" smooth="yes"/>
      <point x="428" y="645"/>
      <point x="445" y="626"/>
      <point x="474" y="626" type="curve" smooth="yes"/>
      <point x="508" y="626"/>
      <point x="537" y="655"/>
      <point x="537" y="689" type="curve" smooth="yes"/>
      <point x="537" y="716"/>
      <point x="520" y="734"/>
      <point x="491" y="734" type="curve" smooth="yes"/>
      <point x="457" y="734"/>
      <point x="428" y="705"/>
    </contour>
    <contour>
      <point x="349" y="515" type="move" name="_top"/>
    </contour>
  </outline>
</glyph>
<glyph name="copyright" format="1">
  <advance width="810"/>
  <unicode hex="00A9"/>
  <outline>
    <contour>
      <point x="479" y="-10" type="curve" smooth="yes"/>
      <point x="679" y="-10"/>
      <point x="834" y="145"/>
      <point x="834" y="345" type="curve" smooth="yes"/>
      <point x="834" y="545"/>
      <point x="679" y="700"/>
      <point x="479" y="700" type="curve" smooth="yes"/>
      <point x="279" y="700"/>
      <point x="124" y="545"/>
      <point x="124" y="345" type="curve" smooth="yes"/>
      <point x="124" y="145"/>
      <point x="279" y="-10"/>
    </contour>
    <contour>
      <point x="479" y="60" type="curve" smooth="yes"/>
      <point x="319" y="60"/>
      <point x="196" y="185"/>
      <point x="196" y="345" type="curve" smooth="yes"/>
      <point x="196" y="505"/>
      <point x="319" y="630"/>
      <point x="479" y="630" type="curve" smooth="yes"/>
      <point x="639" y="630"/>
      <point x="762" y="505"/>
      <point x="762" y="345" type="curve" smooth="yes"/>
      <point x="762" y="185"/>
      <point x="639" y="60"/>
    </contour>
    <contour>
      <point x="290" y="345" type="curve" smooth="yes"/>
      <point x="290" y="210"/>
      <point x="376" y="135"/>
      <point x="479" y="135" type="curve" smooth="yes"/>
      <point x="531" y="135"/>
      <point x="575" y="155"/>
      <point x="611" y="191" type="curve"/>
      <point x="564" y="241" type="line"/>
      <point x="542" y="217"/>
      <point x="514" y="205"/>
      <point x="480" y="205" type="curve" smooth="yes"/>
      <point x="414" y="205"/>
      <point x="364" y="254"/>
      <point x="364" y="345" type="curve" smooth="yes"/>
      <point x="364" y="436"/>
      <point x="414" y="485"/>
      <point x="480" y="485" type="curve" smooth="yes"/>
      <point x="510" y="485"/>
      <point x="536" y="474"/>
      <point x="559" y="450" type="curve"/>
      <point x="606" y="500" type="line"/>
      <point x="570" y="535"/>
      <point x="527" y="555"/>
      <point x="479" y="555" type="curve" smooth="yes"/>
      <point x="376" y="555"/>
      <point x="290" y="480"/>
    </contour>
  </outline>
</glyph>
<glyph name="ordfeminine" format="1">
  <advance width="440"/>
  <unicode hex="00AA"/>
  <outline>
    <contour>
      <point x="137.7472852979887" y="394.0" type="curve" smooth="yes"/>
      <point x="122.65576941941714" y="323.0"/>
      <point x="166.5158372676062" y="280.0"/>
      <point x="225.5158372676062" y="280.0" type="curve" smooth="yes"/>
      <point x="283.5158372676062" y="280.0"/>
      <point x="342.1050906793769" y="311.0"/>
      <point x="381.03246626951784" y="353.0" type="curve"/>
      <point x="393.7858599697191" y="413.0" type="line"/>
      <point x="350.49615406458827" y="374.0"/>
      <point x="305.39479658450773" y="350.0"/>
      <point x="263.39479658450773" y="350.0" type="curve" smooth="yes"/>
      <point x="230.39479658450773" y="350.0"/>
      <point x="212.22081469456816" y="368.0"/>
      <point x="219.02262466800886" y="400.0" type="curve" smooth="yes"/>
      <point x="225.61187807977953" y="431.0"/>
      <point x="255.9885749298802" y="461.0"/>
      <point x="354.1141405465804" y="471.0" type="curve" smooth="yes"/>
      <point x="401.1769233549305" y="476.0" type="line"/>
      <point x="412.86753424678176" y="531.0" type="line"/>
      <point x="363.4424211234417" y="529.0" type="line" smooth="yes"/>
      <point x="215.16708175342157" y="523.0"/>
      <point x="152.41368805322026" y="463.0"/>
    </contour>
    <contour>
      <point x="202.43710445553452" y="656.0" type="curve"/>
      <point x="215.40837138531305" y="590.0" type="line"/>
      <point x="256.65950261871353" y="610.0"/>
      <point x="294.06040760543385" y="626.0"/>
      <point x="336.06040760543385" y="626.0" type="curve" smooth="yes"/>
      <point x="390.06040760543385" y="626.0"/>
      <point x="415.53393700201326" y="600.0"/>
      <point x="401.7177604934618" y="535.0" type="curve" smooth="yes"/>
      <point x="371.5347287363187" y="393.0" type="line"/>
      <point x="366.58314500955805" y="365.0" type="line"/>
      <point x="366.64140288430644" y="290.0" type="line"/>
      <point x="441.64140288430644" y="290.0" type="line"/>
      <point x="442.0808825427572" y="325.0" type="line" smooth="yes"/>
      <point x="442.7571268994977" y="347.0"/>
      <point x="445.37058844788805" y="364.0"/>
      <point x="450.04683280462854" y="386.0" type="curve" smooth="yes"/>
      <point x="483.630769548492" y="544.0" type="line" smooth="yes"/>
      <point x="505.9492085238444" y="649.0"/>
      <point x="447.78959316901546" y="700.0"/>
      <point x="358.78959316901546" y="700.0" type="curve" smooth="yes"/>
      <point x="309.78959316901546" y="700.0"/>
      <point x="245.32590537394503" y="679.0"/>
    </contour>
  </outline>
</glyph>
<glyph name="guillemetleft" format="1">
  <advance width="495.8616513167999"/>
  <unicode hex="00AB"/>
  <outline>
    <contour>
      <point x="35" y="250" type="line"/>
      <point x="128" y="81" type="line"/>
      <point x="222" y="81" type="line"/>
      <point x="111" y="286" type="line"/>
      <point x="46" y="294" type="line"/>
    </contour>
    <contour>
      <point x="35" y="250" type="line"/>
      <point x="115" y="260" type="line"/>
      <point x="303" y="457" type="line"/>
      <point x="202" y="457" type="line"/>
      <point x="46" y="294" type="line"/>
    </contour>
    <contour>
      <point x="233" y="250" type="line"/>
      <point x="326" y="81" type="line"/>
      <point x="420" y="81" type="line"/>
      <point x="309" y="286" type="line"/>
      <point x="244" y="294" type="line"/>
    </contour>
    <contour>
      <point x="233" y="250" type="line"/>
      <point x="313" y="260" type="line"/>
      <point x="501" y="457" type="line"/>
      <point x="400" y="457" type="line"/>
      <point x="244" y="294" type="line"/>
    </contour>
  </outline>
</glyph>
<glyph name="logicalnot" format="1">
  <advance width="640"/>
  <unicode hex="00AC"/>
  <outline>
    <contour>
      <point x="146.0" y="249" type="line"/>
      <point x="600.0" y="249" type="line"/>
      <point x="617.0" y="331" type="line"/>
      <point x="163.0" y="331" type="line"/>
    </contour>
    <contour>
      <point x="475.0" y="65" type="line"/>
      <point x="561.0" y="65" type="line"/>
      <point x="617.0" y="331" type="line"/>
      <point x="531.0" y="331" type="line"/>
    </contour>
  </outline>
</glyph>
<glyph name="registered" format="1">
  <advance width="810"/>
  <unicode hex="00AE"/>
  <outline>
    <contour>
      <point x="479" y="-10" type="curve" smooth="yes"/>
      <point x="679" y="-10"/>
      <point x="834" y="145"/>
      <point x="834" y="345" type="curve" smooth="yes"/>
      <point x="834" y="545"/>
      <point x="679" y="700"/>
      <point x="479" y="700" type="curve" smooth="yes"/>
      <point x="279" y="700"/>
      <point x="124" y="545"/>
      <point x="124" y="345" type="curve" smooth="yes"/>
      <point x="124" y="145"/>
      <point x="279" y="-10"/>
    </contour>
    <contour>
      <point x="479" y="60" type="curve" smooth="yes"/>
      <point x="319" y="60"/>
      <point x="196" y="185"/>
      <point x="196" y="345" type="curve" smooth="yes"/>
      <point x="196" y="505"/>
      <point x="319" y="630"/>
      <point x="479" y="630" type="curve" smooth="yes"/>
      <point x="639" y="630"/>
      <point x="762" y="505"/>
      <point x="762" y="345" type="curve" smooth="yes"/>
      <point x="762" y="185"/>
      <point x="639" y="60"/>
    </contour>
    <contour>
      <point x="342" y="138" type="line"/>
      <point x="412" y="138" type="line"/>
      <point x="412" y="552" type="line"/>
      <point x="342" y="552" type="line"/>
    </contour>
    <contour>
      <point x="374" y="294" type="line"/>
      <point x="483" y="294" type="line" smooth="yes"/>
      <point x="564" y="294"/>
      <point x="630" y="339"/>
      <point x="630" y="423" type="curve" smooth="yes"/>
      <point x="630" y="506"/>
      <point x="564" y="552"/>
      <point x="483" y="552" type="curve" smooth="yes"/>
      <point x="374" y="552" type="line"/>
      <point x="374" y="492" type="line"/>
      <point x="479" y="492" type="line" smooth="yes"/>
      <point x="526" y="492"/>
      <point x="558" y="468"/>
      <point x="558" y="423" type="curve" smooth="yes"/>
      <point x="558" y="378"/>
      <point x="525" y="352"/>
      <point x="479" y="352" type="curve" smooth="yes"/>
      <point x="374" y="352" type="line"/>
    </contour>
    <contour>
      <point x="460" y="312" type="line"/>
      <point x="560" y="138" type="line"/>
      <point x="642" y="138" type="line"/>
      <point x="536" y="312" type="line"/>
    </contour>
  </outline>
</glyph>
<glyph name="macron" format="1">
  <advance width="600"/>
  <unicode hex="00AF"/>
  <outline>
    <contour>
      <point x="285.91063385211396" y="630.0" type="line"/>
      <point x="581.910633852114" y="630.0" type="line"/>
      <point x="596.7895931690155" y="700.0" type="line"/>
      <point x="300.78959316901546" y="700.0" type="line"/>
    </contour>
    <contour>
      <point x="409.4666292600614" y="515.0" type="move" name="_top"/>
    </contour>
  </outline>
</glyph>
<glyph name="degree" format="1">
  <advance width="384"/>
  <unicode hex="00B0"/>
  <outline>
    <contour>
      <point x="169.0316745352124" y="560.0" type="curve" smooth="yes"/>
      <point x="152.23970616328063" y="481.0"/>
      <point x="201.2737559014093" y="420.0"/>
      <point x="281.2737559014093" y="420.0" type="curve" smooth="yes"/>
      <point x="361.2737559014093" y="420.0"/>
      <point x="436.23970616328063" y="481.0"/>
      <point x="453.0316745352124" y="560.0" type="curve" smooth="yes"/>
      <point x="469.8236429071442" y="639.0"/>
      <point x="420.78959316901546" y="700.0"/>
      <point x="340.78959316901546" y="700.0" type="curve" smooth="yes"/>
      <point x="260.78959316901546" y="700.0"/>
      <point x="185.82364290714415" y="639.0"/>
    </contour>
    <contour>
      <point x="241.0316745352124" y="560.0" type="curve" smooth="yes"/>
      <point x="250.17160668702334" y="603.0"/>
      <point x="286.76086009879407" y="634.0"/>
      <point x="326.76086009879407" y="634.0" type="curve" smooth="yes"/>
      <point x="366.76086009879407" y="634.0"/>
      <point x="390.1716066870233" y="603.0"/>
      <point x="381.0316745352124" y="560.0" type="curve" smooth="yes"/>
      <point x="371.89174238340144" y="517.0"/>
      <point x="335.30248897163074" y="486.0"/>
      <point x="295.30248897163074" y="486.0" type="curve" smooth="yes"/>
      <point x="255.30248897163074" y="486.0"/>
      <point x="231.89174238340144" y="517.0"/>
    </contour>
  </outline>
</glyph>
<glyph name="plusminus" format="1">
  <advance width="640"/>
  <unicode hex="00B1"/>
  <outline>
    <contour>
      <point x="107.0" y="65" type="line"/>
      <point x="561.0" y="65" type="line"/>
      <point x="578.0" y="147" type="line"/>
      <point x="124.0" y="147" type="line"/>
    </contour>
    <contour>
      <point x="152.0" y="279" type="line"/>
      <point x="606.0" y="279" type="line"/>
      <point x="624.0" y="361" type="line"/>
      <point x="170.0" y="361" type="line"/>
    </contour>
    <contour>
      <point x="291.0" y="65" type="line"/>
      <point x="377.0" y="65" type="line"/>
      <point x="472.0" y="515" type="line"/>
      <point x="387.0" y="515" type="line"/>
    </contour>
  </outline>
</glyph>
<glyph name="threesuperior" format="1">
  <advance width="436.05185724992066"/>
  <unicode hex="00B3"/>
  <outline>
    <contour>
      <point x="67" y="337" type="line"/>
      <point x="101" y="300"/>
      <point x="153" y="281"/>
      <point x="213" y="281" type="curve" smooth="yes"/>
      <point x="312" y="281"/>
      <point x="388" y="337"/>
      <point x="388" y="424" type="curve" smooth="yes"/>
      <point x="388" y="496"/>
      <point x="337" y="523"/>
      <point x="262" y="523" type="curve" smooth="yes"/>
      <point x="225" y="523" type="line"/>
      <point x="187" y="514" type="line"/>
      <point x="178" y="470" type="line"/>
      <point x="231" y="470" type="line" smooth="yes"/>
      <point x="283" y="470"/>
      <point x="313" y="454"/>
      <point x="313" y="420" type="curve" smooth="yes"/>
      <point x="313" y="374"/>
      <point x="269" y="347"/>
      <point x="219" y="347" type="curve" smooth="yes"/>
      <point x="174" y="347"/>
      <point x="141" y="361"/>
      <point x="119" y="388" type="curve"/>
    </contour>
    <contour>
      <point x="146" y="626" type="line"/>
      <point x="376" y="626" type="line"/>
      <point x="415" y="639" type="line"/>
      <point x="426" y="690" type="line"/>
      <point x="160" y="690" type="line"/>
    </contour>
    <contour>
      <point x="187" y="514" type="line"/>
      <point x="270" y="514" type="line"/>
      <point x="415" y="639" type="line"/>
      <point x="383" y="690" type="line"/>
    </contour>
  </outline>
</glyph>
<glyph name="acute" format="1">
  <advance width="600"/>
  <unicode hex="00B4"/>
  <outline>
    <contour>
      <point x="380.40837138531305" y="590.0" type="line"/>
      <point x="487.2918556358164" y="740.0" type="line"/>
      <point x="598.2918556358163" y="740.0" type="line"/>
      <point x="456.40837138531305" y="590.0" type="line"/>
    </contour>
    <contour>
      <point x="409.4666292600614" y="515.0" type="move" name="_top"/>
    </contour>
  </outline>
</glyph>
<glyph name="paragraph" format="1">
  <advance width="701.6610860873243"/>
  <unicode hex="00B6"/>
  <outline>
    <contour>
      <point x="96" y="395" type="curve" smooth="yes"/>
      <point x="96" y="285"/>
      <point x="177" y="205"/>
      <point x="295" y="205" type="curve"/>
      <point x="329" y="205" type="line"/>
      <point x="244" y="-196" type="line"/>
      <point x="329" y="-196" type="line"/>
      <point x="518" y="690" type="line"/>
      <point x="398" y="690" type="line"/>
      <point x="223" y="690"/>
      <point x="96" y="556"/>
    </contour>
    <contour>
      <point x="419" y="-196" type="line"/>
      <point x="505" y="-196" type="line"/>
      <point x="693" y="690" type="line"/>
      <point x="608" y="690" type="line"/>
    </contour>
  </outline>
</glyph>
<glyph name="cedilla" format="1">
  <advance width="600"/>
  <unicode hex="00B8"/>
  <outline>
    <contour>
      <point x="180.55147047434568" y="-195.0" type="line"/>
      <point x="210.55147047434568" y="-195.0" type="line" smooth="yes"/>
      <point x="322.5514704743457" y="-195.0"/>
      <point x="366.11651574949667" y="-150.0"/>
      <point x="374.40622165462753" y="-111.0" type="curve"/>
      <point x="382.05825787474834" y="-75.0"/>
      <point x="363.37217191649887" y="-50.0"/>
      <point x="306.434954724849" y="-45.0" type="curve"/>
      <point x="326.9130090550302" y="9.0" type="line"/>
      <point x="274.1883484250503" y="15.0" type="line"/>
      <point x="234.35780538138818" y="-83.0" type="line"/>
      <point x="263.9326922580481" y="-85.0" type="line" smooth="yes"/>
      <point x="290.50757913470807" y="-87.0"/>
      <point x="298.59457007967785" y="-96.0"/>
      <point x="295.6187782162976" y="-110.0" type="curve"/>
      <point x="291.79276010623715" y="-128.0"/>
      <point x="273.8169682428569" y="-142.0"/>
      <point x="203.60441168118683" y="-143.0" type="curve"/>
    </contour>
    <contour>
      <point x="300.0" y="0.0" type="move" name="_bottom"/>
    </contour>
  </outline>
</glyph>
<glyph name="onesuperior" format="1">
  <advance width="428"/>
  <unicode hex="00B9"/>
  <outline>
    <contour>
      <point x="85" y="290" type="line"/>
      <point x="370" y="290" type="line"/>
      <point x="384" y="355" type="line"/>
      <point x="99" y="355" type="line"/>
    </contour>
    <contour>
      <point x="138" y="626" type="line"/>
      <point x="154" y="564" type="line"/>
      <point x="310" y="628" type="line"/>
      <point x="295" y="690" type="line"/>
    </contour>
    <contour>
      <point x="190" y="290" type="line"/>
      <point x="265" y="290" type="line"/>
      <point x="350" y="690" type="line"/>
      <point x="295" y="690" type="line"/>
      <point x="263" y="637" type="line"/>
    </contour>
  </outline>
</glyph>
<glyph name="ordmasculine" format="1">
  <advance width="480"/>
  <unicode hex="00BA"/>
  <outline>
    <contour>
      <point x="164.15271521831085" y="490.0" type="curve" smooth="yes"/>
      <point x="133.9696834611677" y="348.0"/>
      <point x="200.5158372676062" y="280.0"/>
      <point x="299.5158372676062" y="280.0" type="curve" smooth="yes"/>
      <point x="398.5158372676062" y="280.0"/>
      <point x="493.96968346116773" y="348.0"/>
      <point x="524.1527152183108" y="490.0" type="curve" smooth="yes"/>
      <point x="554.335746975454" y="632.0"/>
      <point x="487.78959316901546" y="700.0"/>
      <point x="388.78959316901546" y="700.0" type="curve" smooth="yes"/>
      <point x="289.78959316901546" y="700.0"/>
      <point x="194.335746975454" y="632.0"/>
    </contour>
    <contour>
      <point x="244.15271521831085" y="490.0" type="curve" smooth="yes"/>
      <point x="264.983258261973" y="588.0"/>
      <point x="318.33574697545396" y="632.0"/>
      <point x="374.33574697545396" y="632.0" type="curve" smooth="yes"/>
      <point x="430.33574697545396" y="632.0"/>
      <point x="464.983258261973" y="588.0"/>
      <point x="444.15271521831085" y="490.0" type="curve" smooth="yes"/>
      <point x="423.3221721746487" y="392.0"/>
      <point x="369.96968346116773" y="348.0"/>
      <point x="313.96968346116773" y="348.0" type="curve" smooth="yes"/>
      <point x="257.96968346116773" y="348.0"/>
      <point x="223.32217217464867" y="392.0"/>
    </contour>
  </outline>
</glyph>
<glyph name="guillemetright" format="1">
  <advance width="498.7837102390336"/>
  <unicode hex="00BB"/>
  <outline>
    <contour>
      <point x="190" y="81" type="line"/>
      <point x="291" y="81" type="line"/>
      <point x="448" y="243" type="line"/>
      <point x="458" y="288" type="line"/>
      <point x="378" y="277" type="line"/>
    </contour>
    <contour>
      <point x="271" y="456" type="line"/>
      <point x="382" y="252" type="line"/>
      <point x="448" y="243" type="line"/>
      <point x="458" y="288" type="line"/>
      <point x="365" y="456" type="line"/>
    </contour>
    <contour>
      <point x="-11" y="81" type="line"/>
      <point x="90" y="81" type="line"/>
      <point x="247" y="243" type="line"/>
      <point x="257" y="288" type="line"/>
      <point x="177" y="277" type="line"/>
    </contour>
    <contour>
      <point x="70" y="456" type="line"/>
      <point x="181" y="252" type="line"/>
      <point x="247" y="243" type="line"/>
      <point x="257" y="288" type="line"/>
      <point x="164" y="456" type="line"/>
    </contour>
  </outline>
</glyph>
<glyph name="questiondown" format="1">
  <advance width="493.21708149527177"/>
  <unicode hex="00BF"/>
  <outline>
    <contour>
      <point x="-8" y="-38" type="curve" smooth="yes"/>
      <point x="-8" y="-120"/>
      <point x="58" y="-192"/>
      <point x="167" y="-192" type="curve" smooth="yes"/>
      <point x="257" y="-192"/>
      <point x="335" y="-148"/>
      <point x="396" y="-81" type="curve"/>
      <point x="346" y="-20" type="line"/>
      <point x="297" y="-70"/>
      <point x="246" y="-103"/>
      <point x="186" y="-103" type="curve" smooth="yes"/>
      <point x="130" y="-103"/>
      <point x="94" y="-67"/>
      <point x="94" y="-19" type="curve" smooth="yes"/>
      <point x="94" y="34"/>
      <point x="127" y="66"/>
      <point x="198" y="111" type="curve" smooth="yes"/>
      <point x="247" y="142"/>
      <point x="280" y="178"/>
      <point x="286" y="233" type="curve" smooth="yes"/>
      <point x="295" y="312" type="line"/>
      <point x="228" y="312" type="line"/>
      <point x="210" y="248" type="line" smooth="yes"/>
      <point x="200" y="214"/>
      <point x="180" y="190"/>
      <point x="150" y="173" type="curve" smooth="yes"/>
      <point x="53" y="112"/>
      <point x="-8" y="60"/>
    </contour>
    <contour>
      <point x="223" y="454" type="curve" smooth="yes"/>
      <point x="223" y="423"/>
      <point x="243" y="403"/>
      <point x="276" y="403" type="curve" smooth="yes"/>
      <point x="314" y="403"/>
      <point x="347" y="435"/>
      <point x="347" y="474" type="curve" smooth="yes"/>
      <point x="347" y="505"/>
      <point x="327" y="525"/>
      <point x="294" y="525" type="curve" smooth="yes"/>
      <point x="256" y="525"/>
      <point x="223" y="493"/>
    </contour>
  </outline>
</glyph>
<glyph name="AE" format="1">
  <advance width="961"/>
  <unicode hex="00C6"/>
  <outline>
    <contour>
      <point x="10.0" y="0.0" type="line"/>
      <point x="110.0" y="0.0" type="line"/>
      <point x="501.78506823541375" y="620.0" type="line"/>
      <point x="501.66402755231525" y="690.0" type="line"/>
      <point x="454.66402755231525" y="690.0" type="line"/>
    </contour>
    <contour>
      <point x="191.2359729639843" y="194.0" type="line"/>
      <point x="547.2359729639843" y="194.0" type="line"/>
      <point x="565.5158372676062" y="280.0" type="line"/>
      <point x="209.5158372676062" y="280.0" type="line"/>
    </contour>
    <contour>
      <point x="440.0" y="0.0" type="line"/>
      <point x="536.0" y="0.0" type="line"/>
      <point x="682.6640275523152" y="690.0" type="line"/>
      <point x="586.6640275523152" y="690.0" type="line"/>
    </contour>
    <contour>
      <point x="490.0" y="0.0" type="line"/>
      <point x="891.0" y="0.0" type="line"/>
      <point x="909.2798643036219" y="86.0" type="line"/>
      <point x="508.2798643036219" y="86.0" type="line"/>
    </contour>
    <contour>
      <point x="555.2548644326968" y="307.0" type="line"/>
      <point x="901.2548644326968" y="307.0" type="line"/>
      <point x="919.5347287363187" y="393.0" type="line"/>
      <point x="573.5347287363187" y="393.0" type="line"/>
    </contour>
    <contour>
      <point x="448.38416324869337" y="604.0" type="line"/>
      <point x="1014.3841632486933" y="604.0" type="line"/>
      <point x="1032.6640275523152" y="690.0" type="line"/>
      <point x="466.66402755231525" y="690.0" type="line"/>
    </contour>
    <contour>
      <point x="726.6640275523152" y="690.0" type="move" name="top"/>
    </contour>
  </outline>
</glyph>
<glyph name="Ccedilla" format="1">
  <advance width="626"/>
  <unicode hex="00C7"/>
  <outline>
    <contour>
      <point x="60" y="237" type="curve"/>
      <point x="60" y="79"/>
      <point x="156" y="-10"/>
      <point x="301" y="-10" type="curve"/>
      <point x="382" y="-10"/>
      <point x="466" y="22"/>
      <point x="536" y="83" type="curve"/>
      <point x="483" y="158" type="line"/>
      <point x="434" y="111"/>
      <point x="371" y="80"/>
      <point x="313" y="80" type="curve"/>
      <point x="218" y="80"/>
      <point x="161" y="138"/>
      <point x="161" y="249" type="curve"/>
      <point x="161" y="445"/>
      <point x="289" y="610"/>
      <point x="432" y="610" type="curve" smooth="yes"/>
      <point x="491" y="610"/>
      <point x="534" y="588"/>
      <point x="566" y="545" type="curve"/>
      <point x="641" y="609" type="line"/>
      <point x="587" y="671"/>
      <point x="527" y="700"/>
      <point x="447" y="700" type="curve" smooth="yes"/>
      <point x="240" y="700"/>
      <point x="60" y="487"/>
    </contour>
    <contour>
      <point x="186" y="-195" type="line"/>
      <point x="220" y="-195" type="line" smooth="yes"/>
      <point x="301" y="-195"/>
      <point x="362" y="-174"/>
      <point x="362" y="-112" type="curve" smooth="yes"/>
      <point x="362" y="-79"/>
      <point x="339" y="-59"/>
      <point x="302" y="-53" type="curve"/>
      <point x="326" y="9" type="line"/>
      <point x="278" y="15" type="line"/>
      <point x="235" y="-86" type="line"/>
      <point x="257" y="-88" type="line" smooth="yes"/>
      <point x="284" y="-91"/>
      <point x="295" y="-100"/>
      <point x="295" y="-113" type="curve"/>
      <point x="295" y="-131"/>
      <point x="270" y="-147"/>
      <point x="205" y="-147" type="curve"/>
    </contour>
  </outline>
</glyph>
<glyph name="Eth" format="1">
  <advance width="711"/>
  <unicode hex="00D0"/>
  <outline>
    <contour>
      <point x="99.82975130935675" y="305.0" type="line"/>
      <point x="420.82975130935677" y="305.0" type="line"/>
      <point x="437.83427624295854" y="385.0" type="line"/>
      <point x="116.83427624295852" y="385.0" type="line"/>
    </contour>
    <contour>
      <point x="110.0" y="0.0" type="line"/>
      <point x="206.0" y="0.0" type="line"/>
      <point x="352.66402755231525" y="690.0" type="line"/>
      <point x="256.66402755231525" y="690.0" type="line"/>
    </contour>
    <contour>
      <point x="160.0" y="0.0" type="line"/>
      <point x="333.0" y="0.0" type="line" smooth="yes"/>
      <point x="510.0" y="0.0"/>
      <point x="677.1444570854127" y="123.0"/>
      <point x="724.3320137761576" y="345.0" type="curve" smooth="yes"/>
      <point x="771.5195704669026" y="567.0"/>
      <point x="656.6640275523152" y="690.0"/>
      <point x="479.66402755231525" y="690.0" type="curve" smooth="yes"/>
      <point x="306.66402755231525" y="690.0" type="line"/>
      <point x="288.38416324869337" y="604.0" type="line"/>
      <point x="456.38416324869337" y="604.0" type="line" smooth="yes"/>
      <point x="584.3841632486933" y="604.0"/>
      <point x="660.6164030133813" y="511.0"/>
      <point x="625.3320137761576" y="345.0" type="curve" smooth="yes"/>
      <point x="590.047624538934" y="179.0"/>
      <point x="474.2798643036219" y="86.0"/>
      <point x="346.2798643036219" y="86.0" type="curve" smooth="yes"/>
      <point x="178.2798643036219" y="86.0" type="line"/>
    </contour>
  </outline>
</glyph>
<glyph name="multiply" format="1">
  <advance width="600"/>
  <unicode hex="00D7"/>
  <outline>
    <contour>
      <point x="116.0" y="143" type="line"/>
      <point x="165.0" y="77" type="line"/>
      <point x="606.0" y="440" type="line"/>
      <point x="557.0" y="506" type="line"/>
    </contour>
    <contour>
      <point x="184.0" y="446" type="line"/>
      <point x="470.0" y="79" type="line"/>
      <point x="540.0" y="134" type="line"/>
      <point x="254.0" y="501" type="line"/>
    </contour>
  </outline>
</glyph>
<glyph name="Oslash" format="1">
  <advance width="726"/>
  <unicode hex="00D8"/>
  <outline>
    <contour>
      <point x="133.33201377615762" y="345.0" type="curve" smooth="yes"/>
      <point x="83.80633490704247" y="112.0"/>
      <point x="194.87443438329979" y="-10.0"/>
      <point x="360.8744343832998" y="-10.0" type="curve" smooth="yes"/>
      <point x="526.8744343832998" y="-10.0"/>
      <point x="689.8063349070425" y="112.0"/>
      <point x="739.3320137761576" y="345.0" type="curve" smooth="yes"/>
      <point x="788.8576926452728" y="578.0"/>
      <point x="677.7895931690155" y="700.0"/>
      <point x="511.78959316901546" y="700.0" type="curve" smooth="yes"/>
      <point x="345.78959316901546" y="700.0"/>
      <point x="182.85769264527278" y="578.0"/>
    </contour>
    <contour>
      <point x="232.33201377615762" y="345.0" type="curve" smooth="yes"/>
      <point x="269.95452519175154" y="522.0"/>
      <point x="375.87205918038353" y="611.0"/>
      <point x="492.87205918038353" y="611.0" type="curve" smooth="yes"/>
      <point x="609.8720591803835" y="611.0"/>
      <point x="677.9545251917516" y="522.0"/>
      <point x="640.3320137761576" y="345.0" type="curve" smooth="yes"/>
      <point x="602.7095023605638" y="168.0"/>
      <point x="496.7919683719318" y="79.0"/>
      <point x="379.7919683719318" y="79.0" type="curve" smooth="yes"/>
      <point x="262.7919683719318" y="79.0"/>
      <point x="194.7095023605637" y="168.0"/>
    </contour>
    <contour>
      <point x="48.714819028470906" y="41.0" type="line"/>
      <point x="93.87443438329979" y="-10.0" type="line"/>
      <point x="823.9492085238444" y="649.0" type="line"/>
      <point x="778.7895931690155" y="700.0" type="line"/>
    </contour>
    <contour>
      <point x="509.66402755231525" y="690.0" type="move" name="top"/>
    </contour>
  </outline>
</glyph>
<glyph name="Thorn" format="1">
  <advance width="632"/>
  <unicode hex="00DE"/>
  <outline>
    <contour>
      <point x="100.0" y="0.0" type="line"/>
      <point x="196.0" y="0.0" type="line"/>
      <point x="342.66402755231525" y="690.0" type="line"/>
      <point x="246.66402755231528" y="690.0" type="line"/>
    </contour>
    <contour>
      <point x="178.69513582545298" y="135.0" type="line"/>
      <point x="371.695135825453" y="135.0" type="line" smooth="yes"/>
      <point x="504.36836417190966" y="135.0"/>
      <point x="626.4150797993968" y="208.95652173913044"/>
      <point x="655.3320137761576" y="345.0" type="curve" smooth="yes"/>
      <point x="684.2489477529184" y="481.0434782608695"/>
      <point x="593.6421200733189" y="555.0"/>
      <point x="460.9688917268623" y="555.0" type="curve" smooth="yes"/>
      <point x="267.9688917268623" y="555.0" type="line"/>
      <point x="249.68902742324036" y="469.0" type="line"/>
      <point x="437.68902742324036" y="469.0" type="line" smooth="yes"/>
      <point x="521.0640274232404" y="469.0"/>
      <point x="573.3542517565652" y="425.08333333333337"/>
      <point x="556.3320137761576" y="345.0" type="curve" smooth="yes"/>
      <point x="539.30977579575" y="264.91666666666663"/>
      <point x="467.4437501290749" y="221.0"/>
      <point x="384.9750001290749" y="221.0" type="curve" smooth="yes"/>
      <point x="196.97500012907489" y="221.0" type="line"/>
    </contour>
  </outline>
</glyph>
<glyph name="germandbls" format="1">
  <advance width="595.0942853536072"/>
  <unicode hex="00DF"/>
  <outline>
    <contour>
      <point x="87" y="0" type="line"/>
      <point x="179" y="0" type="line"/>
      <point x="290" y="520" type="line" smooth="yes"/>
      <point x="308" y="608"/>
      <point x="360" y="648"/>
      <point x="422" y="648" type="curve" smooth="yes"/>
      <point x="475" y="648"/>
      <point x="506" y="623"/>
      <point x="506" y="572" type="curve"/>
      <point x="506" y="509"/>
      <point x="443" y="458"/>
      <point x="333" y="392" type="curve"/>
      <point x="317" y="317" type="line"/>
      <point x="425" y="250" type="line" smooth="yes"/>
      <point x="465" y="225"/>
      <point x="489" y="196"/>
      <point x="489" y="159" type="curve" smooth="yes"/>
      <point x="489" y="109"/>
      <point x="440" y="69"/>
      <point x="382" y="69" type="curve" smooth="yes"/>
      <point x="340" y="69"/>
      <point x="308" y="81"/>
      <point x="282" y="99" type="curve"/>
      <point x="240" y="34" type="line"/>
      <point x="265" y="16"/>
      <point x="314" y="-10"/>
      <point x="384" y="-10" type="curve"/>
      <point x="492" y="-10"/>
      <point x="582" y="56"/>
      <point x="582" y="165" type="curve" smooth="yes"/>
      <point x="582" y="229"/>
      <point x="542" y="275"/>
      <point x="485" y="310" type="curve" smooth="yes"/>
      <point x="412" y="355" type="line"/>
      <point x="515" y="420"/>
      <point x="599" y="483"/>
      <point x="599" y="584" type="curve"/>
      <point x="599" y="674"/>
      <point x="529" y="730"/>
      <point x="428" y="730" type="curve" smooth="yes"/>
      <point x="302" y="730"/>
      <point x="228" y="664"/>
      <point x="199" y="524" type="curve" smooth="yes"/>
    </contour>
  </outline>
</glyph>
<glyph name="ae" format="1">
  <advance width="853"/>
  <unicode hex="00E6"/>
  <outline>
    <contour>
      <point x="88.05746614044293" y="132.0" type="curve" smooth="yes"/>
      <point x="69.35248871348097" y="44.0"/>
      <point x="132.87443438329979" y="-10.0"/>
      <point x="215.87443438329979" y="-10.0" type="curve" smooth="yes"/>
      <point x="307.8744343832998" y="-10.0"/>
      <point x="393.35248871348097" y="44.0"/>
      <point x="459.50678740040263" y="120.0" type="curve"/>
      <point x="415.15882362052344" y="156.0" type="line"/>
      <point x="364.1058824136823" y="104.0"/>
      <point x="305.7291855635816" y="74.0"/>
      <point x="247.72918556358164" y="74.0" type="curve" smooth="yes"/>
      <point x="200.72918556358164" y="74.0"/>
      <point x="174.83054304366217" y="98.0"/>
      <point x="183.7579186338031" y="140.0" type="curve" smooth="yes"/>
      <point x="192.89785078561405" y="183.0"/>
      <point x="232.61266981408494" y="224.0"/>
      <point x="365.37590511579526" y="237.0" type="curve" smooth="yes"/>
      <point x="425.65124448581537" y="243.0" type="line"/>
      <point x="439.4674209943668" y="308.0" type="line"/>
      <point x="376.04230787102676" y="306.0" type="line" smooth="yes"/>
      <point x="187.76696850100663" y="300.0"/>
      <point x="106.97500012907489" y="221.0"/>
    </contour>
    <contour>
      <point x="175.32669710825044" y="472.0" type="curve"/>
      <point x="190.7472852979887" y="394.0" type="line"/>
      <point x="241.0611993397393" y="419.0"/>
      <point x="288.88721744979966" y="437.0"/>
      <point x="341.88721744979966" y="437.0" type="curve" smooth="yes"/>
      <point x="414.88721744979966" y="437.0"/>
      <point x="451.4477377913489" y="402.0"/>
      <point x="432.742760364387" y="314.0" type="curve" smooth="yes"/>
      <point x="421.26470603420574" y="260.0" type="line"/>
      <point x="509.26470603420574" y="260.0" type="line"/>
      <point x="523.0808825427572" y="325.0" type="line" smooth="yes"/>
      <point x="551.5634618065402" y="459.0"/>
      <point x="480.3321948767616" y="525.0"/>
      <point x="369.5921948767616" y="525.0" type="curve" smooth="yes"/>
      <point x="308.5921948767616" y="525.0"/>
      <point x="228.4908373966811" y="501.0"/>
    </contour>
    <contour>
      <point x="419.5642535408456" y="252.0" type="curve" smooth="yes"/>
      <point x="382.3668552485917" y="77.0"/>
      <point x="466.18519135541123" y="-10.0"/>
      <point x="603.8744343832998" y="-10.0" type="curve" smooth="yes"/>
      <point x="664.8744343832998" y="-10.0"/>
      <point x="726.2753393700201" y="6.0"/>
      <point x="780.139932151811" y="43.0" type="curve"/>
      <point x="752.6565611537226" y="116.0" type="line"/>
      <point x="716.555203673642" y="92.0"/>
      <point x="672.7291855635816" y="74.0"/>
      <point x="624.7291855635816" y="74.0" type="curve" smooth="yes"/>
      <point x="537.5416855635816" y="74.0"/>
      <point x="482.48257926378295" y="134.0"/>
      <point x="507.5642535408456" y="252.0" type="curve" smooth="yes"/>
      <point x="534.5589368729384" y="379.0"/>
      <point x="601.3380763444528" y="444.0"/>
      <point x="678.3751133814899" y="444.0" type="curve" smooth="yes"/>
      <point x="746.3751133814899" y="444.0"/>
      <point x="791.9598418596587" y="395.0"/>
      <point x="764.7526019658959" y="267.0" type="curve"/>
      <point x="790.6171947476868" y="304.0" type="line"/>
      <point x="498.6171947476867" y="304.0" type="line"/>
      <point x="482.8880091841051" y="230.0" type="line"/>
      <point x="844.888009184105" y="230.0" type="line"/>
      <point x="848.4386879241454" y="242.0"/>
      <point x="852.2019232258557" y="255.0"/>
      <point x="854.7526019658959" y="267.0" type="curve" smooth="yes"/>
      <point x="891.3123305731397" y="439.0"/>
      <point x="814.5921948767616" y="525.0"/>
      <point x="696.5921948767616" y="525.0" type="curve" smooth="yes"/>
      <point x="574.7139340071965" y="525.0"/>
      <point x="457.82443464144956" y="432.0"/>
    </contour>
    <contour>
      <point x="535.4666292600614" y="515.0" type="move" name="top"/>
    </contour>
  </outline>
</glyph>
<glyph name="ccedilla" format="1">
  <advance width="495"/>
  <unicode hex="00E7"/>
  <outline>
    <contour>
      <point x="38" y="174" type="curve" smooth="yes"/>
      <point x="38" y="61"/>
      <point x="107" y="-10"/>
      <point x="212" y="-10" type="curve"/>
      <point x="289" y="-10"/>
      <point x="354" y="24"/>
      <point x="411" y="79" type="curve"/>
      <point x="365" y="140" type="line"/>
      <point x="326" y="99"/>
      <point x="277" y="72"/>
      <point x="226" y="72" type="curve"/>
      <point x="167" y="72"/>
      <point x="131" y="111"/>
      <point x="131" y="187" type="curve" smooth="yes"/>
      <point x="131" y="312"/>
      <point x="210" y="443"/>
      <point x="315" y="443" type="curve" smooth="yes"/>
      <point x="355" y="443"/>
      <point x="385" y="426"/>
      <point x="406" y="392" type="curve"/>
      <point x="470" y="448" type="line"/>
      <point x="442" y="495"/>
      <point x="386" y="525"/>
      <point x="326" y="525" type="curve" smooth="yes"/>
      <point x="161" y="525"/>
      <point x="38" y="358"/>
    </contour>
    <contour>
      <point x="104" y="-195" type="line"/>
      <point x="138" y="-195" type="line" smooth="yes"/>
      <point x="219" y="-195"/>
      <point x="280" y="-174"/>
      <point x="280" y="-112" type="curve" smooth="yes"/>
      <point x="280" y="-79"/>
      <point x="257" y="-59"/>
      <point x="220" y="-53" type="curve"/>
      <point x="244" y="9" type="line"/>
      <point x="196" y="15" type="line"/>
      <point x="153" y="-86" type="line"/>
      <point x="175" y="-88" type="line" smooth="yes"/>
      <point x="202" y="-91"/>
      <point x="213" y="-100"/>
      <point x="213" y="-113" type="curve"/>
      <point x="213" y="-131"/>
      <point x="188" y="-147"/>
      <point x="123" y="-147" type="curve"/>
    </contour>
  </outline>
</glyph>
<glyph name="eth" format="1">
  <advance width="575.0056476813055"/>
  <unicode hex="00F0"/>
  <outline>
    <contour>
      <point x="104.95079199245521" y="235.0" type="curve" smooth="yes"/>
      <point x="70.94174212525166" y="75.0"/>
      <point x="159.87443438329979" y="-10.0"/>
      <point x="283.8744343832998" y="-10.0" type="curve" smooth="yes"/>
      <point x="407.8744343832998" y="-10.0"/>
      <point x="532.0673077419519" y="85.0"/>
      <point x="570.2647060342058" y="260.0" type="curve" smooth="yes"/>
      <point x="613.7760183682102" y="460.0"/>
      <point x="531.1859732221341" y="636.0"/>
      <point x="433.0407244024159" y="720.0" type="curve"/>
      <point x="313.0407244024159" y="720.0" type="line"/>
      <point x="440.8092763720334" y="606.0"/>
      <point x="516.5248871348098" y="440.0"/>
      <point x="478.26470603420574" y="260.0" type="curve" smooth="yes"/>
      <point x="452.33280551046306" y="138.0"/>
      <point x="377.09151587857156" y="71.0"/>
      <point x="301.09151587857156" y="71.0" type="curve" smooth="yes"/>
      <point x="225.09151587857156" y="71.0"/>
      <point x="176.20723989376285" y="128.0"/>
      <point x="198.9507919924552" y="235.0" type="curve" smooth="yes"/>
      <point x="221.69434409114757" y="342.0"/>
      <point x="294.8100681063388" y="399.0"/>
      <point x="370.8100681063388" y="399.0" type="curve" smooth="yes"/>
      <point x="430.8100681063388" y="399.0"/>
      <point x="479.37058844788805" y="364.0"/>
      <point x="495.8925341177069" y="310.0" type="curve"/>
      <point x="510.7714934346084" y="380.0" type="line"/>
      <point x="491.3993215181095" y="430.0"/>
      <point x="454.02714960161063" y="480.0"/>
      <point x="368.02714960161063" y="480.0" type="curve" smooth="yes"/>
      <point x="264.02714960161063" y="480.0"/>
      <point x="138.95984185965875" y="395.0"/>
    </contour>
    <contour>
      <point x="316.4424211234417" y="529.0" type="line"/>
      <point x="596.2003397572448" y="669.0" type="line"/>
      <point x="575.1662900191161" y="730.0" type="line"/>
      <point x="295.40837138531305" y="590.0" type="line"/>
    </contour>
  </outline>
</glyph>
<glyph name="divide" format="1">
  <advance width="640"/>
  <unicode hex="00F7"/>
  <outline>
    <contour>
      <point x="146.0" y="249" type="line"/>
      <point x="600.0" y="249" type="line"/>
      <point x="617.0" y="331" type="line"/>
      <point x="163.0" y="331" type="line"/>
    </contour>
    <contour>
      <point x="277.0" y="89" type="curve"/>
      <point x="277.0" y="59"/>
      <point x="297.0" y="40"/>
      <point x="328.0" y="40" type="curve"/>
      <point x="367.0" y="40"/>
      <point x="402.0" y="71"/>
      <point x="402.0" y="112" type="curve"/>
      <point x="402.0" y="142"/>
      <point x="381.0" y="162"/>
      <point x="350.0" y="162" type="curve"/>
      <point x="311.0" y="162"/>
      <point x="277.0" y="130"/>
    </contour>
    <contour>
      <point x="357.0" y="467" type="curve"/>
      <point x="357.0" y="437"/>
      <point x="378.0" y="417"/>
      <point x="409.0" y="417" type="curve"/>
      <point x="448.0" y="417"/>
      <point x="482.0" y="449"/>
      <point x="482.0" y="490" type="curve"/>
      <point x="482.0" y="520"/>
      <point x="462.0" y="540"/>
      <point x="430.0" y="540" type="curve"/>
      <point x="391.0" y="540"/>
      <point x="357.0" y="508"/>
    </contour>
  </outline>
</glyph>
<glyph name="oslash" format="1">
  <advance width="572"/>
  <unicode hex="00F8"/>
  <outline>
    <contour>
      <point x="109.62703634919569" y="257.0" type="curve" smooth="yes"/>
      <point x="72.85475118028185" y="84.0"/>
      <point x="149.87443438329979" y="-10.0"/>
      <point x="283.8744343832998" y="-10.0" type="curve" smooth="yes"/>
      <point x="417.8744343832998" y="-10.0"/>
      <point x="534.8547511802818" y="84.0"/>
      <point x="571.6270363491957" y="257.0" type="curve" smooth="yes"/>
      <point x="608.3993215181096" y="430.0"/>
      <point x="531.5921948767616" y="525.0"/>
      <point x="397.5921948767616" y="525.0" type="curve" smooth="yes"/>
      <point x="263.5921948767616" y="525.0"/>
      <point x="146.3993215181095" y="430.0"/>
    </contour>
    <contour>
      <point x="203.6270363491957" y="257.0" type="curve" smooth="yes"/>
      <point x="229.13382374959832" y="377.0"/>
      <point x="294.3751133814898" y="444.0"/>
      <point x="380.3751133814898" y="444.0" type="curve" smooth="yes"/>
      <point x="466.3751133814898" y="444.0"/>
      <point x="503.1338237495983" y="377.0"/>
      <point x="477.6270363491957" y="257.0" type="curve" smooth="yes"/>
      <point x="452.120248948793" y="137.0"/>
      <point x="387.09151587857156" y="71.0"/>
      <point x="301.09151587857156" y="71.0" type="curve" smooth="yes"/>
      <point x="215.09151587857156" y="71.0"/>
      <point x="178.12024894879303" y="137.0"/>
    </contour>
    <contour>
      <point x="43.714819028470906" y="41.0" type="line"/>
      <point x="88.87443438329979" y="-10.0" type="line"/>
      <point x="637.7518102315905" y="474.0" type="line"/>
      <point x="592.5921948767616" y="525.0" type="line"/>
    </contour>
    <contour>
      <point x="395.4666292600614" y="515.0" type="move" name="top"/>
    </contour>
  </outline>
</glyph>
<glyph name="thorn" format="1">
  <advance width="586"/>
  <unicode hex="00FE"/>
  <outline>
    <contour>
      <point x="47.48868766599558" y="-200.0" type="line"/>
      <point x="143.73981889939603" y="-180.0" type="line"/>
      <point x="338.22907282746627" y="735.0" type="line"/>
      <point x="241.9779415940658" y="715.0" type="line"/>
    </contour>
    <contour>
      <point x="189.1875566907449" y="222.0" type="line"/>
      <point x="153.47805433018118" y="54.0"/>
      <point x="229.87443438329979" y="-10.0"/>
      <point x="315.8744343832998" y="-10.0" type="curve"/>
      <point x="444.8744343832998" y="-10.0"/>
      <point x="550.555203673642" y="92.0"/>
      <point x="586.6898191575458" y="262.0" type="curve" smooth="yes"/>
      <point x="621.5490952714295" y="426.0"/>
      <point x="555.5921948767616" y="525.0"/>
      <point x="450.5921948767616" y="525.0" type="curve" smooth="yes"/>
      <point x="384.5921948767616" y="525.0"/>
      <point x="314.30248897163074" y="486.0"/>
      <point x="258.3993215181095" y="430.0" type="curve"/>
      <point x="243.09524907786792" y="358.0" type="line"/>
      <point x="297.723077161369" y="408.0"/>
      <point x="354.5248871348097" y="440.0"/>
      <point x="407.5248871348097" y="440.0" type="curve" smooth="yes"/>
      <point x="477.5248871348097" y="440.0"/>
      <point x="516.9212671879284" y="376.0"/>
      <point x="492.05214947253575" y="259.0" type="curve" smooth="yes"/>
      <point x="468.0332580038232" y="146.0"/>
      <point x="400.2412896318915" y="67.0"/>
      <point x="317.2412896318915" y="67.0" type="curve"/>
      <point x="257.2412896318915" y="67.0"/>
      <point x="206.86911771539258" y="117.0"/>
      <point x="231.31312230744513" y="232.0" type="curve"/>
    </contour>
  </outline>
</glyph>
<glyph name="Dcroat" format="1">
  <advance width="698"/>
  <unicode hex="0110"/>
  <outline>
    <contour>
      <point x="97" y="308" type="line"/>
      <point x="418" y="308" type="line"/>
      <point x="434" y="383" type="line"/>
      <point x="113" y="383" type="line"/>
    </contour>
    <contour>
      <point x="105" y="0" type="line"/>
      <point x="202" y="0" type="line"/>
      <point x="349" y="690" type="line"/>
      <point x="252" y="690" type="line"/>
    </contour>
    <contour>
      <point x="151" y="0" type="line"/>
      <point x="301" y="0" type="line" smooth="yes"/>
      <point x="546" y="0"/>
      <point x="721" y="191"/>
      <point x="721" y="439" type="curve" smooth="yes"/>
      <point x="722" y="591"/>
      <point x="614" y="690"/>
      <point x="448" y="690" type="curve" smooth="yes"/>
      <point x="298" y="690" type="line"/>
      <point x="279" y="605" type="line"/>
      <point x="431" y="605" type="line" smooth="yes"/>
      <point x="551" y="605"/>
      <point x="620" y="539"/>
      <point x="621" y="425" type="curve" smooth="yes"/>
      <point x="620" y="239"/>
      <point x="485" y="85"/>
      <point x="312" y="85" type="curve" smooth="yes"/>
      <point x="168" y="85" type="line"/>
    </contour>
  </outline>
</glyph>
<glyph name="dcroat" format="1">
  <advance width="585.441854861367"/>
  <unicode hex="0111"/>
  <outline>
    <contour>
      <point x="315" y="586" type="line"/>
      <point x="631" y="586" type="line"/>
      <point x="643" y="644" type="line"/>
      <point x="327" y="644" type="line"/>
    </contour>
    <contour>
      <point x="39" y="177" type="curve"/>
      <point x="39" y="58"/>
      <point x="108" y="-10"/>
      <point x="194" y="-10" type="curve"/>
      <point x="267" y="-10"/>
      <point x="335" y="29"/>
      <point x="376" y="100" type="curve"/>
      <point x="364" y="112" type="line"/>
      <point x="361" y="0" type="line"/>
      <point x="448" y="0" type="line"/>
      <point x="448" y="34" type="line" smooth="yes"/>
      <point x="448" y="65"/>
      <point x="451" y="92"/>
      <point x="458" y="123" type="curve" smooth="yes"/>
      <point x="587" y="732" type="line"/>
      <point x="492" y="716" type="line"/>
      <point x="394" y="254" type="line" smooth="yes"/>
      <point x="369" y="138"/>
      <point x="286" y="72"/>
      <point x="219" y="72" type="curve"/>
      <point x="168" y="72"/>
      <point x="133" y="109"/>
      <point x="133" y="187" type="curve"/>
      <point x="133" y="325"/>
      <point x="218" y="449"/>
      <point x="314" y="449" type="curve"/>
      <point x="361" y="449"/>
      <point x="401" y="430"/>
      <point x="438" y="386" type="curve"/>
      <point x="455" y="468" type="line"/>
      <point x="415" y="507"/>
      <point x="365" y="525"/>
      <point x="316" y="525" type="curve"/>
      <point x="169" y="525"/>
      <point x="39" y="369"/>
    </contour>
  </outline>
</glyph>
<glyph name="eogonek" format="1">
  <advance width="524"/>
  <unicode hex="0119"/>
  <outline>
    <contour>
      <point x="37" y="171" type="curve" smooth="yes"/>
      <point x="37" y="59"/>
      <point x="114" y="-10"/>
      <point x="223" y="-10" type="curve" smooth="yes"/>
      <point x="305" y="-10"/>
      <point x="370" y="25"/>
      <point x="429" y="80" type="curve"/>
      <point x="383" y="139" type="line"/>
      <point x="342" y="98"/>
      <point x="290" y="71"/>
      <point x="233" y="71" type="curve" smooth="yes"/>
      <point x="171" y="71"/>
      <point x="130" y="108"/>
      <point x="130" y="186" type="curve" smooth="yes"/>
      <point x="130" y="312"/>
      <point x="216" y="446"/>
      <point x="328" y="446" type="curve" smooth="yes"/>
      <point x="371" y="446"/>
      <point x="399" y="422"/>
      <point x="399" y="384" type="curve" smooth="yes"/>
      <point x="399" y="342"/>
      <point x="357" y="294"/>
      <point x="207" y="294" type="curve" smooth="yes"/>
      <point x="180" y="294"/>
      <point x="151" y="296"/>
      <point x="117" y="299" type="curve"/>
      <point x="106" y="235" type="line"/>
      <point x="145" y="231"/>
      <point x="180" y="229"/>
      <point x="212" y="229" type="curve" smooth="yes"/>
      <point x="367" y="229"/>
      <point x="491" y="277"/>
      <point x="491" y="393" type="curve" smooth="yes"/>
      <point x="491" y="468"/>
      <point x="428" y="525"/>
      <point x="338" y="525" type="curve" smooth="yes"/>
      <point x="164" y="525"/>
      <point x="37" y="357"/>
    </contour>
    <contour>
      <point x="193" y="-119" type="curve" smooth="yes"/>
      <point x="193" y="-160"/>
      <point x="223" y="-195"/>
      <point x="280" y="-195" type="curve" smooth="yes"/>
      <point x="310" y="-195"/>
      <point x="336" y="-187"/>
      <point x="362" y="-172" type="curve"/>
      <point x="344" y="-122" type="line"/>
      <point x="327" y="-132"/>
      <point x="306" y="-138"/>
      <point x="291" y="-138" type="curve" smooth="yes"/>
      <point x="268" y="-138"/>
      <point x="255" y="-125"/>
      <point x="255" y="-107" type="curve" smooth="yes"/>
      <point x="255" y="-60"/>
      <point x="327" y="-40"/>
      <point x="429" y="80" type="curve"/>
      <point x="287" y="0" type="line"/>
      <point x="240" y="-23"/>
      <point x="193" y="-66"/>
    </contour>
  </outline>
</glyph>
<glyph name="Hbar" format="1">
  <advance width="726.7414023680069"/>
  <unicode hex="0126"/>
  <outline>
    <contour>
      <point x="72" y="526" type="line"/>
      <point x="757" y="526" type="line"/>
      <point x="773" y="594" type="line"/>
      <point x="88" y="594" type="line"/>
    </contour>
    <contour>
      <point x="40" y="0" type="line"/>
      <point x="137" y="0" type="line"/>
      <point x="284" y="690" type="line"/>
      <point x="187" y="690" type="line"/>
    </contour>
    <contour>
      <point x="151" y="306" type="line"/>
      <point x="587" y="306" type="line"/>
      <point x="605" y="390" type="line"/>
      <point x="169" y="390" type="line"/>
    </contour>
    <contour>
      <point x="471" y="0" type="line"/>
      <point x="567" y="0" type="line"/>
      <point x="714" y="690" type="line"/>
      <point x="617" y="690" type="line"/>
    </contour>
  </outline>
</glyph>
<glyph name="hbar" format="1">
  <advance width="609"/>
  <unicode hex="0127"/>
  <outline>
    <contour>
      <point x="95.0" y="0.0" type="line"/>
      <point x="187.0" y="0.0" type="line"/>
      <point x="343.22907282746627" y="735.0" type="line"/>
      <point x="246.9779415940658" y="715.0" type="line"/>
    </contour>
    <contour>
      <point x="248.732918762878" y="361.0" type="line"/>
      <point x="303.1481902847091" y="410.0"/>
      <point x="361.09977401146966" y="438.0"/>
      <point x="414.09977401146966" y="438.0" type="curve"/>
      <point x="478.09977401146966" y="438.0"/>
      <point x="516.3849549829988" y="397.0"/>
      <point x="496.6171947476867" y="304.0" type="curve" smooth="yes"/>
      <point x="432.0" y="0.0" type="line"/>
      <point x="524.0" y="0.0" type="line"/>
      <point x="591.167873487727" y="316.0" type="line" smooth="yes"/>
      <point x="621.1383486832001" y="457.0"/>
      <point x="558.5921948767616" y="525.0"/>
      <point x="456.5921948767616" y="525.0" type="curve"/>
      <point x="389.5921948767616" y="525.0"/>
      <point x="319.30248897163074" y="486.0"/>
      <point x="263.3993215181095" y="430.0" type="curve"/>
    </contour>
    <contour>
      <point x="142.22002296026272" y="575.0" type="line"/>
      <point x="459.2200229602627" y="575.0" type="line"/>
      <point x="474.0989822771643" y="645.0" type="line"/>
      <point x="157.09898227716428" y="645.0" type="line"/>
    </contour>
  </outline>
</glyph>
<glyph name="dotlessi" format="1">
  <advance width="272"/>
  <unicode hex="0131"/>
  <outline>
    <contour>
      <point x="90.0" y="0.0" type="line"/>
      <point x="182.0" y="0.0" type="line"/>
      <point x="291.4666292600614" y="515.0" type="line"/>
      <point x="199.46662926006138" y="515.0" type="line"/>
    </contour>
    <contour>
      <point x="245.46662926006138" y="515.0" type="move" name="top"/>
    </contour>
  </outline>
</glyph>
<glyph name="IJ" format="1">
  <advance width="735.3359724476848"/>
  <unicode hex="0132"/>
  <outline>
    <contour>
      <point x="36" y="0" type="line"/>
      <point x="133" y="0" type="line"/>
      <point x="279" y="690" type="line"/>
      <point x="182" y="690" type="line"/>
    </contour>
    <contour>
      <point x="236" y="26" type="line"/>
      <point x="270" y="4"/>
      <point x="319" y="-10"/>
      <point x="376" y="-10" type="curve" smooth="yes"/>
      <point x="495" y="-10"/>
      <point x="596" y="58"/>
      <point x="634" y="236" type="curve" smooth="yes"/>
      <point x="731" y="690" type="line"/>
      <point x="637" y="690" type="line"/>
      <point x="542" y="246" type="line" smooth="yes"/>
      <point x="516" y="123"/>
      <point x="453" y="78"/>
      <point x="378" y="78" type="curve" smooth="yes"/>
      <point x="344" y="78"/>
      <point x="312" y="88"/>
      <point x="291" y="104" type="curve"/>
    </contour>
  </outline>
</glyph>
<glyph name="kra" format="1">
  <advance width="533"/>
  <unicode hex="0138"/>
  <outline>
    <contour>
      <point x="90.0" y="0.0" type="line"/>
      <point x="182.0" y="0.0" type="line"/>
      <point x="291.4666292600614" y="515.0" type="line"/>
      <point x="199.46662926006138" y="515.0" type="line"/>
    </contour>
    <contour>
      <point x="211.28438923722368" y="166.0" type="line"/>
      <point x="612.4666292600614" y="515.0" type="line"/>
      <point x="495.4666292600614" y="515.0" type="line"/>
      <point x="235.94095039094623" y="282.0" type="line"/>
    </contour>
    <contour>
      <point x="290.9023757192158" y="263.0" type="line"/>
      <point x="406.0" y="0.0" type="line"/>
      <point x="518.0" y="0.0" type="line"/>
      <point x="366.8683259810872" y="324.0" type="line"/>
    </contour>
  </outline>
</glyph>
<glyph name="Lslash" format="1">
  <advance width="548.0"/>
  <unicode hex="0141"/>
  <outline>
    <contour>
      <point x="15" y="210" type="line"/>
      <point x="352" y="390" type="line"/>
      <point x="375" y="481" type="line"/>
      <point x="38" y="301" type="line"/>
    </contour>
    <contour>
      <point x="40" y="0" type="line"/>
      <point x="137" y="0" type="line"/>
      <point x="284" y="690" type="line"/>
      <point x="187" y="690" type="line"/>
    </contour>
    <contour>
      <point x="86" y="0" type="line"/>
      <point x="453" y="0" type="line"/>
      <point x="471" y="85" type="line"/>
      <point x="104" y="85" type="line"/>
    </contour>
  </outline>
</glyph>
<glyph name="lslash" format="1">
  <advance width="306"/>
  <unicode hex="0142"/>
  <outline>
    <contour>
      <point x="47" y="0" type="line"/>
      <point x="139" y="0" type="line"/>
      <point x="294" y="732" type="line"/>
      <point x="199" y="716" type="line"/>
    </contour>
    <contour>
      <point x="18" y="210" type="line"/>
      <point x="285" y="351" type="line"/>
      <point x="308" y="442" type="line"/>
      <point x="41" y="301" type="line"/>
    </contour>
  </outline>
</glyph>
<glyph name="Eng" format="1">
  <advance width="720.0"/>
  <unicode hex="014A"/>
  <outline>
    <contour>
      <point x="95" y="0" type="line"/>
      <point x="186" y="0" type="line"/>
      <point x="333" y="690" type="line"/>
      <point x="242" y="690" type="line"/>
    </contour>
    <contour>
      <point x="273" y="690" type="line"/>
      <point x="535" y="0" type="line"/>
      <point x="624" y="0" type="line"/>
      <point x="364" y="690" type="line"/>
    </contour>
    <contour>
      <point x="358" y="-175" type="line"/>
      <point x="379" y="-186"/>
      <point x="409" y="-194"/>
      <point x="442" y="-194" type="curve"/>
      <point x="532" y="-194"/>
      <point x="592" y="-153"/>
      <point x="618" y="-32" type="curve" smooth="yes"/>
      <point x="772" y="690" type="line"/>
      <point x="681" y="690" type="line"/>
      <point x="528" y="-30" type="line" smooth="yes"/>
      <point x="514" y="-94"/>
      <point x="482" y="-117"/>
      <point x="438" y="-117" type="curve"/>
      <point x="419" y="-117"/>
      <point x="399" y="-112"/>
      <point x="384" y="-104" type="curve"/>
    </contour>
  </outline>
</glyph>
<glyph name="eng" format="1">
  <advance width="595.257239635613"/>
  <unicode hex="014B"/>
  <outline>
    <contour>
      <point x="88" y="0" type="line"/>
      <point x="180" y="0" type="line"/>
      <point x="235" y="261" type="line" smooth="yes"/>
      <point x="260" y="378"/>
      <point x="344" y="444"/>
      <point x="410" y="444" type="curve"/>
      <point x="461" y="444"/>
      <point x="493" y="416"/>
      <point x="493" y="358" type="curve" smooth="yes"/>
      <point x="493" y="344"/>
      <point x="491" y="330"/>
      <point x="487" y="313" type="curve"/>
      <point x="415" y="-30" type="line" smooth="yes"/>
      <point x="402" y="-94"/>
      <point x="370" y="-117"/>
      <point x="326" y="-117" type="curve"/>
      <point x="307" y="-117"/>
      <point x="287" y="-112"/>
      <point x="272" y="-104" type="curve"/>
      <point x="246" y="-175" type="line"/>
      <point x="267" y="-186"/>
      <point x="297" y="-194"/>
      <point x="330" y="-194" type="curve"/>
      <point x="420" y="-194"/>
      <point x="480" y="-153"/>
      <point x="506" y="-32" type="curve" smooth="yes"/>
      <point x="580" y="314" type="line" smooth="yes"/>
      <point x="584" y="334"/>
      <point x="586" y="354"/>
      <point x="586" y="371" type="curve" smooth="yes"/>
      <point x="586" y="468"/>
      <point x="519" y="525"/>
      <point x="439" y="525" type="curve"/>
      <point x="363" y="525"/>
      <point x="294" y="486"/>
      <point x="253" y="416" type="curve"/>
      <point x="265" y="403" type="line"/>
      <point x="268" y="515" type="line"/>
      <point x="181" y="515" type="line"/>
      <point x="181" y="482" type="line" smooth="yes"/>
      <point x="181" y="450"/>
      <point x="178" y="423"/>
      <point x="171" y="392" type="curve" smooth="yes"/>
    </contour>
  </outline>
</glyph>
<glyph name="oe" format="1">
  <advance width="862.9954750663983"/>
  <unicode hex="0153"/>
  <outline>
    <contour>
      <point x="40" y="176" type="curve"/>
      <point x="40" y="60"/>
      <point x="102" y="-10"/>
      <point x="208" y="-10" type="curve"/>
      <point x="377" y="-10"/>
      <point x="485" y="168"/>
      <point x="485" y="341" type="curve"/>
      <point x="485" y="452"/>
      <point x="422" y="525"/>
      <point x="319" y="525" type="curve"/>
      <point x="152" y="525"/>
      <point x="40" y="363"/>
    </contour>
    <contour>
      <point x="132" y="186" type="curve"/>
      <point x="132" y="312"/>
      <point x="203" y="446"/>
      <point x="310" y="446" type="curve"/>
      <point x="364" y="446"/>
      <point x="395" y="407"/>
      <point x="395" y="328" type="curve"/>
      <point x="395" y="202"/>
      <point x="325" y="69"/>
      <point x="217" y="69" type="curve"/>
      <point x="162" y="69"/>
      <point x="132" y="108"/>
    </contour>
    <contour>
      <point x="390" y="171" type="curve" smooth="yes"/>
      <point x="390" y="59"/>
      <point x="465" y="-10"/>
      <point x="562" y="-10" type="curve" smooth="yes"/>
      <point x="644" y="-10"/>
      <point x="709" y="25"/>
      <point x="768" y="80" type="curve"/>
      <point x="722" y="139" type="line"/>
      <point x="681" y="98"/>
      <point x="629" y="71"/>
      <point x="572" y="71" type="curve" smooth="yes"/>
      <point x="517" y="71"/>
      <point x="476" y="111"/>
      <point x="476" y="186" type="curve" smooth="yes"/>
      <point x="476" y="312"/>
      <point x="560" y="446"/>
      <point x="667" y="446" type="curve" smooth="yes"/>
      <point x="711" y="446"/>
      <point x="739" y="422"/>
      <point x="739" y="384" type="curve" smooth="yes"/>
      <point x="739" y="341"/>
      <point x="696" y="293"/>
      <point x="530" y="293" type="curve" smooth="yes"/>
      <point x="509" y="293"/>
      <point x="490" y="295"/>
      <point x="462" y="299" type="curve"/>
      <point x="452" y="235" type="line"/>
      <point x="486" y="230"/>
      <point x="509" y="228"/>
      <point x="537" y="228" type="curve" smooth="yes"/>
      <point x="731" y="228"/>
      <point x="830" y="294"/>
      <point x="830" y="393" type="curve" smooth="yes"/>
      <point x="830" y="468"/>
      <point x="767" y="525"/>
      <point x="677" y="525" type="curve" smooth="yes"/>
      <point x="517" y="525"/>
      <point x="390" y="357"/>
    </contour>
  </outline>
</glyph>
<glyph name="Scedilla" format="1">
  <advance width="600.919745146421"/>
  <unicode hex="015E"/>
  <outline>
    <contour>
      <point x="10" y="92" type="line"/>
      <point x="80" y="32"/>
      <point x="165" y="-10"/>
      <point x="272" y="-10" type="curve"/>
      <point x="437" y="-10"/>
      <point x="526" y="79"/>
      <point x="526" y="184" type="curve"/>
      <point x="526" y="261"/>
      <point x="484" y="326"/>
      <point x="339" y="401" type="curve" smooth="yes"/>
      <point x="242" y="451"/>
      <point x="219" y="483"/>
      <point x="219" y="524" type="curve"/>
      <point x="219" y="569"/>
      <point x="265" y="615"/>
      <point x="355" y="615" type="curve"/>
      <point x="424" y="615"/>
      <point x="484" y="586"/>
      <point x="531" y="547" type="curve"/>
      <point x="582" y="624" type="line"/>
      <point x="526" y="669"/>
      <point x="453" y="700"/>
      <point x="368" y="700" type="curve"/>
      <point x="211" y="700"/>
      <point x="121" y="611"/>
      <point x="121" y="518" type="curve"/>
      <point x="121" y="445"/>
      <point x="162" y="387"/>
      <point x="288" y="319" type="curve" smooth="yes"/>
      <point x="403" y="259"/>
      <point x="422" y="223"/>
      <point x="422" y="175" type="curve"/>
      <point x="422" y="124"/>
      <point x="375" y="75"/>
      <point x="278" y="75" type="curve"/>
      <point x="196" y="75"/>
      <point x="120" y="115"/>
      <point x="68" y="167" type="curve"/>
    </contour>
    <contour>
      <point x="153" y="-195" type="line"/>
      <point x="187" y="-195" type="line" smooth="yes"/>
      <point x="268" y="-195"/>
      <point x="329" y="-174"/>
      <point x="329" y="-112" type="curve" smooth="yes"/>
      <point x="329" y="-79"/>
      <point x="306" y="-59"/>
      <point x="269" y="-53" type="curve"/>
      <point x="293" y="9" type="line"/>
      <point x="245" y="15" type="line"/>
      <point x="202" y="-86" type="line"/>
      <point x="224" y="-88" type="line" smooth="yes"/>
      <point x="251" y="-91"/>
      <point x="262" y="-100"/>
      <point x="262" y="-113" type="curve"/>
      <point x="262" y="-131"/>
      <point x="237" y="-147"/>
      <point x="172" y="-147" type="curve"/>
    </contour>
  </outline>
</glyph>
<glyph name="scedilla" format="1">
  <advance width="469.69277301394146"/>
  <unicode hex="015F"/>
  <outline>
    <contour>
      <point x="-2" y="62" type="line"/>
      <point x="49" y="17"/>
      <point x="118" y="-10"/>
      <point x="193" y="-10" type="curve"/>
      <point x="322" y="-10"/>
      <point x="391" y="63"/>
      <point x="391" y="136" type="curve"/>
      <point x="391" y="205"/>
      <point x="354" y="247"/>
      <point x="253" y="303" type="curve" smooth="yes"/>
      <point x="189" y="338"/>
      <point x="170" y="358"/>
      <point x="170" y="386" type="curve"/>
      <point x="170" y="418"/>
      <point x="200" y="448"/>
      <point x="257" y="448" type="curve"/>
      <point x="308" y="448"/>
      <point x="358" y="424"/>
      <point x="389" y="395" type="curve"/>
      <point x="436" y="464" type="line"/>
      <point x="392" y="501"/>
      <point x="327" y="525"/>
      <point x="266" y="525" type="curve"/>
      <point x="147" y="525"/>
      <point x="78" y="456"/>
      <point x="78" y="379" type="curve"/>
      <point x="78" y="319"/>
      <point x="112" y="278"/>
      <point x="206" y="226" type="curve" smooth="yes"/>
      <point x="276" y="187"/>
      <point x="296" y="164"/>
      <point x="296" y="131" type="curve"/>
      <point x="296" y="102"/>
      <point x="265" y="69"/>
      <point x="201" y="69" type="curve"/>
      <point x="143" y="69"/>
      <point x="92" y="91"/>
      <point x="50" y="131" type="curve"/>
    </contour>
    <contour>
      <point x="75" y="-195" type="line"/>
      <point x="109" y="-195" type="line" smooth="yes"/>
      <point x="190" y="-195"/>
      <point x="251" y="-174"/>
      <point x="251" y="-112" type="curve" smooth="yes"/>
      <point x="251" y="-79"/>
      <point x="228" y="-59"/>
      <point x="191" y="-53" type="curve"/>
      <point x="215" y="9" type="line"/>
      <point x="167" y="15" type="line"/>
      <point x="124" y="-86" type="line"/>
      <point x="146" y="-88" type="line" smooth="yes"/>
      <point x="173" y="-91"/>
      <point x="184" y="-100"/>
      <point x="184" y="-113" type="curve"/>
      <point x="184" y="-131"/>
      <point x="159" y="-147"/>
      <point x="94" y="-147" type="curve"/>
    </contour>
  </outline>
</glyph>
<glyph name="Tcedilla" format="1">
  <advance width="569.4032801896366"/>
  <unicode hex="0162"/>
  <outline>
    <contour>
      <point x="99" y="605" type="line"/>
      <point x="608" y="605" type="line"/>
      <point x="626" y="690" type="line"/>
      <point x="117" y="690" type="line"/>
    </contour>
    <contour>
      <point x="177" y="0" type="line"/>
      <point x="273" y="0" type="line"/>
      <point x="420" y="690" type="line"/>
      <point x="323" y="690" type="line"/>
    </contour>
    <contour>
      <point x="116" y="-195" type="line"/>
      <point x="150" y="-195" type="line" smooth="yes"/>
      <point x="231" y="-195"/>
      <point x="292" y="-174"/>
      <point x="292" y="-112" type="curve" smooth="yes"/>
      <point x="292" y="-79"/>
      <point x="269" y="-59"/>
      <point x="232" y="-53" type="curve"/>
      <point x="256" y="9" type="line"/>
      <point x="208" y="15" type="line"/>
      <point x="165" y="-86" type="line"/>
      <point x="187" y="-88" type="line" smooth="yes"/>
      <point x="214" y="-91"/>
      <point x="225" y="-100"/>
      <point x="225" y="-113" type="curve"/>
      <point x="225" y="-131"/>
      <point x="200" y="-147"/>
      <point x="135" y="-147" type="curve"/>
    </contour>
  </outline>
</glyph>
<glyph name="tcedilla" format="1">
  <advance width="387.23676469828973"/>
  <unicode hex="0163"/>
  <outline>
    <contour>
      <point x="54" y="442" type="line"/>
      <point x="377" y="442" type="line"/>
      <point x="392" y="515" type="line"/>
      <point x="69" y="515" type="line"/>
    </contour>
    <contour>
      <point x="81" y="112" type="curve"/>
      <point x="81" y="36"/>
      <point x="131" y="-10"/>
      <point x="209" y="-10" type="curve"/>
      <point x="241" y="-10"/>
      <point x="278" y="0"/>
      <point x="305" y="13" type="curve"/>
      <point x="294" y="93" type="line"/>
      <point x="270" y="82"/>
      <point x="245" y="75"/>
      <point x="224" y="75" type="curve"/>
      <point x="193" y="75"/>
      <point x="174" y="91"/>
      <point x="174" y="126" type="curve"/>
      <point x="174" y="138"/>
      <point x="175" y="150"/>
      <point x="178" y="163" type="curve" smooth="yes"/>
      <point x="283" y="656" type="line"/>
      <point x="188" y="640" type="line"/>
      <point x="87" y="163" type="line" smooth="yes"/>
      <point x="83" y="147"/>
      <point x="81" y="129"/>
    </contour>
    <contour>
      <point x="66" y="-195" type="line"/>
      <point x="100" y="-195" type="line" smooth="yes"/>
      <point x="181" y="-195"/>
      <point x="242" y="-174"/>
      <point x="242" y="-112" type="curve" smooth="yes"/>
      <point x="242" y="-79"/>
      <point x="219" y="-59"/>
      <point x="182" y="-53" type="curve"/>
      <point x="206" y="9" type="line"/>
      <point x="158" y="15" type="line"/>
      <point x="115" y="-86" type="line"/>
      <point x="137" y="-88" type="line" smooth="yes"/>
      <point x="164" y="-91"/>
      <point x="175" y="-100"/>
      <point x="175" y="-113" type="curve"/>
      <point x="175" y="-131"/>
      <point x="150" y="-147"/>
      <point x="85" y="-147" type="curve"/>
    </contour>
  </outline>
</glyph>
<glyph name="Tbar" format="1">
  <advance width="586"/>
  <unicode hex="0166"/>
  <outline>
    <contour>
      <point x="163.38416324869337" y="604.0" type="line"/>
      <point x="679.3841632486933" y="604.0" type="line"/>
      <point x="697.6640275523152" y="690.0" type="line"/>
      <point x="181.66402755231528" y="690.0" type="line"/>
    </contour>
    <contour>
      <point x="245.0" y="0.0" type="line"/>
      <point x="341.0" y="0.0" type="line"/>
      <point x="487.66402755231525" y="690.0" type="line"/>
      <point x="391.66402755231525" y="690.0" type="line"/>
    </contour>
    <contour>
      <point x="156.64140288430642" y="290.0" type="line"/>
      <point x="552.6414028843064" y="290.0" type="line"/>
      <point x="569.6459278179082" y="370.0" type="line"/>
      <point x="173.6459278179082" y="370.0" type="line"/>
    </contour>
  </outline>
</glyph>
<glyph name="tbar" format="1">
  <advance width="408.23676469828973"/>
  <unicode hex="0167"/>
  <outline>
    <contour>
      <point x="21" y="241" type="line"/>
      <point x="344" y="241" type="line"/>
      <point x="359" y="308" type="line"/>
      <point x="36" y="308" type="line"/>
    </contour>
    <contour>
      <point x="64" y="442" type="line"/>
      <point x="387" y="442" type="line"/>
      <point x="402" y="515" type="line"/>
      <point x="79" y="515" type="line"/>
    </contour>
    <contour>
      <point x="91" y="112" type="curve"/>
      <point x="91" y="36"/>
      <point x="141" y="-10"/>
      <point x="219" y="-10" type="curve"/>
      <point x="251" y="-10"/>
      <point x="288" y="0"/>
      <point x="315" y="13" type="curve"/>
      <point x="304" y="93" type="line"/>
      <point x="280" y="82"/>
      <point x="255" y="75"/>
      <point x="234" y="75" type="curve"/>
      <point x="203" y="75"/>
      <point x="184" y="91"/>
      <point x="184" y="126" type="curve"/>
      <point x="184" y="138"/>
      <point x="185" y="150"/>
      <point x="188" y="163" type="curve" smooth="yes"/>
      <point x="293" y="656" type="line"/>
      <point x="198" y="640" type="line"/>
      <point x="97" y="163" type="line" smooth="yes"/>
      <point x="93" y="147"/>
      <point x="91" y="129"/>
    </contour>
  </outline>
</glyph>
<glyph name="Uogonek" format="1">
  <advance width="701.3359724476848"/>
  <unicode hex="0172"/>
  <outline>
    <contour>
      <point x="435" y="-172" type="curve"/>
      <point x="417" y="-122" type="line"/>
      <point x="400" y="-132"/>
      <point x="379" y="-138"/>
      <point x="364" y="-138" type="curve" smooth="yes"/>
      <point x="341" y="-138"/>
      <point x="328" y="-125"/>
      <point x="328" y="-107" type="curve" smooth="yes"/>
      <point x="328" y="-64"/>
      <point x="384" y="-39"/>
      <point x="492" y="52" type="curve" smooth="yes"/>
      <point x="544" y="96"/>
      <point x="585" y="160"/>
      <point x="604" y="249" type="curve" smooth="yes"/>
      <point x="698" y="690" type="line"/>
      <point x="603" y="690" type="line"/>
      <point x="512" y="266" type="line" smooth="yes"/>
      <point x="485" y="139"/>
      <point x="406" y="78"/>
      <point x="315" y="78" type="curve"/>
      <point x="230" y="78"/>
      <point x="176" y="120"/>
      <point x="176" y="208" type="curve" smooth="yes"/>
      <point x="176" y="225"/>
      <point x="179" y="247"/>
      <point x="184" y="269" type="curve" smooth="yes"/>
      <point x="274" y="690" type="line"/>
      <point x="177" y="690" type="line"/>
      <point x="88" y="272" type="line" smooth="yes"/>
      <point x="82" y="246"/>
      <point x="80" y="221"/>
      <point x="80" y="201" type="curve" smooth="yes"/>
      <point x="80" y="75"/>
      <point x="166" y="-10"/>
      <point x="299" y="-10" type="curve"/>
      <point x="315" y="-10"/>
      <point x="331" y="-9"/>
      <point x="347" y="-7" type="curve"/>
      <point x="305" y="-31"/>
      <point x="266" y="-71"/>
      <point x="266" y="-119" type="curve" smooth="yes"/>
      <point x="266" y="-160"/>
      <point x="296" y="-195"/>
      <point x="353" y="-195" type="curve" smooth="yes"/>
      <point x="383" y="-195"/>
      <point x="409" y="-187"/>
    </contour>
  </outline>
</glyph>
<glyph name="Schwa" format="1">
  <advance width="706"/>
  <unicode hex="018F"/>
  <outline>
    <contour>
      <point x="462.87205918038353" y="611.0" type="curve" smooth="yes"/>
      <point x="593.8720591803835" y="611.0"/>
      <point x="657.9545251917516" y="522.0"/>
      <point x="620.3320137761576" y="345.0" type="curve" smooth="yes"/>
      <point x="582.7095023605638" y="168.0"/>
      <point x="480.7919683719318" y="79.0"/>
      <point x="369.7919683719318" y="79.0" type="curve" smooth="yes"/>
      <point x="258.7919683719318" y="79.0"/>
      <point x="194.7095023605637" y="168.0"/>
      <point x="230.2064481594574" y="335.0" type="curve"/>
      <point x="196.36606351428628" y="284.0" type="line"/>
      <point x="628.3660635142862" y="284.0" type="line"/>
      <point x="646.6459278179082" y="370.0" type="line"/>
      <point x="140.6459278179082" y="370.0" type="line"/>
      <point x="137.52036220120794" y="360.0"/>
      <point x="133.54457033782765" y="346.0"/>
      <point x="131.2064481594574" y="335.0" type="curve" smooth="yes"/>
      <point x="83.80633490704247" y="112.0"/>
      <point x="189.87443438329979" y="-10.0"/>
      <point x="350.8744343832998" y="-10.0" type="curve" smooth="yes"/>
      <point x="511.8744343832998" y="-10.0"/>
      <point x="669.8063349070425" y="112.0"/>
      <point x="719.3320137761576" y="345.0" type="curve" smooth="yes"/>
      <point x="768.8576926452728" y="578.0"/>
      <point x="662.7895931690155" y="700.0"/>
      <point x="481.78959316901546" y="700.0" type="curve" smooth="yes"/>
      <point x="388.78959316901546" y="700.0"/>
      <point x="306.4128963189148" y="670.0"/>
      <point x="235.06040760543385" y="626.0" type="curve"/>
      <point x="264.48099579517213" y="548.0" type="line"/>
      <point x="319.7079188919529" y="582.0"/>
      <point x="395.87205918038353" y="611.0"/>
    </contour>
  </outline>
</glyph>
<glyph name="florin" format="1">
  <advance width="600"/>
  <unicode hex="0192"/>
  <outline>
    <contour>
      <point x="2.0" y="-173" type="line"/>
      <point x="22.0" y="-183"/>
      <point x="51.0" y="-195"/>
      <point x="92.0" y="-195" type="curve"/>
      <point x="149.0" y="-195"/>
      <point x="231.0" y="-172"/>
      <point x="260.0" y="-36" type="curve" smooth="yes"/>
      <point x="388.0" y="555" type="line" smooth="yes"/>
      <point x="403.0" y="622"/>
      <point x="436.0" y="650"/>
      <point x="485.0" y="650" type="curve"/>
      <point x="508.0" y="650"/>
      <point x="531.0" y="645"/>
      <point x="554.0" y="633" type="curve"/>
      <point x="586.0" y="706" type="line"/>
      <point x="561.0" y="720"/>
      <point x="524.0" y="730"/>
      <point x="488.0" y="730" type="curve"/>
      <point x="387.0" y="730"/>
      <point x="321.0" y="676"/>
      <point x="297.0" y="562" type="curve" smooth="yes"/>
      <point x="178.0" y="0" type="line" smooth="yes"/>
      <point x="158.0" y="-98"/>
      <point x="124.0" y="-112"/>
      <point x="81.0" y="-112" type="curve"/>
      <point x="63.0" y="-112"/>
      <point x="47.0" y="-109"/>
      <point x="29.0" y="-102" type="curve"/>
    </contour>
    <contour>
      <point x="180.0" y="442" type="line"/>
      <point x="507.0" y="442" type="line"/>
      <point x="523.0" y="515" type="line"/>
      <point x="196.0" y="515" type="line"/>
    </contour>
  </outline>
</glyph>
<glyph name="Nhookleft" format="1">
  <advance width="746"/>
  <unicode hex="019D"/>
  <outline>
    <contour>
      <point x="-79.472737662274" y="-181.0" type="line"/>
      <point x="-60.17319015563418" y="-189.0"/>
      <point x="-34.448529525654315" y="-195.0"/>
      <point x="-7.448529525654315" y="-195.0" type="curve" smooth="yes"/>
      <point x="84.55147047434568" y="-195.0"/>
      <point x="167.51742073621705" y="-134.0"/>
      <point x="188.77307690321925" y="-34.0" type="curve" smooth="yes"/>
      <point x="196.0" y="0.0" type="line"/>
      <point x="100.0" y="0.0" type="line"/>
      <point x="93.62330314989934" y="-30.0" type="line" smooth="yes"/>
      <point x="81.29502257303805" y="-88.0"/>
      <point x="49.76855196961748" y="-114.0"/>
      <point x="3.7685519696174765" y="-114.0" type="curve" smooth="yes"/>
      <point x="-16.231448030382523" y="-114.0"/>
      <point x="-32.38122178370243" y="-110.0"/>
      <point x="-47.31843897535232" y="-105.0" type="curve"/>
    </contour>
    <contour>
      <point x="100.0" y="0.0" type="line"/>
      <point x="196.0" y="0.0" type="line"/>
      <point x="342.66402755231525" y="690.0" type="line"/>
      <point x="246.66402755231528" y="690.0" type="line"/>
    </contour>
    <contour>
      <point x="290.66402755231525" y="690.0" type="line"/>
      <point x="500.0" y="0.0" type="line"/>
      <point x="602.0" y="0.0" type="line"/>
      <point x="392.66402755231525" y="690.0" type="line"/>
    </contour>
    <contour>
      <point x="550.0" y="0.0" type="line"/>
      <point x="646.0" y="0.0" type="line"/>
      <point x="792.6640275523152" y="690.0" type="line"/>
      <point x="696.6640275523152" y="690.0" type="line"/>
    </contour>
  </outline>
</glyph>
<glyph name="Oogonek" format="1">
  <advance width="711.2734614689518"/>
  <unicode hex="01EA"/>
  <outline>
    <contour>
      <point x="425" y="-172" type="curve"/>
      <point x="407" y="-122" type="line"/>
      <point x="390" y="-132"/>
      <point x="369" y="-138"/>
      <point x="354" y="-138" type="curve" smooth="yes"/>
      <point x="331" y="-138"/>
      <point x="318" y="-125"/>
      <point x="318" y="-107" type="curve" smooth="yes"/>
      <point x="318" y="-63"/>
      <point x="378" y="-37"/>
      <point x="494" y="60" type="curve" smooth="yes"/>
      <point x="600" y="148"/>
      <point x="678" y="290"/>
      <point x="678" y="453" type="curve"/>
      <point x="678" y="611"/>
      <point x="581" y="700"/>
      <point x="446" y="700" type="curve"/>
      <point x="241" y="700"/>
      <point x="60" y="487"/>
      <point x="60" y="237" type="curve"/>
      <point x="60" y="79"/>
      <point x="157" y="-10"/>
      <point x="293" y="-10" type="curve"/>
      <point x="308" y="-10"/>
      <point x="323" y="-9"/>
      <point x="337" y="-7" type="curve"/>
      <point x="295" y="-31"/>
      <point x="256" y="-71"/>
      <point x="256" y="-119" type="curve" smooth="yes"/>
      <point x="256" y="-160"/>
      <point x="286" y="-195"/>
      <point x="343" y="-195" type="curve" smooth="yes"/>
      <point x="373" y="-195"/>
      <point x="399" y="-187"/>
    </contour>
    <contour>
      <point x="161" y="249" type="curve"/>
      <point x="161" y="446"/>
      <point x="290" y="612"/>
      <point x="430" y="612" type="curve"/>
      <point x="519" y="612"/>
      <point x="577" y="553"/>
      <point x="578" y="441" type="curve"/>
      <point x="577" y="244"/>
      <point x="448" y="78"/>
      <point x="308" y="78" type="curve"/>
      <point x="219" y="78"/>
      <point x="161" y="137"/>
    </contour>
  </outline>
</glyph>
<glyph name="dotlessj" format="1">
  <advance width="266"/>
  <unicode hex="0237"/>
  <outline>
    <contour>
      <point x="-90" y="-175" type="line"/>
      <point x="-69" y="-186"/>
      <point x="-39" y="-194"/>
      <point x="-6" y="-194" type="curve"/>
      <point x="84" y="-194"/>
      <point x="149" y="-142"/>
      <point x="172" y="-32" type="curve" smooth="yes"/>
      <point x="288" y="515" type="line"/>
      <point x="196" y="515" type="line"/>
      <point x="80" y="-30" type="line" smooth="yes"/>
      <point x="67" y="-94"/>
      <point x="34" y="-117"/>
      <point x="-10" y="-117" type="curve"/>
      <point x="-29" y="-117"/>
      <point x="-49" y="-112"/>
      <point x="-64" y="-104" type="curve"/>
    </contour>
    <contour>
      <point x="241" y="515" type="move" name="top"/>
    </contour>
  </outline>
</glyph>
<glyph name="ipa:schwa" format="1">
  <advance width="547.0331227379105"/>
  <unicode hex="0259"/>
  <outline>
    <contour>
      <point x="96" y="173" type="curve"/>
      <point x="96" y="75"/>
      <point x="165" y="-10"/>
      <point x="282" y="-10" type="curve"/>
      <point x="459" y="-10"/>
      <point x="552" y="147"/>
      <point x="552" y="314" type="curve"/>
      <point x="552" y="462"/>
      <point x="469" y="525"/>
      <point x="355" y="525" type="curve" smooth="yes"/>
      <point x="292" y="525"/>
      <point x="237" y="504"/>
      <point x="182" y="470" type="curve"/>
      <point x="205" y="400" type="line"/>
      <point x="248" y="426"/>
      <point x="298" y="443"/>
      <point x="344" y="443" type="curve" smooth="yes"/>
      <point x="420" y="443"/>
      <point x="464" y="405"/>
      <point x="464" y="310" type="curve"/>
      <point x="464" y="185"/>
      <point x="407" y="68"/>
      <point x="291" y="68" type="curve"/>
      <point x="219" y="68"/>
      <point x="183" y="117"/>
      <point x="183" y="178" type="curve" smooth="yes"/>
      <point x="183" y="210"/>
      <point x="196" y="236"/>
      <point x="198" y="245" type="curve"/>
      <point x="167" y="215" type="line"/>
      <point x="474" y="215" type="line"/>
      <point x="489" y="281" type="line"/>
      <point x="114" y="281" type="line"/>
      <point x="108" y="266"/>
      <point x="96" y="223"/>
    </contour>
  </outline>
</glyph>
